M48
;DRILL file {kicad (2014-10-22 BZR 5216)-product} date Thu 02 Jul 2015 03:27:12 PM EDT
;FORMAT={-:-/ absolute / inch / decimal}
FMAT,2
INCH,TZ
T1C0.025
T2C0.040
%
G90
G05
M72
T1
X6.5512Y-4.3622
X6.6063Y-3.5984
X6.6063Y-3.8268
X6.6299Y-4.3622
X6.6535Y-3.8189
X6.811Y-4.3622
X6.8504Y-3.7559
X6.8504Y-4.0236
X6.8661Y-4.315
X6.874Y-3.9843
X6.8819Y-3.7087
X6.8898Y-3.6378
X6.8957Y-3.5689
X6.937Y-4.5748
T2
X7.0402Y-4.3386
X7.0402Y-4.4386
X7.0402Y-4.5386
X7.0402Y-4.6386
X7.0409Y-3.5461
X7.0409Y-3.6461
X7.0409Y-3.7461
X7.0409Y-3.8461
T0
M30
