%FSLAX46Y46*%
G04 Gerber Fmt 4.6, Leading zero omitted, Abs format (unit mm)*
G04 Created by KiCad (PCBNEW (2014-10-22 BZR 5216)-product) date Thu 02 Jul 2015 03:27:14 PM EDT*
%MOMM*%
G01*
G04 APERTURE LIST*
%ADD10C,0.100000*%
%ADD11C,0.250000*%
%ADD12C,0.150000*%
G04 APERTURE END LIST*
D10*
D11*
X165889286Y-96847618D02*
X165829762Y-96661904D01*
X165770238Y-96599999D01*
X165651190Y-96538094D01*
X165472619Y-96538094D01*
X165353571Y-96599999D01*
X165294048Y-96661904D01*
X165234524Y-96785713D01*
X165234524Y-97280951D01*
X166484524Y-97280951D01*
X166484524Y-96847618D01*
X166425000Y-96723808D01*
X166365476Y-96661904D01*
X166246429Y-96599999D01*
X166127381Y-96599999D01*
X166008333Y-96661904D01*
X165948810Y-96723808D01*
X165889286Y-96847618D01*
X165889286Y-97280951D01*
X165234524Y-95423808D02*
X165889286Y-95423808D01*
X166008333Y-95485713D01*
X166067857Y-95609523D01*
X166067857Y-95857142D01*
X166008333Y-95980951D01*
X165294048Y-95423808D02*
X165234524Y-95547618D01*
X165234524Y-95857142D01*
X165294048Y-95980951D01*
X165413095Y-96042856D01*
X165532143Y-96042856D01*
X165651190Y-95980951D01*
X165710714Y-95857142D01*
X165710714Y-95547618D01*
X165770238Y-95423808D01*
X165294048Y-94866666D02*
X165234524Y-94742856D01*
X165234524Y-94495237D01*
X165294048Y-94371428D01*
X165413095Y-94309523D01*
X165472619Y-94309523D01*
X165591667Y-94371428D01*
X165651190Y-94495237D01*
X165651190Y-94680952D01*
X165710714Y-94804761D01*
X165829762Y-94866666D01*
X165889286Y-94866666D01*
X166008333Y-94804761D01*
X166067857Y-94680952D01*
X166067857Y-94495237D01*
X166008333Y-94371428D01*
X165294048Y-93257142D02*
X165234524Y-93380952D01*
X165234524Y-93628571D01*
X165294048Y-93752380D01*
X165413095Y-93814285D01*
X165889286Y-93814285D01*
X166008333Y-93752380D01*
X166067857Y-93628571D01*
X166067857Y-93380952D01*
X166008333Y-93257142D01*
X165889286Y-93195237D01*
X165770238Y-93195237D01*
X165651190Y-93814285D01*
X166067857Y-92080951D02*
X165055952Y-92080951D01*
X164936905Y-92142856D01*
X164877381Y-92204761D01*
X164817857Y-92328570D01*
X164817857Y-92514285D01*
X164877381Y-92638094D01*
X165294048Y-92080951D02*
X165234524Y-92204761D01*
X165234524Y-92452380D01*
X165294048Y-92576189D01*
X165353571Y-92638094D01*
X165472619Y-92699999D01*
X165829762Y-92699999D01*
X165948810Y-92638094D01*
X166008333Y-92576189D01*
X166067857Y-92452380D01*
X166067857Y-92204761D01*
X166008333Y-92080951D01*
X166067857Y-90904761D02*
X165055952Y-90904761D01*
X164936905Y-90966666D01*
X164877381Y-91028571D01*
X164817857Y-91152380D01*
X164817857Y-91338095D01*
X164877381Y-91461904D01*
X165294048Y-90904761D02*
X165234524Y-91028571D01*
X165234524Y-91276190D01*
X165294048Y-91399999D01*
X165353571Y-91461904D01*
X165472619Y-91523809D01*
X165829762Y-91523809D01*
X165948810Y-91461904D01*
X166008333Y-91399999D01*
X166067857Y-91276190D01*
X166067857Y-91028571D01*
X166008333Y-90904761D01*
X165234524Y-90285714D02*
X166067857Y-90285714D01*
X166484524Y-90285714D02*
X166425000Y-90347619D01*
X166365476Y-90285714D01*
X166425000Y-90223809D01*
X166484524Y-90285714D01*
X166365476Y-90285714D01*
X165234524Y-89480952D02*
X165294048Y-89604761D01*
X165353571Y-89666666D01*
X165472619Y-89728571D01*
X165829762Y-89728571D01*
X165948810Y-89666666D01*
X166008333Y-89604761D01*
X166067857Y-89480952D01*
X166067857Y-89295238D01*
X166008333Y-89171428D01*
X165948810Y-89109523D01*
X165829762Y-89047619D01*
X165472619Y-89047619D01*
X165353571Y-89109523D01*
X165294048Y-89171428D01*
X165234524Y-89295238D01*
X165234524Y-89480952D01*
X163889286Y-98023809D02*
X163889286Y-97590476D01*
X163234524Y-97404762D02*
X163234524Y-98023809D01*
X164484524Y-98023809D01*
X164484524Y-97404762D01*
X164067857Y-96971429D02*
X163234524Y-96661905D01*
X164067857Y-96352381D01*
X163294048Y-95361905D02*
X163234524Y-95485715D01*
X163234524Y-95733334D01*
X163294048Y-95857143D01*
X163413095Y-95919048D01*
X163889286Y-95919048D01*
X164008333Y-95857143D01*
X164067857Y-95733334D01*
X164067857Y-95485715D01*
X164008333Y-95361905D01*
X163889286Y-95300000D01*
X163770238Y-95300000D01*
X163651190Y-95919048D01*
X164067857Y-94742857D02*
X163234524Y-94742857D01*
X163948810Y-94742857D02*
X164008333Y-94680952D01*
X164067857Y-94557143D01*
X164067857Y-94371429D01*
X164008333Y-94247619D01*
X163889286Y-94185714D01*
X163234524Y-94185714D01*
X163294048Y-93009524D02*
X163234524Y-93133334D01*
X163234524Y-93380953D01*
X163294048Y-93504762D01*
X163353571Y-93566667D01*
X163472619Y-93628572D01*
X163829762Y-93628572D01*
X163948810Y-93566667D01*
X164008333Y-93504762D01*
X164067857Y-93380953D01*
X164067857Y-93133334D01*
X164008333Y-93009524D01*
X163234524Y-92452381D02*
X164484524Y-92452381D01*
X163234524Y-91895238D02*
X163889286Y-91895238D01*
X164008333Y-91957143D01*
X164067857Y-92080953D01*
X164067857Y-92266667D01*
X164008333Y-92390476D01*
X163948810Y-92452381D01*
X163234524Y-91276191D02*
X164067857Y-91276191D01*
X164484524Y-91276191D02*
X164425000Y-91338096D01*
X164365476Y-91276191D01*
X164425000Y-91214286D01*
X164484524Y-91276191D01*
X164365476Y-91276191D01*
X163294048Y-90100000D02*
X163234524Y-90223810D01*
X163234524Y-90471429D01*
X163294048Y-90595238D01*
X163353571Y-90657143D01*
X163472619Y-90719048D01*
X163829762Y-90719048D01*
X163948810Y-90657143D01*
X164008333Y-90595238D01*
X164067857Y-90471429D01*
X164067857Y-90223810D01*
X164008333Y-90100000D01*
X163234524Y-89542857D02*
X164484524Y-89542857D01*
X163710714Y-89419048D02*
X163234524Y-89047619D01*
X164067857Y-89047619D02*
X163591667Y-89542857D01*
X166327857Y-118257143D02*
X166265952Y-118071429D01*
X166204048Y-118009524D01*
X166080238Y-117947619D01*
X165894524Y-117947619D01*
X165770714Y-118009524D01*
X165708810Y-118071429D01*
X165646905Y-118195238D01*
X165646905Y-118690476D01*
X166946905Y-118690476D01*
X166946905Y-118257143D01*
X166885000Y-118133333D01*
X166823095Y-118071429D01*
X166699286Y-118009524D01*
X166575476Y-118009524D01*
X166451667Y-118071429D01*
X166389762Y-118133333D01*
X166327857Y-118257143D01*
X166327857Y-118690476D01*
X165646905Y-116771429D02*
X165646905Y-117390476D01*
X166946905Y-117390476D01*
X166327857Y-116338095D02*
X166327857Y-115904762D01*
X165646905Y-115719048D02*
X165646905Y-116338095D01*
X166946905Y-116338095D01*
X166946905Y-115719048D01*
X165646905Y-115161905D02*
X166946905Y-115161905D01*
X165646905Y-114419048D02*
X166389762Y-114976191D01*
X166946905Y-114419048D02*
X166204048Y-115161905D01*
X165708810Y-113366667D02*
X165646905Y-113490477D01*
X165646905Y-113738096D01*
X165708810Y-113861905D01*
X165832619Y-113923810D01*
X166327857Y-113923810D01*
X166451667Y-113861905D01*
X166513571Y-113738096D01*
X166513571Y-113490477D01*
X166451667Y-113366667D01*
X166327857Y-113304762D01*
X166204048Y-113304762D01*
X166080238Y-113923810D01*
X166513571Y-112871429D02*
X165646905Y-112561905D01*
X166513571Y-112252381D02*
X165646905Y-112561905D01*
X165337381Y-112685714D01*
X165275476Y-112747619D01*
X165213571Y-112871429D01*
X164443571Y-118814286D02*
X163576905Y-118504762D01*
X164443571Y-118195238D01*
X163576905Y-117019048D02*
X163576905Y-117761905D01*
X163576905Y-117390476D02*
X164876905Y-117390476D01*
X164691190Y-117514286D01*
X164567381Y-117638095D01*
X164505476Y-117761905D01*
X163700714Y-116461905D02*
X163638810Y-116400000D01*
X163576905Y-116461905D01*
X163638810Y-116523810D01*
X163700714Y-116461905D01*
X163576905Y-116461905D01*
X164876905Y-115595238D02*
X164876905Y-115471429D01*
X164815000Y-115347619D01*
X164753095Y-115285714D01*
X164629286Y-115223810D01*
X164381667Y-115161905D01*
X164072143Y-115161905D01*
X163824524Y-115223810D01*
X163700714Y-115285714D01*
X163638810Y-115347619D01*
X163576905Y-115471429D01*
X163576905Y-115595238D01*
X163638810Y-115719048D01*
X163700714Y-115780952D01*
X163824524Y-115842857D01*
X164072143Y-115904762D01*
X164381667Y-115904762D01*
X164629286Y-115842857D01*
X164753095Y-115780952D01*
X164815000Y-115719048D01*
X164876905Y-115595238D01*
D12*
X179660751Y-104000000D02*
G75*
G03X179660751Y-104000000I-8260751J0D01*
G01*
X172795238Y-94128571D02*
X172652381Y-94176190D01*
X172604762Y-94223810D01*
X172557143Y-94319048D01*
X172557143Y-94461905D01*
X172604762Y-94557143D01*
X172652381Y-94604762D01*
X172747619Y-94652381D01*
X173128572Y-94652381D01*
X173128572Y-93652381D01*
X172795238Y-93652381D01*
X172700000Y-93700000D01*
X172652381Y-93747619D01*
X172604762Y-93842857D01*
X172604762Y-93938095D01*
X172652381Y-94033333D01*
X172700000Y-94080952D01*
X172795238Y-94128571D01*
X173128572Y-94128571D01*
X172176191Y-94366667D02*
X171700000Y-94366667D01*
X172271429Y-94652381D02*
X171938096Y-93652381D01*
X171604762Y-94652381D01*
X171414286Y-93652381D02*
X170842857Y-93652381D01*
X171128572Y-94652381D02*
X171128572Y-93652381D01*
X170652381Y-93652381D02*
X170080952Y-93652381D01*
X170366667Y-94652381D02*
X170366667Y-93652381D01*
X169223809Y-94652381D02*
X169795238Y-94652381D01*
X169509524Y-94652381D02*
X169509524Y-93652381D01*
X169604762Y-93795238D01*
X169700000Y-93890476D01*
X169795238Y-93938095D01*
M02*
