%FSLAX46Y46*%
G04 Gerber Fmt 4.6, Leading zero omitted, Abs format (unit mm)*
G04 Created by KiCad (PCBNEW (2014-10-22 BZR 5216)-product) date Thu 02 Jul 2015 03:27:14 PM EDT*
%MOMM*%
G01*
G04 APERTURE LIST*
%ADD10C,0.100000*%
%ADD11R,0.750000X0.800000*%
%ADD12R,0.500000X0.900000*%
%ADD13R,3.000000X5.000000*%
%ADD14R,2.032000X1.727200*%
%ADD15O,2.032000X1.727200*%
%ADD16R,1.000760X0.800100*%
%ADD17R,0.900000X0.500000*%
%ADD18R,0.500000X1.100000*%
%ADD19R,1.100000X0.500000*%
%ADD20R,1.600000X2.000000*%
%ADD21C,0.889000*%
%ADD22C,0.203200*%
%ADD23C,0.026000*%
G04 APERTURE END LIST*
D10*
D11*
X164000000Y-110750000D03*
X164000000Y-109250000D03*
X164200000Y-94950000D03*
X164200000Y-93450000D03*
X164000000Y-103450000D03*
X164000000Y-104950000D03*
D12*
X169050000Y-109400000D03*
X170550000Y-109400000D03*
D13*
X169400000Y-116200000D03*
X165400000Y-116200000D03*
X173400000Y-116200000D03*
D14*
X178840000Y-97690000D03*
D15*
X178840000Y-95150000D03*
X178840000Y-92610000D03*
X178840000Y-90070000D03*
D16*
X174499820Y-106400000D03*
X172300180Y-107352500D03*
X172300180Y-105447500D03*
X168300180Y-106400000D03*
X170499820Y-105447500D03*
X170499820Y-107352500D03*
D12*
X172050000Y-109400000D03*
X173550000Y-109400000D03*
D17*
X166600000Y-106750000D03*
X166600000Y-105250000D03*
D12*
X166450000Y-108400000D03*
X167950000Y-108400000D03*
D17*
X176200000Y-106750000D03*
X176200000Y-105250000D03*
D12*
X176350000Y-108400000D03*
X174850000Y-108400000D03*
D18*
X167200000Y-103600000D03*
X167900000Y-103600000D03*
X168600000Y-103600000D03*
X169300000Y-103600000D03*
X170000000Y-103600000D03*
X170700000Y-103600000D03*
X171400000Y-103600000D03*
X172100000Y-103600000D03*
X172800000Y-103600000D03*
X173500000Y-103600000D03*
X174200000Y-103600000D03*
X174900000Y-103600000D03*
X175600000Y-103600000D03*
D19*
X166400000Y-90600000D03*
X166400000Y-91300000D03*
X176400000Y-101800000D03*
X176400000Y-101100000D03*
X176400000Y-100400000D03*
X176400000Y-99700000D03*
X176400000Y-99000000D03*
X176400000Y-98300000D03*
X176400000Y-97600000D03*
X176400000Y-96900000D03*
X176400000Y-96200000D03*
X176400000Y-95500000D03*
X176400000Y-94800000D03*
X176400000Y-94100000D03*
X176400000Y-93400000D03*
X176400000Y-92700000D03*
X176400000Y-92000000D03*
X176400000Y-91300000D03*
X176400000Y-90600000D03*
X166400000Y-95500000D03*
X166400000Y-96200000D03*
X166400000Y-96900000D03*
X166400000Y-97600000D03*
X166400000Y-98300000D03*
X166400000Y-99000000D03*
X166400000Y-99700000D03*
X166400000Y-100400000D03*
X166400000Y-101100000D03*
X166400000Y-101800000D03*
D14*
X178820000Y-110200000D03*
D15*
X178820000Y-112740000D03*
X178820000Y-115280000D03*
X178820000Y-117820000D03*
D20*
X164200000Y-97100000D03*
X164200000Y-101100000D03*
D21*
X174000000Y-95400000D03*
X169000000Y-97000000D03*
X167800000Y-91400000D03*
X167800000Y-97200000D03*
X168400000Y-110800000D03*
X166400000Y-110800000D03*
X176200000Y-116200000D03*
X174400000Y-109600000D03*
X175150000Y-90650000D03*
X173000000Y-110800000D03*
X175000000Y-92400000D03*
X174800000Y-94200000D03*
X174600000Y-101200000D03*
X174000000Y-102200000D03*
D22*
X171400000Y-116000000D02*
X171400000Y-113800000D01*
X167900000Y-102900000D02*
X169000000Y-101800000D01*
X169000000Y-101800000D02*
X169000000Y-97000000D01*
X169000000Y-97000000D02*
X167500000Y-95500000D01*
X167500000Y-95500000D02*
X166400000Y-95500000D01*
X167900000Y-103600000D02*
X167900000Y-102900000D01*
X174000000Y-95400000D02*
X173900000Y-95500000D01*
X173900000Y-95500000D02*
X166400000Y-95500000D01*
X164000000Y-107200000D02*
X165200000Y-106000000D01*
X165200000Y-106000000D02*
X165200000Y-105200000D01*
X165200000Y-105200000D02*
X165800000Y-104600000D01*
X165800000Y-104600000D02*
X167600000Y-104600000D01*
X167600000Y-104600000D02*
X167900000Y-104300000D01*
X167900000Y-104300000D02*
X167900000Y-103600000D01*
X164000000Y-109250000D02*
X164000000Y-107200000D01*
X170499820Y-105447500D02*
X170499820Y-105552140D01*
X173802500Y-107352500D02*
X174850000Y-108400000D01*
X172300180Y-107352500D02*
X173802500Y-107352500D01*
X171252680Y-108400000D02*
X172300180Y-107352500D01*
X167950000Y-108400000D02*
X171252680Y-108400000D01*
X169400000Y-106200000D02*
X169400000Y-106950000D01*
X169400000Y-106950000D02*
X167950000Y-108400000D01*
X170152500Y-105447500D02*
X169400000Y-106200000D01*
X170499820Y-105447500D02*
X170152500Y-105447500D01*
X173550000Y-108602320D02*
X172300180Y-107352500D01*
X173550000Y-109400000D02*
X173550000Y-108602320D01*
X164250000Y-93450000D02*
X166400000Y-91300000D01*
X164200000Y-93450000D02*
X164250000Y-93450000D01*
X166400000Y-91300000D02*
X166400000Y-90600000D01*
X167800000Y-91400000D02*
X167700000Y-91300000D01*
X167700000Y-91300000D02*
X166400000Y-91300000D01*
X178420000Y-90590000D02*
X178840000Y-90170000D01*
X176400000Y-90600000D02*
X178420000Y-90590000D01*
X168400000Y-97800000D02*
X167800000Y-97200000D01*
X168400000Y-101400000D02*
X168400000Y-97800000D01*
X167200000Y-102600000D02*
X168400000Y-101400000D01*
X167200000Y-103600000D02*
X167200000Y-102600000D01*
X167950000Y-110350000D02*
X168400000Y-110800000D01*
X167950000Y-108400000D02*
X167950000Y-110350000D01*
X176780000Y-116200000D02*
X178400000Y-117820000D01*
X176200000Y-116200000D02*
X176780000Y-116200000D01*
X173400000Y-116200000D02*
X176200000Y-116200000D01*
X164450000Y-104950000D02*
X165800000Y-103600000D01*
X165800000Y-103600000D02*
X167200000Y-103600000D01*
X164000000Y-104950000D02*
X164450000Y-104950000D01*
X166350000Y-110750000D02*
X166400000Y-110800000D01*
X164000000Y-110750000D02*
X166350000Y-110750000D01*
X174850000Y-108400000D02*
X174850000Y-109150000D01*
X174400000Y-109600000D02*
X174850000Y-109150000D01*
X176800000Y-103600000D02*
X177750000Y-104550000D01*
X177750000Y-104550000D02*
X177750000Y-108500000D01*
X177750000Y-108500000D02*
X176200000Y-110050000D01*
X176200000Y-110050000D02*
X176200000Y-116200000D01*
X175600000Y-103600000D02*
X176800000Y-103600000D01*
X175150000Y-90650000D02*
X175200000Y-90600000D01*
X175200000Y-90600000D02*
X176400000Y-90600000D01*
X164200000Y-98200000D02*
X164200000Y-97200000D01*
X164200000Y-98200000D02*
X164200000Y-98200000D01*
X164200000Y-99000000D02*
X164900000Y-99700000D01*
X164900000Y-99700000D02*
X166400000Y-99700000D01*
X164200000Y-98200000D02*
X164200000Y-99000000D01*
X164200000Y-97100000D02*
X164200000Y-94950000D01*
X164000000Y-103450000D02*
X164000000Y-101400000D01*
X164750000Y-101750000D02*
X164200000Y-101200000D01*
X164800000Y-101800000D02*
X164200000Y-101200000D01*
X165000000Y-100400000D02*
X164200000Y-101200000D01*
X166400000Y-100400000D02*
X165000000Y-100400000D01*
X164000000Y-101400000D02*
X164200000Y-101200000D01*
X175000000Y-92400000D02*
X175400000Y-92000000D01*
X175400000Y-92000000D02*
X176400000Y-92000000D01*
X169050000Y-109400000D02*
X170450000Y-110800000D01*
X170450000Y-110800000D02*
X173000000Y-110800000D01*
X170550000Y-109400000D02*
X172050000Y-109400000D01*
X175850000Y-106400000D02*
X176200000Y-106750000D01*
X174499820Y-106400000D02*
X175850000Y-106400000D01*
X175600000Y-109800000D02*
X173000000Y-112400000D01*
X173000000Y-112400000D02*
X170600000Y-112400000D01*
X170600000Y-112400000D02*
X169400000Y-113600000D01*
X169400000Y-113600000D02*
X169400000Y-116200000D01*
X175600000Y-109600000D02*
X175600000Y-107350000D01*
X176200000Y-106750000D02*
X175600000Y-107350000D01*
X175600000Y-109600000D02*
X175600000Y-109800000D01*
X167950180Y-106750000D02*
X168300180Y-106400000D01*
X166600000Y-106750000D02*
X167950180Y-106750000D01*
X167200000Y-110000000D02*
X167400000Y-110200000D01*
X167400000Y-110200000D02*
X167400000Y-111200000D01*
X167400000Y-111200000D02*
X165400000Y-113200000D01*
X165400000Y-113200000D02*
X165400000Y-116200000D01*
X166600000Y-106750000D02*
X167200000Y-107350000D01*
X167200000Y-109400000D02*
X167200000Y-107350000D01*
X167200000Y-109400000D02*
X167200000Y-110000000D01*
X177300000Y-95500000D02*
X176400000Y-95500000D01*
X177980000Y-95250000D02*
X177300000Y-95500000D01*
X178840000Y-95250000D02*
X177980000Y-95250000D01*
X175400000Y-94800000D02*
X174800000Y-94200000D01*
X176400000Y-94800000D02*
X175400000Y-94800000D01*
X178400000Y-102600000D02*
X177600000Y-101800000D01*
X177600000Y-101800000D02*
X176400000Y-101800000D01*
X178400000Y-110200000D02*
X178400000Y-102600000D01*
X174700000Y-101100000D02*
X176400000Y-101100000D01*
X174600000Y-101200000D02*
X174700000Y-101100000D01*
X174700000Y-99700000D02*
X173600000Y-100800000D01*
X173600000Y-100800000D02*
X173600000Y-101800000D01*
X173600000Y-101800000D02*
X174000000Y-102200000D01*
X176400000Y-99700000D02*
X174700000Y-99700000D01*
X172300180Y-104700180D02*
X172100000Y-104500000D01*
X172100000Y-104500000D02*
X172100000Y-103600000D01*
X172300180Y-105447500D02*
X172300180Y-104700180D01*
X171400000Y-106400000D02*
X171400000Y-103600000D01*
X170499820Y-107300180D02*
X171400000Y-106400000D01*
X170499820Y-107352500D02*
X170499820Y-107300180D01*
X169150000Y-105250000D02*
X170000000Y-104400000D01*
X170000000Y-104400000D02*
X170000000Y-103600000D01*
X166600000Y-105250000D02*
X169150000Y-105250000D01*
X165600000Y-106250000D02*
X166600000Y-105250000D01*
X165600000Y-107400000D02*
X165600000Y-106250000D01*
X166450000Y-108250000D02*
X165600000Y-107400000D01*
X166450000Y-108400000D02*
X166450000Y-108250000D01*
X175650000Y-105250000D02*
X174900000Y-104500000D01*
X174900000Y-104500000D02*
X174900000Y-103600000D01*
X176200000Y-105250000D02*
X175650000Y-105250000D01*
X177200000Y-106250000D02*
X176200000Y-105250000D01*
X177200000Y-107400000D02*
X177200000Y-106250000D01*
X176350000Y-108250000D02*
X177200000Y-107400000D01*
X176350000Y-108400000D02*
X176350000Y-108250000D01*
D23*
G36*
X168681963Y-101668265D02*
X167742851Y-102607376D01*
X167553633Y-102529000D01*
X167455250Y-102529000D01*
X167325000Y-102659250D01*
X167325000Y-103359000D01*
X167433563Y-103359000D01*
X167433563Y-103841000D01*
X167325000Y-103841000D01*
X167325000Y-103861000D01*
X167075000Y-103861000D01*
X167075000Y-103841000D01*
X167075000Y-103359000D01*
X167075000Y-102659250D01*
X166944750Y-102529000D01*
X166846367Y-102529000D01*
X166654878Y-102608317D01*
X166508318Y-102754877D01*
X166429000Y-102946366D01*
X166429000Y-103153633D01*
X166429000Y-103228750D01*
X166559250Y-103359000D01*
X167075000Y-103359000D01*
X167075000Y-103841000D01*
X166559250Y-103841000D01*
X166429000Y-103971250D01*
X166429000Y-104046367D01*
X166429000Y-104253634D01*
X166440734Y-104281963D01*
X165800000Y-104281963D01*
X165678292Y-104306172D01*
X165575114Y-104375114D01*
X164975114Y-104975114D01*
X164906172Y-105078292D01*
X164881963Y-105200000D01*
X164881963Y-105266213D01*
X164765750Y-105150000D01*
X164187500Y-105150000D01*
X164187500Y-105740750D01*
X164317750Y-105871000D01*
X164478634Y-105871000D01*
X164670123Y-105791682D01*
X164816683Y-105645122D01*
X164881963Y-105487521D01*
X164881963Y-105868265D01*
X163775114Y-106975114D01*
X163706172Y-107078292D01*
X163681963Y-107200000D01*
X163681963Y-108633563D01*
X163581948Y-108633563D01*
X163502398Y-108666514D01*
X163441514Y-108727398D01*
X163408563Y-108806948D01*
X163408563Y-108893052D01*
X163408563Y-109693052D01*
X163441514Y-109772602D01*
X163502398Y-109833486D01*
X163506466Y-109835171D01*
X163329877Y-109908318D01*
X163266437Y-109971758D01*
X163266437Y-105728242D01*
X163329877Y-105791682D01*
X163521366Y-105871000D01*
X163682250Y-105871000D01*
X163812500Y-105740750D01*
X163812500Y-105150000D01*
X163739000Y-105150000D01*
X163739000Y-104750000D01*
X163812500Y-104750000D01*
X163812500Y-104689000D01*
X164187500Y-104689000D01*
X164187500Y-104750000D01*
X164765750Y-104750000D01*
X164896000Y-104619750D01*
X164896000Y-104446367D01*
X164816683Y-104254878D01*
X164670123Y-104108318D01*
X164493533Y-104035171D01*
X164497602Y-104033486D01*
X164558486Y-103972602D01*
X164591437Y-103893052D01*
X164591437Y-103806948D01*
X164591437Y-103006948D01*
X164558486Y-102927398D01*
X164497602Y-102866514D01*
X164418052Y-102833563D01*
X164331948Y-102833563D01*
X164318037Y-102833563D01*
X164318037Y-102316437D01*
X165043052Y-102316437D01*
X165122602Y-102283486D01*
X165183486Y-102222602D01*
X165216437Y-102143052D01*
X165216437Y-102056948D01*
X165216437Y-100718037D01*
X165643912Y-100718037D01*
X165657151Y-100750000D01*
X165633563Y-100806948D01*
X165633563Y-100893052D01*
X165633563Y-101393052D01*
X165657151Y-101450000D01*
X165633563Y-101506948D01*
X165633563Y-101593052D01*
X165633563Y-102093052D01*
X165666514Y-102172602D01*
X165727398Y-102233486D01*
X165806948Y-102266437D01*
X165893052Y-102266437D01*
X166993052Y-102266437D01*
X167072602Y-102233486D01*
X167133486Y-102172602D01*
X167166437Y-102093052D01*
X167166437Y-102006948D01*
X167166437Y-101506948D01*
X167142848Y-101450000D01*
X167166437Y-101393052D01*
X167166437Y-101306948D01*
X167166437Y-100806948D01*
X167142848Y-100750000D01*
X167166437Y-100693052D01*
X167166437Y-100606948D01*
X167166437Y-100106948D01*
X167142848Y-100050000D01*
X167166437Y-99993052D01*
X167166437Y-99906948D01*
X167166437Y-99406948D01*
X167142848Y-99350000D01*
X167166437Y-99293052D01*
X167166437Y-99206948D01*
X167166437Y-98706948D01*
X167142848Y-98650000D01*
X167166437Y-98593052D01*
X167166437Y-98506948D01*
X167166437Y-98006948D01*
X167142848Y-97950000D01*
X167166437Y-97893052D01*
X167166437Y-97806948D01*
X167166437Y-97306948D01*
X167142848Y-97250000D01*
X167166437Y-97193052D01*
X167166437Y-97106948D01*
X167166437Y-96606948D01*
X167142848Y-96550000D01*
X167166437Y-96493052D01*
X167166437Y-96406948D01*
X167166437Y-95906948D01*
X167142848Y-95850000D01*
X167156087Y-95818037D01*
X167368265Y-95818037D01*
X168362358Y-96812130D01*
X168339178Y-96867955D01*
X168338948Y-97130892D01*
X168439358Y-97373902D01*
X168625120Y-97559989D01*
X168681963Y-97583592D01*
X168681963Y-101668265D01*
X168681963Y-101668265D01*
G37*
X168681963Y-101668265D02*
X167742851Y-102607376D01*
X167553633Y-102529000D01*
X167455250Y-102529000D01*
X167325000Y-102659250D01*
X167325000Y-103359000D01*
X167433563Y-103359000D01*
X167433563Y-103841000D01*
X167325000Y-103841000D01*
X167325000Y-103861000D01*
X167075000Y-103861000D01*
X167075000Y-103841000D01*
X167075000Y-103359000D01*
X167075000Y-102659250D01*
X166944750Y-102529000D01*
X166846367Y-102529000D01*
X166654878Y-102608317D01*
X166508318Y-102754877D01*
X166429000Y-102946366D01*
X166429000Y-103153633D01*
X166429000Y-103228750D01*
X166559250Y-103359000D01*
X167075000Y-103359000D01*
X167075000Y-103841000D01*
X166559250Y-103841000D01*
X166429000Y-103971250D01*
X166429000Y-104046367D01*
X166429000Y-104253634D01*
X166440734Y-104281963D01*
X165800000Y-104281963D01*
X165678292Y-104306172D01*
X165575114Y-104375114D01*
X164975114Y-104975114D01*
X164906172Y-105078292D01*
X164881963Y-105200000D01*
X164881963Y-105266213D01*
X164765750Y-105150000D01*
X164187500Y-105150000D01*
X164187500Y-105740750D01*
X164317750Y-105871000D01*
X164478634Y-105871000D01*
X164670123Y-105791682D01*
X164816683Y-105645122D01*
X164881963Y-105487521D01*
X164881963Y-105868265D01*
X163775114Y-106975114D01*
X163706172Y-107078292D01*
X163681963Y-107200000D01*
X163681963Y-108633563D01*
X163581948Y-108633563D01*
X163502398Y-108666514D01*
X163441514Y-108727398D01*
X163408563Y-108806948D01*
X163408563Y-108893052D01*
X163408563Y-109693052D01*
X163441514Y-109772602D01*
X163502398Y-109833486D01*
X163506466Y-109835171D01*
X163329877Y-109908318D01*
X163266437Y-109971758D01*
X163266437Y-105728242D01*
X163329877Y-105791682D01*
X163521366Y-105871000D01*
X163682250Y-105871000D01*
X163812500Y-105740750D01*
X163812500Y-105150000D01*
X163739000Y-105150000D01*
X163739000Y-104750000D01*
X163812500Y-104750000D01*
X163812500Y-104689000D01*
X164187500Y-104689000D01*
X164187500Y-104750000D01*
X164765750Y-104750000D01*
X164896000Y-104619750D01*
X164896000Y-104446367D01*
X164816683Y-104254878D01*
X164670123Y-104108318D01*
X164493533Y-104035171D01*
X164497602Y-104033486D01*
X164558486Y-103972602D01*
X164591437Y-103893052D01*
X164591437Y-103806948D01*
X164591437Y-103006948D01*
X164558486Y-102927398D01*
X164497602Y-102866514D01*
X164418052Y-102833563D01*
X164331948Y-102833563D01*
X164318037Y-102833563D01*
X164318037Y-102316437D01*
X165043052Y-102316437D01*
X165122602Y-102283486D01*
X165183486Y-102222602D01*
X165216437Y-102143052D01*
X165216437Y-102056948D01*
X165216437Y-100718037D01*
X165643912Y-100718037D01*
X165657151Y-100750000D01*
X165633563Y-100806948D01*
X165633563Y-100893052D01*
X165633563Y-101393052D01*
X165657151Y-101450000D01*
X165633563Y-101506948D01*
X165633563Y-101593052D01*
X165633563Y-102093052D01*
X165666514Y-102172602D01*
X165727398Y-102233486D01*
X165806948Y-102266437D01*
X165893052Y-102266437D01*
X166993052Y-102266437D01*
X167072602Y-102233486D01*
X167133486Y-102172602D01*
X167166437Y-102093052D01*
X167166437Y-102006948D01*
X167166437Y-101506948D01*
X167142848Y-101450000D01*
X167166437Y-101393052D01*
X167166437Y-101306948D01*
X167166437Y-100806948D01*
X167142848Y-100750000D01*
X167166437Y-100693052D01*
X167166437Y-100606948D01*
X167166437Y-100106948D01*
X167142848Y-100050000D01*
X167166437Y-99993052D01*
X167166437Y-99906948D01*
X167166437Y-99406948D01*
X167142848Y-99350000D01*
X167166437Y-99293052D01*
X167166437Y-99206948D01*
X167166437Y-98706948D01*
X167142848Y-98650000D01*
X167166437Y-98593052D01*
X167166437Y-98506948D01*
X167166437Y-98006948D01*
X167142848Y-97950000D01*
X167166437Y-97893052D01*
X167166437Y-97806948D01*
X167166437Y-97306948D01*
X167142848Y-97250000D01*
X167166437Y-97193052D01*
X167166437Y-97106948D01*
X167166437Y-96606948D01*
X167142848Y-96550000D01*
X167166437Y-96493052D01*
X167166437Y-96406948D01*
X167166437Y-95906948D01*
X167142848Y-95850000D01*
X167156087Y-95818037D01*
X167368265Y-95818037D01*
X168362358Y-96812130D01*
X168339178Y-96867955D01*
X168338948Y-97130892D01*
X168439358Y-97373902D01*
X168625120Y-97559989D01*
X168681963Y-97583592D01*
X168681963Y-101668265D01*
G36*
X175657151Y-99350000D02*
X175643912Y-99381963D01*
X174700000Y-99381963D01*
X174578292Y-99406172D01*
X174475114Y-99475114D01*
X173375114Y-100575114D01*
X173306172Y-100678292D01*
X173281963Y-100800000D01*
X173281963Y-101800000D01*
X173306172Y-101921708D01*
X173363980Y-102008223D01*
X173339178Y-102067955D01*
X173338948Y-102330892D01*
X173439358Y-102573902D01*
X173625120Y-102759989D01*
X173854563Y-102855261D01*
X173850000Y-102857151D01*
X173793052Y-102833563D01*
X173706948Y-102833563D01*
X173206948Y-102833563D01*
X173150000Y-102857151D01*
X173093052Y-102833563D01*
X173006948Y-102833563D01*
X172506948Y-102833563D01*
X172450000Y-102857151D01*
X172393052Y-102833563D01*
X172306948Y-102833563D01*
X171806948Y-102833563D01*
X171750000Y-102857151D01*
X171693052Y-102833563D01*
X171606948Y-102833563D01*
X171106948Y-102833563D01*
X171050000Y-102857151D01*
X170993052Y-102833563D01*
X170906948Y-102833563D01*
X170406948Y-102833563D01*
X170350000Y-102857151D01*
X170293052Y-102833563D01*
X170206948Y-102833563D01*
X169706948Y-102833563D01*
X169650000Y-102857151D01*
X169593052Y-102833563D01*
X169506948Y-102833563D01*
X169006948Y-102833563D01*
X168950000Y-102857151D01*
X168893052Y-102833563D01*
X168806948Y-102833563D01*
X168416209Y-102833563D01*
X169224886Y-102024886D01*
X169293828Y-101921708D01*
X169293828Y-101921707D01*
X169318037Y-101800000D01*
X169318037Y-97583725D01*
X169373902Y-97560642D01*
X169559989Y-97374880D01*
X169660822Y-97132045D01*
X169661052Y-96869108D01*
X169560642Y-96626098D01*
X169374880Y-96440011D01*
X169132045Y-96339178D01*
X168869108Y-96338948D01*
X168812224Y-96362452D01*
X168267809Y-95818037D01*
X173483415Y-95818037D01*
X173625120Y-95959989D01*
X173867955Y-96060822D01*
X174130892Y-96061052D01*
X174373902Y-95960642D01*
X174559989Y-95774880D01*
X174660822Y-95532045D01*
X174661052Y-95269108D01*
X174560642Y-95026098D01*
X174374880Y-94840011D01*
X174132045Y-94739178D01*
X173869108Y-94738948D01*
X173626098Y-94839358D01*
X173440011Y-95025120D01*
X173374884Y-95181963D01*
X167500000Y-95181963D01*
X167471000Y-95181963D01*
X167471000Y-91653634D01*
X167471000Y-91555250D01*
X167471000Y-91044750D01*
X167471000Y-90953634D01*
X167471000Y-90946366D01*
X167471000Y-90855250D01*
X167471000Y-90344750D01*
X167471000Y-90246366D01*
X167391682Y-90054877D01*
X167245122Y-89908317D01*
X167053633Y-89829000D01*
X166771250Y-89829000D01*
X166641000Y-89959250D01*
X166641000Y-90475000D01*
X167340750Y-90475000D01*
X167471000Y-90344750D01*
X167471000Y-90855250D01*
X167406570Y-90790820D01*
X167391682Y-90754877D01*
X167245122Y-90608317D01*
X167053633Y-90529000D01*
X166771250Y-90529000D01*
X166641000Y-90659250D01*
X166641000Y-90725000D01*
X166641000Y-91175000D01*
X166641000Y-91240750D01*
X166771250Y-91371000D01*
X167053633Y-91371000D01*
X167245122Y-91291683D01*
X167391682Y-91145123D01*
X167406570Y-91109179D01*
X167471000Y-91044750D01*
X167471000Y-91555250D01*
X167340750Y-91425000D01*
X166641000Y-91425000D01*
X166641000Y-91940750D01*
X166771250Y-92071000D01*
X167053633Y-92071000D01*
X167245122Y-91991683D01*
X167391682Y-91845123D01*
X167471000Y-91653634D01*
X167471000Y-95181963D01*
X167156087Y-95181963D01*
X167133486Y-95127398D01*
X167072602Y-95066514D01*
X166993052Y-95033563D01*
X166906948Y-95033563D01*
X166159000Y-95033563D01*
X166159000Y-91940750D01*
X166159000Y-91425000D01*
X166159000Y-91240750D01*
X166159000Y-91175000D01*
X166159000Y-90725000D01*
X166159000Y-90659250D01*
X166159000Y-90475000D01*
X166159000Y-89959250D01*
X166028750Y-89829000D01*
X165746367Y-89829000D01*
X165554878Y-89908317D01*
X165408318Y-90054877D01*
X165329000Y-90246366D01*
X165329000Y-90344750D01*
X165459250Y-90475000D01*
X166159000Y-90475000D01*
X166159000Y-90659250D01*
X166028750Y-90529000D01*
X165746367Y-90529000D01*
X165554878Y-90608317D01*
X165408318Y-90754877D01*
X165393429Y-90790820D01*
X165329000Y-90855250D01*
X165329000Y-90946366D01*
X165329000Y-90953634D01*
X165329000Y-91044750D01*
X165393429Y-91109179D01*
X165408318Y-91145123D01*
X165554878Y-91291683D01*
X165746367Y-91371000D01*
X166028750Y-91371000D01*
X166159000Y-91240750D01*
X166159000Y-91425000D01*
X165459250Y-91425000D01*
X165329000Y-91555250D01*
X165329000Y-91653634D01*
X165408318Y-91845123D01*
X165554878Y-91991683D01*
X165746367Y-92071000D01*
X166028750Y-92071000D01*
X166159000Y-91940750D01*
X166159000Y-95033563D01*
X165806948Y-95033563D01*
X165727398Y-95066514D01*
X165666514Y-95127398D01*
X165633563Y-95206948D01*
X165633563Y-95293052D01*
X165633563Y-95793052D01*
X165657151Y-95850000D01*
X165633563Y-95906948D01*
X165633563Y-95993052D01*
X165633563Y-96493052D01*
X165657151Y-96550000D01*
X165633563Y-96606948D01*
X165633563Y-96693052D01*
X165633563Y-97193052D01*
X165657151Y-97250000D01*
X165633563Y-97306948D01*
X165633563Y-97393052D01*
X165633563Y-97893052D01*
X165657151Y-97950000D01*
X165633563Y-98006948D01*
X165633563Y-98093052D01*
X165633563Y-98593052D01*
X165657151Y-98650000D01*
X165633563Y-98706948D01*
X165633563Y-98793052D01*
X165633563Y-99293052D01*
X165657151Y-99350000D01*
X165643912Y-99381963D01*
X165031735Y-99381963D01*
X164518037Y-98868265D01*
X164518037Y-98316437D01*
X165043052Y-98316437D01*
X165122602Y-98283486D01*
X165183486Y-98222602D01*
X165216437Y-98143052D01*
X165216437Y-98056948D01*
X165216437Y-96056948D01*
X165183486Y-95977398D01*
X165122602Y-95916514D01*
X165043052Y-95883563D01*
X164956948Y-95883563D01*
X164518037Y-95883563D01*
X164518037Y-95566437D01*
X164618052Y-95566437D01*
X164697602Y-95533486D01*
X164758486Y-95472602D01*
X164791437Y-95393052D01*
X164791437Y-95306948D01*
X164791437Y-94506948D01*
X164758486Y-94427398D01*
X164697602Y-94366514D01*
X164693533Y-94364828D01*
X164870123Y-94291682D01*
X165016683Y-94145122D01*
X165096000Y-93953633D01*
X165096000Y-93780250D01*
X165096000Y-93119750D01*
X165096000Y-92946367D01*
X165016683Y-92754878D01*
X164870123Y-92608318D01*
X164678634Y-92529000D01*
X164517750Y-92529000D01*
X164387500Y-92659250D01*
X164387500Y-93250000D01*
X164965750Y-93250000D01*
X165096000Y-93119750D01*
X165096000Y-93780250D01*
X164965750Y-93650000D01*
X164387500Y-93650000D01*
X164387500Y-93711000D01*
X164012500Y-93711000D01*
X164012500Y-93650000D01*
X164012500Y-93250000D01*
X164012500Y-92659250D01*
X163882250Y-92529000D01*
X163721366Y-92529000D01*
X163529877Y-92608318D01*
X163383317Y-92754878D01*
X163304000Y-92946367D01*
X163304000Y-93119750D01*
X163434250Y-93250000D01*
X164012500Y-93250000D01*
X164012500Y-93650000D01*
X163434250Y-93650000D01*
X163304000Y-93780250D01*
X163304000Y-93953633D01*
X163383317Y-94145122D01*
X163529877Y-94291682D01*
X163706466Y-94364828D01*
X163702398Y-94366514D01*
X163641514Y-94427398D01*
X163608563Y-94506948D01*
X163608563Y-94593052D01*
X163608563Y-95393052D01*
X163641514Y-95472602D01*
X163702398Y-95533486D01*
X163781948Y-95566437D01*
X163868052Y-95566437D01*
X163881963Y-95566437D01*
X163881963Y-95883563D01*
X163356948Y-95883563D01*
X163277398Y-95916514D01*
X163266437Y-95927475D01*
X163266437Y-89066437D01*
X167633563Y-89066437D01*
X167633563Y-91366437D01*
X175366437Y-91366437D01*
X175366437Y-91044014D01*
X175408318Y-91145123D01*
X175554878Y-91291683D01*
X175633563Y-91324275D01*
X175633563Y-91593052D01*
X175657151Y-91650000D01*
X175643912Y-91681963D01*
X175400000Y-91681963D01*
X175278293Y-91706172D01*
X175191776Y-91763980D01*
X175132045Y-91739178D01*
X174869108Y-91738948D01*
X174626098Y-91839358D01*
X174440011Y-92025120D01*
X174339178Y-92267955D01*
X174338948Y-92530892D01*
X174439358Y-92773902D01*
X174625120Y-92959989D01*
X174867955Y-93060822D01*
X175130892Y-93061052D01*
X175373902Y-92960642D01*
X175559989Y-92774880D01*
X175633563Y-92597692D01*
X175633563Y-92993052D01*
X175657151Y-93050000D01*
X175633563Y-93106948D01*
X175633563Y-93193052D01*
X175633563Y-93693052D01*
X175657151Y-93750000D01*
X175633563Y-93806948D01*
X175633563Y-93893052D01*
X175633563Y-94393052D01*
X175657151Y-94450000D01*
X175643912Y-94481963D01*
X175531735Y-94481963D01*
X175437641Y-94387869D01*
X175460822Y-94332045D01*
X175461052Y-94069108D01*
X175360642Y-93826098D01*
X175174880Y-93640011D01*
X174932045Y-93539178D01*
X174669108Y-93538948D01*
X174426098Y-93639358D01*
X174240011Y-93825120D01*
X174139178Y-94067955D01*
X174138948Y-94330892D01*
X174239358Y-94573902D01*
X174425120Y-94759989D01*
X174667955Y-94860822D01*
X174930892Y-94861052D01*
X174987775Y-94837547D01*
X175175114Y-95024886D01*
X175278292Y-95093828D01*
X175278293Y-95093828D01*
X175400000Y-95118037D01*
X175643912Y-95118037D01*
X175657151Y-95150000D01*
X175633563Y-95206948D01*
X175633563Y-95293052D01*
X175633563Y-95793052D01*
X175657151Y-95850000D01*
X175633563Y-95906948D01*
X175633563Y-95993052D01*
X175633563Y-96493052D01*
X175657151Y-96550000D01*
X175633563Y-96606948D01*
X175633563Y-96693052D01*
X175633563Y-97193052D01*
X175657151Y-97250000D01*
X175633563Y-97306948D01*
X175633563Y-97393052D01*
X175633563Y-97893052D01*
X175657151Y-97950000D01*
X175633563Y-98006948D01*
X175633563Y-98093052D01*
X175633563Y-98593052D01*
X175657151Y-98650000D01*
X175633563Y-98706948D01*
X175633563Y-98793052D01*
X175633563Y-99293052D01*
X175657151Y-99350000D01*
X175657151Y-99350000D01*
G37*
X175657151Y-99350000D02*
X175643912Y-99381963D01*
X174700000Y-99381963D01*
X174578292Y-99406172D01*
X174475114Y-99475114D01*
X173375114Y-100575114D01*
X173306172Y-100678292D01*
X173281963Y-100800000D01*
X173281963Y-101800000D01*
X173306172Y-101921708D01*
X173363980Y-102008223D01*
X173339178Y-102067955D01*
X173338948Y-102330892D01*
X173439358Y-102573902D01*
X173625120Y-102759989D01*
X173854563Y-102855261D01*
X173850000Y-102857151D01*
X173793052Y-102833563D01*
X173706948Y-102833563D01*
X173206948Y-102833563D01*
X173150000Y-102857151D01*
X173093052Y-102833563D01*
X173006948Y-102833563D01*
X172506948Y-102833563D01*
X172450000Y-102857151D01*
X172393052Y-102833563D01*
X172306948Y-102833563D01*
X171806948Y-102833563D01*
X171750000Y-102857151D01*
X171693052Y-102833563D01*
X171606948Y-102833563D01*
X171106948Y-102833563D01*
X171050000Y-102857151D01*
X170993052Y-102833563D01*
X170906948Y-102833563D01*
X170406948Y-102833563D01*
X170350000Y-102857151D01*
X170293052Y-102833563D01*
X170206948Y-102833563D01*
X169706948Y-102833563D01*
X169650000Y-102857151D01*
X169593052Y-102833563D01*
X169506948Y-102833563D01*
X169006948Y-102833563D01*
X168950000Y-102857151D01*
X168893052Y-102833563D01*
X168806948Y-102833563D01*
X168416209Y-102833563D01*
X169224886Y-102024886D01*
X169293828Y-101921708D01*
X169293828Y-101921707D01*
X169318037Y-101800000D01*
X169318037Y-97583725D01*
X169373902Y-97560642D01*
X169559989Y-97374880D01*
X169660822Y-97132045D01*
X169661052Y-96869108D01*
X169560642Y-96626098D01*
X169374880Y-96440011D01*
X169132045Y-96339178D01*
X168869108Y-96338948D01*
X168812224Y-96362452D01*
X168267809Y-95818037D01*
X173483415Y-95818037D01*
X173625120Y-95959989D01*
X173867955Y-96060822D01*
X174130892Y-96061052D01*
X174373902Y-95960642D01*
X174559989Y-95774880D01*
X174660822Y-95532045D01*
X174661052Y-95269108D01*
X174560642Y-95026098D01*
X174374880Y-94840011D01*
X174132045Y-94739178D01*
X173869108Y-94738948D01*
X173626098Y-94839358D01*
X173440011Y-95025120D01*
X173374884Y-95181963D01*
X167500000Y-95181963D01*
X167471000Y-95181963D01*
X167471000Y-91653634D01*
X167471000Y-91555250D01*
X167471000Y-91044750D01*
X167471000Y-90953634D01*
X167471000Y-90946366D01*
X167471000Y-90855250D01*
X167471000Y-90344750D01*
X167471000Y-90246366D01*
X167391682Y-90054877D01*
X167245122Y-89908317D01*
X167053633Y-89829000D01*
X166771250Y-89829000D01*
X166641000Y-89959250D01*
X166641000Y-90475000D01*
X167340750Y-90475000D01*
X167471000Y-90344750D01*
X167471000Y-90855250D01*
X167406570Y-90790820D01*
X167391682Y-90754877D01*
X167245122Y-90608317D01*
X167053633Y-90529000D01*
X166771250Y-90529000D01*
X166641000Y-90659250D01*
X166641000Y-90725000D01*
X166641000Y-91175000D01*
X166641000Y-91240750D01*
X166771250Y-91371000D01*
X167053633Y-91371000D01*
X167245122Y-91291683D01*
X167391682Y-91145123D01*
X167406570Y-91109179D01*
X167471000Y-91044750D01*
X167471000Y-91555250D01*
X167340750Y-91425000D01*
X166641000Y-91425000D01*
X166641000Y-91940750D01*
X166771250Y-92071000D01*
X167053633Y-92071000D01*
X167245122Y-91991683D01*
X167391682Y-91845123D01*
X167471000Y-91653634D01*
X167471000Y-95181963D01*
X167156087Y-95181963D01*
X167133486Y-95127398D01*
X167072602Y-95066514D01*
X166993052Y-95033563D01*
X166906948Y-95033563D01*
X166159000Y-95033563D01*
X166159000Y-91940750D01*
X166159000Y-91425000D01*
X166159000Y-91240750D01*
X166159000Y-91175000D01*
X166159000Y-90725000D01*
X166159000Y-90659250D01*
X166159000Y-90475000D01*
X166159000Y-89959250D01*
X166028750Y-89829000D01*
X165746367Y-89829000D01*
X165554878Y-89908317D01*
X165408318Y-90054877D01*
X165329000Y-90246366D01*
X165329000Y-90344750D01*
X165459250Y-90475000D01*
X166159000Y-90475000D01*
X166159000Y-90659250D01*
X166028750Y-90529000D01*
X165746367Y-90529000D01*
X165554878Y-90608317D01*
X165408318Y-90754877D01*
X165393429Y-90790820D01*
X165329000Y-90855250D01*
X165329000Y-90946366D01*
X165329000Y-90953634D01*
X165329000Y-91044750D01*
X165393429Y-91109179D01*
X165408318Y-91145123D01*
X165554878Y-91291683D01*
X165746367Y-91371000D01*
X166028750Y-91371000D01*
X166159000Y-91240750D01*
X166159000Y-91425000D01*
X165459250Y-91425000D01*
X165329000Y-91555250D01*
X165329000Y-91653634D01*
X165408318Y-91845123D01*
X165554878Y-91991683D01*
X165746367Y-92071000D01*
X166028750Y-92071000D01*
X166159000Y-91940750D01*
X166159000Y-95033563D01*
X165806948Y-95033563D01*
X165727398Y-95066514D01*
X165666514Y-95127398D01*
X165633563Y-95206948D01*
X165633563Y-95293052D01*
X165633563Y-95793052D01*
X165657151Y-95850000D01*
X165633563Y-95906948D01*
X165633563Y-95993052D01*
X165633563Y-96493052D01*
X165657151Y-96550000D01*
X165633563Y-96606948D01*
X165633563Y-96693052D01*
X165633563Y-97193052D01*
X165657151Y-97250000D01*
X165633563Y-97306948D01*
X165633563Y-97393052D01*
X165633563Y-97893052D01*
X165657151Y-97950000D01*
X165633563Y-98006948D01*
X165633563Y-98093052D01*
X165633563Y-98593052D01*
X165657151Y-98650000D01*
X165633563Y-98706948D01*
X165633563Y-98793052D01*
X165633563Y-99293052D01*
X165657151Y-99350000D01*
X165643912Y-99381963D01*
X165031735Y-99381963D01*
X164518037Y-98868265D01*
X164518037Y-98316437D01*
X165043052Y-98316437D01*
X165122602Y-98283486D01*
X165183486Y-98222602D01*
X165216437Y-98143052D01*
X165216437Y-98056948D01*
X165216437Y-96056948D01*
X165183486Y-95977398D01*
X165122602Y-95916514D01*
X165043052Y-95883563D01*
X164956948Y-95883563D01*
X164518037Y-95883563D01*
X164518037Y-95566437D01*
X164618052Y-95566437D01*
X164697602Y-95533486D01*
X164758486Y-95472602D01*
X164791437Y-95393052D01*
X164791437Y-95306948D01*
X164791437Y-94506948D01*
X164758486Y-94427398D01*
X164697602Y-94366514D01*
X164693533Y-94364828D01*
X164870123Y-94291682D01*
X165016683Y-94145122D01*
X165096000Y-93953633D01*
X165096000Y-93780250D01*
X165096000Y-93119750D01*
X165096000Y-92946367D01*
X165016683Y-92754878D01*
X164870123Y-92608318D01*
X164678634Y-92529000D01*
X164517750Y-92529000D01*
X164387500Y-92659250D01*
X164387500Y-93250000D01*
X164965750Y-93250000D01*
X165096000Y-93119750D01*
X165096000Y-93780250D01*
X164965750Y-93650000D01*
X164387500Y-93650000D01*
X164387500Y-93711000D01*
X164012500Y-93711000D01*
X164012500Y-93650000D01*
X164012500Y-93250000D01*
X164012500Y-92659250D01*
X163882250Y-92529000D01*
X163721366Y-92529000D01*
X163529877Y-92608318D01*
X163383317Y-92754878D01*
X163304000Y-92946367D01*
X163304000Y-93119750D01*
X163434250Y-93250000D01*
X164012500Y-93250000D01*
X164012500Y-93650000D01*
X163434250Y-93650000D01*
X163304000Y-93780250D01*
X163304000Y-93953633D01*
X163383317Y-94145122D01*
X163529877Y-94291682D01*
X163706466Y-94364828D01*
X163702398Y-94366514D01*
X163641514Y-94427398D01*
X163608563Y-94506948D01*
X163608563Y-94593052D01*
X163608563Y-95393052D01*
X163641514Y-95472602D01*
X163702398Y-95533486D01*
X163781948Y-95566437D01*
X163868052Y-95566437D01*
X163881963Y-95566437D01*
X163881963Y-95883563D01*
X163356948Y-95883563D01*
X163277398Y-95916514D01*
X163266437Y-95927475D01*
X163266437Y-89066437D01*
X167633563Y-89066437D01*
X167633563Y-91366437D01*
X175366437Y-91366437D01*
X175366437Y-91044014D01*
X175408318Y-91145123D01*
X175554878Y-91291683D01*
X175633563Y-91324275D01*
X175633563Y-91593052D01*
X175657151Y-91650000D01*
X175643912Y-91681963D01*
X175400000Y-91681963D01*
X175278293Y-91706172D01*
X175191776Y-91763980D01*
X175132045Y-91739178D01*
X174869108Y-91738948D01*
X174626098Y-91839358D01*
X174440011Y-92025120D01*
X174339178Y-92267955D01*
X174338948Y-92530892D01*
X174439358Y-92773902D01*
X174625120Y-92959989D01*
X174867955Y-93060822D01*
X175130892Y-93061052D01*
X175373902Y-92960642D01*
X175559989Y-92774880D01*
X175633563Y-92597692D01*
X175633563Y-92993052D01*
X175657151Y-93050000D01*
X175633563Y-93106948D01*
X175633563Y-93193052D01*
X175633563Y-93693052D01*
X175657151Y-93750000D01*
X175633563Y-93806948D01*
X175633563Y-93893052D01*
X175633563Y-94393052D01*
X175657151Y-94450000D01*
X175643912Y-94481963D01*
X175531735Y-94481963D01*
X175437641Y-94387869D01*
X175460822Y-94332045D01*
X175461052Y-94069108D01*
X175360642Y-93826098D01*
X175174880Y-93640011D01*
X174932045Y-93539178D01*
X174669108Y-93538948D01*
X174426098Y-93639358D01*
X174240011Y-93825120D01*
X174139178Y-94067955D01*
X174138948Y-94330892D01*
X174239358Y-94573902D01*
X174425120Y-94759989D01*
X174667955Y-94860822D01*
X174930892Y-94861052D01*
X174987775Y-94837547D01*
X175175114Y-95024886D01*
X175278292Y-95093828D01*
X175278293Y-95093828D01*
X175400000Y-95118037D01*
X175643912Y-95118037D01*
X175657151Y-95150000D01*
X175633563Y-95206948D01*
X175633563Y-95293052D01*
X175633563Y-95793052D01*
X175657151Y-95850000D01*
X175633563Y-95906948D01*
X175633563Y-95993052D01*
X175633563Y-96493052D01*
X175657151Y-96550000D01*
X175633563Y-96606948D01*
X175633563Y-96693052D01*
X175633563Y-97193052D01*
X175657151Y-97250000D01*
X175633563Y-97306948D01*
X175633563Y-97393052D01*
X175633563Y-97893052D01*
X175657151Y-97950000D01*
X175633563Y-98006948D01*
X175633563Y-98093052D01*
X175633563Y-98593052D01*
X175657151Y-98650000D01*
X175633563Y-98706948D01*
X175633563Y-98793052D01*
X175633563Y-99293052D01*
X175657151Y-99350000D01*
G36*
X176881963Y-107268265D02*
X176416665Y-107733563D01*
X176056948Y-107733563D01*
X175977398Y-107766514D01*
X175918037Y-107825875D01*
X175918037Y-107481735D01*
X176183335Y-107216437D01*
X176693052Y-107216437D01*
X176772602Y-107183486D01*
X176833486Y-107122602D01*
X176866437Y-107043052D01*
X176866437Y-106956948D01*
X176866437Y-106456948D01*
X176833486Y-106377398D01*
X176772602Y-106316514D01*
X176693052Y-106283563D01*
X176606948Y-106283563D01*
X176183335Y-106283563D01*
X176074886Y-106175114D01*
X175971708Y-106106172D01*
X175850000Y-106081963D01*
X175216637Y-106081963D01*
X175216637Y-105956898D01*
X175183686Y-105877348D01*
X175122802Y-105816464D01*
X175043252Y-105783513D01*
X174957148Y-105783513D01*
X173956388Y-105783513D01*
X173876838Y-105816464D01*
X173815954Y-105877348D01*
X173783003Y-105956898D01*
X173783003Y-106043002D01*
X173783003Y-106843102D01*
X173815954Y-106922652D01*
X173876838Y-106983536D01*
X173956388Y-107016487D01*
X174042492Y-107016487D01*
X175043252Y-107016487D01*
X175122802Y-106983536D01*
X175183686Y-106922652D01*
X175216637Y-106843102D01*
X175216637Y-106756998D01*
X175216637Y-106718037D01*
X175533563Y-106718037D01*
X175533563Y-106966665D01*
X175375114Y-107125114D01*
X175306172Y-107228292D01*
X175281963Y-107350000D01*
X175281963Y-107461445D01*
X175203633Y-107429000D01*
X175105250Y-107429000D01*
X174975000Y-107559250D01*
X174975000Y-108175000D01*
X175100000Y-108175000D01*
X175100000Y-108625000D01*
X174975000Y-108625000D01*
X174975000Y-109240750D01*
X175105250Y-109371000D01*
X175203633Y-109371000D01*
X175281963Y-109338554D01*
X175281963Y-109600000D01*
X175281963Y-109668265D01*
X174725000Y-110225228D01*
X174725000Y-109240750D01*
X174725000Y-108625000D01*
X174725000Y-108175000D01*
X174725000Y-107559250D01*
X174594750Y-107429000D01*
X174496367Y-107429000D01*
X174304878Y-107508317D01*
X174158318Y-107654877D01*
X174079000Y-107846366D01*
X174079000Y-108044750D01*
X174209250Y-108175000D01*
X174725000Y-108175000D01*
X174725000Y-108625000D01*
X174211805Y-108625000D01*
X174095122Y-108508317D01*
X173903633Y-108429000D01*
X173805250Y-108429000D01*
X173675000Y-108559250D01*
X173675000Y-109175000D01*
X174188195Y-109175000D01*
X174304878Y-109291683D01*
X174496367Y-109371000D01*
X174594750Y-109371000D01*
X174725000Y-109240750D01*
X174725000Y-110225228D01*
X174321000Y-110629228D01*
X174321000Y-109953634D01*
X174321000Y-109755250D01*
X174190750Y-109625000D01*
X173675000Y-109625000D01*
X173675000Y-110240750D01*
X173805250Y-110371000D01*
X173903633Y-110371000D01*
X174095122Y-110291683D01*
X174241682Y-110145123D01*
X174321000Y-109953634D01*
X174321000Y-110629228D01*
X173661052Y-111289176D01*
X173661052Y-110669108D01*
X173560642Y-110426098D01*
X173400287Y-110265462D01*
X173425000Y-110240750D01*
X173425000Y-109625000D01*
X173425000Y-109175000D01*
X173425000Y-108559250D01*
X173321560Y-108455810D01*
X173321560Y-107856183D01*
X173321560Y-107682775D01*
X173321560Y-107022225D01*
X173321560Y-106848817D01*
X173242243Y-106657328D01*
X173095683Y-106510768D01*
X172904194Y-106431450D01*
X172696927Y-106431450D01*
X172671430Y-106431450D01*
X172541180Y-106561700D01*
X172541180Y-107152475D01*
X173191310Y-107152475D01*
X173321560Y-107022225D01*
X173321560Y-107682775D01*
X173191310Y-107552525D01*
X172541180Y-107552525D01*
X172541180Y-108143300D01*
X172671430Y-108273550D01*
X172696927Y-108273550D01*
X172904194Y-108273550D01*
X173095683Y-108194232D01*
X173242243Y-108047672D01*
X173321560Y-107856183D01*
X173321560Y-108455810D01*
X173294750Y-108429000D01*
X173196367Y-108429000D01*
X173004878Y-108508317D01*
X172858318Y-108654877D01*
X172779000Y-108846366D01*
X172779000Y-109044750D01*
X172909250Y-109175000D01*
X173425000Y-109175000D01*
X173425000Y-109625000D01*
X172909250Y-109625000D01*
X172779000Y-109755250D01*
X172779000Y-109953634D01*
X172857710Y-110143657D01*
X172626098Y-110239358D01*
X172516437Y-110348827D01*
X172516437Y-109893052D01*
X172516437Y-109806948D01*
X172516437Y-108906948D01*
X172483486Y-108827398D01*
X172422602Y-108766514D01*
X172343052Y-108733563D01*
X172256948Y-108733563D01*
X172059180Y-108733563D01*
X172059180Y-108143300D01*
X172059180Y-107552525D01*
X171409050Y-107552525D01*
X171278800Y-107682775D01*
X171278800Y-107856183D01*
X171358117Y-108047672D01*
X171504677Y-108194232D01*
X171696166Y-108273550D01*
X171903433Y-108273550D01*
X171928930Y-108273550D01*
X172059180Y-108143300D01*
X172059180Y-108733563D01*
X171756948Y-108733563D01*
X171677398Y-108766514D01*
X171616514Y-108827398D01*
X171583563Y-108906948D01*
X171583563Y-108993052D01*
X171583563Y-109081963D01*
X171016437Y-109081963D01*
X171016437Y-108906948D01*
X170983486Y-108827398D01*
X170922602Y-108766514D01*
X170843052Y-108733563D01*
X170756948Y-108733563D01*
X170256948Y-108733563D01*
X170177398Y-108766514D01*
X170116514Y-108827398D01*
X170083563Y-108906948D01*
X170083563Y-108993052D01*
X170083563Y-109893052D01*
X170116514Y-109972602D01*
X170177398Y-110033486D01*
X170256948Y-110066437D01*
X170343052Y-110066437D01*
X170843052Y-110066437D01*
X170922602Y-110033486D01*
X170983486Y-109972602D01*
X171016437Y-109893052D01*
X171016437Y-109806948D01*
X171016437Y-109718037D01*
X171583563Y-109718037D01*
X171583563Y-109893052D01*
X171616514Y-109972602D01*
X171677398Y-110033486D01*
X171756948Y-110066437D01*
X171843052Y-110066437D01*
X172343052Y-110066437D01*
X172422602Y-110033486D01*
X172483486Y-109972602D01*
X172516437Y-109893052D01*
X172516437Y-110348827D01*
X172440011Y-110425120D01*
X172416407Y-110481963D01*
X170581735Y-110481963D01*
X169516437Y-109416665D01*
X169516437Y-108906948D01*
X169483486Y-108827398D01*
X169422602Y-108766514D01*
X169343052Y-108733563D01*
X169256948Y-108733563D01*
X168756948Y-108733563D01*
X168721000Y-108748453D01*
X168721000Y-108044750D01*
X168721000Y-107846366D01*
X168641682Y-107654877D01*
X168495122Y-107508317D01*
X168303633Y-107429000D01*
X168205250Y-107429000D01*
X168075000Y-107559250D01*
X168075000Y-108175000D01*
X168590750Y-108175000D01*
X168721000Y-108044750D01*
X168721000Y-108748453D01*
X168716194Y-108750444D01*
X168590750Y-108625000D01*
X168075000Y-108625000D01*
X168075000Y-109240750D01*
X168205250Y-109371000D01*
X168303633Y-109371000D01*
X168495122Y-109291683D01*
X168583563Y-109203242D01*
X168583563Y-109893052D01*
X168616514Y-109972602D01*
X168677398Y-110033486D01*
X168756948Y-110066437D01*
X168843052Y-110066437D01*
X169266665Y-110066437D01*
X170225114Y-111024886D01*
X170328292Y-111093828D01*
X170328293Y-111093828D01*
X170450000Y-111118037D01*
X172416274Y-111118037D01*
X172439358Y-111173902D01*
X172625120Y-111359989D01*
X172867955Y-111460822D01*
X173130892Y-111461052D01*
X173373902Y-111360642D01*
X173559989Y-111174880D01*
X173660822Y-110932045D01*
X173661052Y-110669108D01*
X173661052Y-111289176D01*
X172868265Y-112081963D01*
X170600000Y-112081963D01*
X170478293Y-112106172D01*
X170375114Y-112175114D01*
X169175114Y-113375114D01*
X169106172Y-113478292D01*
X169105123Y-113483563D01*
X167856948Y-113483563D01*
X167777398Y-113516514D01*
X167716514Y-113577398D01*
X167683563Y-113656948D01*
X167683563Y-113743052D01*
X167683563Y-118743052D01*
X167716514Y-118822602D01*
X167777398Y-118883486D01*
X167856948Y-118916437D01*
X167943052Y-118916437D01*
X170943052Y-118916437D01*
X171022602Y-118883486D01*
X171083486Y-118822602D01*
X171116437Y-118743052D01*
X171116437Y-118656948D01*
X171116437Y-116137069D01*
X171175114Y-116224886D01*
X171278293Y-116293828D01*
X171379000Y-116313859D01*
X171379000Y-116441002D01*
X171509248Y-116441002D01*
X171379000Y-116571250D01*
X171379000Y-118596367D01*
X171379000Y-118803634D01*
X171432818Y-118933563D01*
X163266437Y-118933563D01*
X163266437Y-111528242D01*
X163329877Y-111591682D01*
X163521366Y-111671000D01*
X163682250Y-111671000D01*
X163812500Y-111540750D01*
X163812500Y-110950000D01*
X163739000Y-110950000D01*
X163739000Y-110550000D01*
X163812500Y-110550000D01*
X163812500Y-110489000D01*
X164187500Y-110489000D01*
X164187500Y-110550000D01*
X164765750Y-110550000D01*
X164896000Y-110419750D01*
X164896000Y-110246367D01*
X164816683Y-110054878D01*
X164670123Y-109908318D01*
X164493533Y-109835171D01*
X164497602Y-109833486D01*
X164558486Y-109772602D01*
X164591437Y-109693052D01*
X164591437Y-109606948D01*
X164591437Y-108806948D01*
X164558486Y-108727398D01*
X164497602Y-108666514D01*
X164418052Y-108633563D01*
X164331948Y-108633563D01*
X164318037Y-108633563D01*
X164318037Y-107331735D01*
X165281963Y-106367809D01*
X165281963Y-107400000D01*
X165306172Y-107521708D01*
X165375114Y-107624886D01*
X165983563Y-108233335D01*
X165983563Y-108893052D01*
X166016514Y-108972602D01*
X166077398Y-109033486D01*
X166156948Y-109066437D01*
X166243052Y-109066437D01*
X166743052Y-109066437D01*
X166822602Y-109033486D01*
X166881963Y-108974125D01*
X166881963Y-109400000D01*
X166881963Y-110000000D01*
X166906172Y-110121708D01*
X166975114Y-110224886D01*
X167081963Y-110331735D01*
X167081963Y-111068265D01*
X165175114Y-112975114D01*
X165106172Y-113078292D01*
X165081963Y-113200000D01*
X165081963Y-113483563D01*
X164896000Y-113483563D01*
X164896000Y-111253633D01*
X164896000Y-111080250D01*
X164765750Y-110950000D01*
X164187500Y-110950000D01*
X164187500Y-111540750D01*
X164317750Y-111671000D01*
X164478634Y-111671000D01*
X164670123Y-111591682D01*
X164816683Y-111445122D01*
X164896000Y-111253633D01*
X164896000Y-113483563D01*
X163856948Y-113483563D01*
X163777398Y-113516514D01*
X163716514Y-113577398D01*
X163683563Y-113656948D01*
X163683563Y-113743052D01*
X163683563Y-118743052D01*
X163716514Y-118822602D01*
X163777398Y-118883486D01*
X163856948Y-118916437D01*
X163943052Y-118916437D01*
X166943052Y-118916437D01*
X167022602Y-118883486D01*
X167083486Y-118822602D01*
X167116437Y-118743052D01*
X167116437Y-118656948D01*
X167116437Y-113656948D01*
X167083486Y-113577398D01*
X167022602Y-113516514D01*
X166943052Y-113483563D01*
X166856948Y-113483563D01*
X165718037Y-113483563D01*
X165718037Y-113331735D01*
X167624886Y-111424886D01*
X167693828Y-111321708D01*
X167693828Y-111321707D01*
X167718037Y-111200000D01*
X167718037Y-110200000D01*
X167693828Y-110078293D01*
X167693828Y-110078292D01*
X167624886Y-109975114D01*
X167518037Y-109868265D01*
X167518037Y-109400000D01*
X167518037Y-109338554D01*
X167596367Y-109371000D01*
X167694750Y-109371000D01*
X167825000Y-109240750D01*
X167825000Y-108625000D01*
X167700000Y-108625000D01*
X167700000Y-108175000D01*
X167825000Y-108175000D01*
X167825000Y-107559250D01*
X167694750Y-107429000D01*
X167596367Y-107429000D01*
X167518037Y-107461445D01*
X167518037Y-107350000D01*
X167493828Y-107228293D01*
X167493828Y-107228292D01*
X167424886Y-107125114D01*
X167367809Y-107068037D01*
X167950180Y-107068037D01*
X168071887Y-107043828D01*
X168071888Y-107043828D01*
X168112805Y-107016487D01*
X168112806Y-107016487D01*
X168843612Y-107016487D01*
X168923162Y-106983536D01*
X168984046Y-106922652D01*
X169016997Y-106843102D01*
X169016997Y-106756998D01*
X169016997Y-105956898D01*
X168984046Y-105877348D01*
X168923162Y-105816464D01*
X168843612Y-105783513D01*
X168757508Y-105783513D01*
X167756748Y-105783513D01*
X167677198Y-105816464D01*
X167616314Y-105877348D01*
X167583363Y-105956898D01*
X167583363Y-106043002D01*
X167583363Y-106431963D01*
X167256087Y-106431963D01*
X167233486Y-106377398D01*
X167172602Y-106316514D01*
X167093052Y-106283563D01*
X167006948Y-106283563D01*
X166106948Y-106283563D01*
X166027398Y-106316514D01*
X165966514Y-106377398D01*
X165933563Y-106456948D01*
X165933563Y-106543052D01*
X165933563Y-107043052D01*
X165966514Y-107122602D01*
X166027398Y-107183486D01*
X166106948Y-107216437D01*
X166193052Y-107216437D01*
X166616665Y-107216437D01*
X166881963Y-107481735D01*
X166881963Y-107825875D01*
X166822602Y-107766514D01*
X166743052Y-107733563D01*
X166656948Y-107733563D01*
X166383335Y-107733563D01*
X165918037Y-107268265D01*
X165918037Y-106381735D01*
X166583335Y-105716437D01*
X167093052Y-105716437D01*
X167172602Y-105683486D01*
X167233486Y-105622602D01*
X167256087Y-105568037D01*
X169150000Y-105568037D01*
X169271707Y-105543828D01*
X169271708Y-105543828D01*
X169374886Y-105474886D01*
X169605493Y-105244278D01*
X169608690Y-105247475D01*
X170258820Y-105247475D01*
X170258820Y-104656700D01*
X170225735Y-104623615D01*
X170293828Y-104521708D01*
X170293828Y-104521707D01*
X170318037Y-104400000D01*
X170318037Y-104356087D01*
X170350000Y-104342848D01*
X170406948Y-104366437D01*
X170493052Y-104366437D01*
X170993052Y-104366437D01*
X171050000Y-104342848D01*
X171081963Y-104356087D01*
X171081963Y-104526450D01*
X170896567Y-104526450D01*
X170871070Y-104526450D01*
X170740820Y-104656700D01*
X170740820Y-105247475D01*
X170760820Y-105247475D01*
X170760820Y-105647525D01*
X170740820Y-105647525D01*
X170740820Y-106238300D01*
X170871070Y-106368550D01*
X170896567Y-106368550D01*
X170981678Y-106368550D01*
X170614215Y-106736013D01*
X170258820Y-106736013D01*
X170258820Y-106238300D01*
X170258820Y-105647525D01*
X169608690Y-105647525D01*
X169478440Y-105777775D01*
X169478440Y-105951183D01*
X169557757Y-106142672D01*
X169704317Y-106289232D01*
X169895806Y-106368550D01*
X170103073Y-106368550D01*
X170128570Y-106368550D01*
X170258820Y-106238300D01*
X170258820Y-106736013D01*
X169956388Y-106736013D01*
X169876838Y-106768964D01*
X169815954Y-106829848D01*
X169783003Y-106909398D01*
X169783003Y-106995502D01*
X169783003Y-107795602D01*
X169815954Y-107875152D01*
X169876838Y-107936036D01*
X169956388Y-107968987D01*
X170042492Y-107968987D01*
X171043252Y-107968987D01*
X171122802Y-107936036D01*
X171183686Y-107875152D01*
X171216637Y-107795602D01*
X171216637Y-107709498D01*
X171216637Y-107033135D01*
X171278800Y-106970972D01*
X171278800Y-107022225D01*
X171409050Y-107152475D01*
X172059180Y-107152475D01*
X172059180Y-106561700D01*
X171928930Y-106431450D01*
X171903433Y-106431450D01*
X171711781Y-106431450D01*
X171718037Y-106400000D01*
X171718037Y-106047952D01*
X171756748Y-106063987D01*
X171842852Y-106063987D01*
X172843612Y-106063987D01*
X172923162Y-106031036D01*
X172984046Y-105970152D01*
X173016997Y-105890602D01*
X173016997Y-105804498D01*
X173016997Y-105004398D01*
X172984046Y-104924848D01*
X172923162Y-104863964D01*
X172843612Y-104831013D01*
X172757508Y-104831013D01*
X172618217Y-104831013D01*
X172618217Y-104700180D01*
X172594008Y-104578473D01*
X172594007Y-104578472D01*
X172525066Y-104475294D01*
X172418037Y-104368265D01*
X172418037Y-104356087D01*
X172450000Y-104342848D01*
X172506948Y-104366437D01*
X172593052Y-104366437D01*
X173093052Y-104366437D01*
X173150000Y-104342848D01*
X173206948Y-104366437D01*
X173293052Y-104366437D01*
X173793052Y-104366437D01*
X173850000Y-104342848D01*
X173906948Y-104366437D01*
X173993052Y-104366437D01*
X174493052Y-104366437D01*
X174550000Y-104342848D01*
X174581963Y-104356087D01*
X174581963Y-104500000D01*
X174606172Y-104621708D01*
X174675114Y-104724886D01*
X175425114Y-105474886D01*
X175528292Y-105543827D01*
X175528293Y-105543828D01*
X175534386Y-105545039D01*
X175534386Y-105545040D01*
X175566514Y-105622602D01*
X175627398Y-105683486D01*
X175706948Y-105716437D01*
X175793052Y-105716437D01*
X176216665Y-105716437D01*
X176881963Y-106381735D01*
X176881963Y-107268265D01*
X176881963Y-107268265D01*
G37*
X176881963Y-107268265D02*
X176416665Y-107733563D01*
X176056948Y-107733563D01*
X175977398Y-107766514D01*
X175918037Y-107825875D01*
X175918037Y-107481735D01*
X176183335Y-107216437D01*
X176693052Y-107216437D01*
X176772602Y-107183486D01*
X176833486Y-107122602D01*
X176866437Y-107043052D01*
X176866437Y-106956948D01*
X176866437Y-106456948D01*
X176833486Y-106377398D01*
X176772602Y-106316514D01*
X176693052Y-106283563D01*
X176606948Y-106283563D01*
X176183335Y-106283563D01*
X176074886Y-106175114D01*
X175971708Y-106106172D01*
X175850000Y-106081963D01*
X175216637Y-106081963D01*
X175216637Y-105956898D01*
X175183686Y-105877348D01*
X175122802Y-105816464D01*
X175043252Y-105783513D01*
X174957148Y-105783513D01*
X173956388Y-105783513D01*
X173876838Y-105816464D01*
X173815954Y-105877348D01*
X173783003Y-105956898D01*
X173783003Y-106043002D01*
X173783003Y-106843102D01*
X173815954Y-106922652D01*
X173876838Y-106983536D01*
X173956388Y-107016487D01*
X174042492Y-107016487D01*
X175043252Y-107016487D01*
X175122802Y-106983536D01*
X175183686Y-106922652D01*
X175216637Y-106843102D01*
X175216637Y-106756998D01*
X175216637Y-106718037D01*
X175533563Y-106718037D01*
X175533563Y-106966665D01*
X175375114Y-107125114D01*
X175306172Y-107228292D01*
X175281963Y-107350000D01*
X175281963Y-107461445D01*
X175203633Y-107429000D01*
X175105250Y-107429000D01*
X174975000Y-107559250D01*
X174975000Y-108175000D01*
X175100000Y-108175000D01*
X175100000Y-108625000D01*
X174975000Y-108625000D01*
X174975000Y-109240750D01*
X175105250Y-109371000D01*
X175203633Y-109371000D01*
X175281963Y-109338554D01*
X175281963Y-109600000D01*
X175281963Y-109668265D01*
X174725000Y-110225228D01*
X174725000Y-109240750D01*
X174725000Y-108625000D01*
X174725000Y-108175000D01*
X174725000Y-107559250D01*
X174594750Y-107429000D01*
X174496367Y-107429000D01*
X174304878Y-107508317D01*
X174158318Y-107654877D01*
X174079000Y-107846366D01*
X174079000Y-108044750D01*
X174209250Y-108175000D01*
X174725000Y-108175000D01*
X174725000Y-108625000D01*
X174211805Y-108625000D01*
X174095122Y-108508317D01*
X173903633Y-108429000D01*
X173805250Y-108429000D01*
X173675000Y-108559250D01*
X173675000Y-109175000D01*
X174188195Y-109175000D01*
X174304878Y-109291683D01*
X174496367Y-109371000D01*
X174594750Y-109371000D01*
X174725000Y-109240750D01*
X174725000Y-110225228D01*
X174321000Y-110629228D01*
X174321000Y-109953634D01*
X174321000Y-109755250D01*
X174190750Y-109625000D01*
X173675000Y-109625000D01*
X173675000Y-110240750D01*
X173805250Y-110371000D01*
X173903633Y-110371000D01*
X174095122Y-110291683D01*
X174241682Y-110145123D01*
X174321000Y-109953634D01*
X174321000Y-110629228D01*
X173661052Y-111289176D01*
X173661052Y-110669108D01*
X173560642Y-110426098D01*
X173400287Y-110265462D01*
X173425000Y-110240750D01*
X173425000Y-109625000D01*
X173425000Y-109175000D01*
X173425000Y-108559250D01*
X173321560Y-108455810D01*
X173321560Y-107856183D01*
X173321560Y-107682775D01*
X173321560Y-107022225D01*
X173321560Y-106848817D01*
X173242243Y-106657328D01*
X173095683Y-106510768D01*
X172904194Y-106431450D01*
X172696927Y-106431450D01*
X172671430Y-106431450D01*
X172541180Y-106561700D01*
X172541180Y-107152475D01*
X173191310Y-107152475D01*
X173321560Y-107022225D01*
X173321560Y-107682775D01*
X173191310Y-107552525D01*
X172541180Y-107552525D01*
X172541180Y-108143300D01*
X172671430Y-108273550D01*
X172696927Y-108273550D01*
X172904194Y-108273550D01*
X173095683Y-108194232D01*
X173242243Y-108047672D01*
X173321560Y-107856183D01*
X173321560Y-108455810D01*
X173294750Y-108429000D01*
X173196367Y-108429000D01*
X173004878Y-108508317D01*
X172858318Y-108654877D01*
X172779000Y-108846366D01*
X172779000Y-109044750D01*
X172909250Y-109175000D01*
X173425000Y-109175000D01*
X173425000Y-109625000D01*
X172909250Y-109625000D01*
X172779000Y-109755250D01*
X172779000Y-109953634D01*
X172857710Y-110143657D01*
X172626098Y-110239358D01*
X172516437Y-110348827D01*
X172516437Y-109893052D01*
X172516437Y-109806948D01*
X172516437Y-108906948D01*
X172483486Y-108827398D01*
X172422602Y-108766514D01*
X172343052Y-108733563D01*
X172256948Y-108733563D01*
X172059180Y-108733563D01*
X172059180Y-108143300D01*
X172059180Y-107552525D01*
X171409050Y-107552525D01*
X171278800Y-107682775D01*
X171278800Y-107856183D01*
X171358117Y-108047672D01*
X171504677Y-108194232D01*
X171696166Y-108273550D01*
X171903433Y-108273550D01*
X171928930Y-108273550D01*
X172059180Y-108143300D01*
X172059180Y-108733563D01*
X171756948Y-108733563D01*
X171677398Y-108766514D01*
X171616514Y-108827398D01*
X171583563Y-108906948D01*
X171583563Y-108993052D01*
X171583563Y-109081963D01*
X171016437Y-109081963D01*
X171016437Y-108906948D01*
X170983486Y-108827398D01*
X170922602Y-108766514D01*
X170843052Y-108733563D01*
X170756948Y-108733563D01*
X170256948Y-108733563D01*
X170177398Y-108766514D01*
X170116514Y-108827398D01*
X170083563Y-108906948D01*
X170083563Y-108993052D01*
X170083563Y-109893052D01*
X170116514Y-109972602D01*
X170177398Y-110033486D01*
X170256948Y-110066437D01*
X170343052Y-110066437D01*
X170843052Y-110066437D01*
X170922602Y-110033486D01*
X170983486Y-109972602D01*
X171016437Y-109893052D01*
X171016437Y-109806948D01*
X171016437Y-109718037D01*
X171583563Y-109718037D01*
X171583563Y-109893052D01*
X171616514Y-109972602D01*
X171677398Y-110033486D01*
X171756948Y-110066437D01*
X171843052Y-110066437D01*
X172343052Y-110066437D01*
X172422602Y-110033486D01*
X172483486Y-109972602D01*
X172516437Y-109893052D01*
X172516437Y-110348827D01*
X172440011Y-110425120D01*
X172416407Y-110481963D01*
X170581735Y-110481963D01*
X169516437Y-109416665D01*
X169516437Y-108906948D01*
X169483486Y-108827398D01*
X169422602Y-108766514D01*
X169343052Y-108733563D01*
X169256948Y-108733563D01*
X168756948Y-108733563D01*
X168721000Y-108748453D01*
X168721000Y-108044750D01*
X168721000Y-107846366D01*
X168641682Y-107654877D01*
X168495122Y-107508317D01*
X168303633Y-107429000D01*
X168205250Y-107429000D01*
X168075000Y-107559250D01*
X168075000Y-108175000D01*
X168590750Y-108175000D01*
X168721000Y-108044750D01*
X168721000Y-108748453D01*
X168716194Y-108750444D01*
X168590750Y-108625000D01*
X168075000Y-108625000D01*
X168075000Y-109240750D01*
X168205250Y-109371000D01*
X168303633Y-109371000D01*
X168495122Y-109291683D01*
X168583563Y-109203242D01*
X168583563Y-109893052D01*
X168616514Y-109972602D01*
X168677398Y-110033486D01*
X168756948Y-110066437D01*
X168843052Y-110066437D01*
X169266665Y-110066437D01*
X170225114Y-111024886D01*
X170328292Y-111093828D01*
X170328293Y-111093828D01*
X170450000Y-111118037D01*
X172416274Y-111118037D01*
X172439358Y-111173902D01*
X172625120Y-111359989D01*
X172867955Y-111460822D01*
X173130892Y-111461052D01*
X173373902Y-111360642D01*
X173559989Y-111174880D01*
X173660822Y-110932045D01*
X173661052Y-110669108D01*
X173661052Y-111289176D01*
X172868265Y-112081963D01*
X170600000Y-112081963D01*
X170478293Y-112106172D01*
X170375114Y-112175114D01*
X169175114Y-113375114D01*
X169106172Y-113478292D01*
X169105123Y-113483563D01*
X167856948Y-113483563D01*
X167777398Y-113516514D01*
X167716514Y-113577398D01*
X167683563Y-113656948D01*
X167683563Y-113743052D01*
X167683563Y-118743052D01*
X167716514Y-118822602D01*
X167777398Y-118883486D01*
X167856948Y-118916437D01*
X167943052Y-118916437D01*
X170943052Y-118916437D01*
X171022602Y-118883486D01*
X171083486Y-118822602D01*
X171116437Y-118743052D01*
X171116437Y-118656948D01*
X171116437Y-116137069D01*
X171175114Y-116224886D01*
X171278293Y-116293828D01*
X171379000Y-116313859D01*
X171379000Y-116441002D01*
X171509248Y-116441002D01*
X171379000Y-116571250D01*
X171379000Y-118596367D01*
X171379000Y-118803634D01*
X171432818Y-118933563D01*
X163266437Y-118933563D01*
X163266437Y-111528242D01*
X163329877Y-111591682D01*
X163521366Y-111671000D01*
X163682250Y-111671000D01*
X163812500Y-111540750D01*
X163812500Y-110950000D01*
X163739000Y-110950000D01*
X163739000Y-110550000D01*
X163812500Y-110550000D01*
X163812500Y-110489000D01*
X164187500Y-110489000D01*
X164187500Y-110550000D01*
X164765750Y-110550000D01*
X164896000Y-110419750D01*
X164896000Y-110246367D01*
X164816683Y-110054878D01*
X164670123Y-109908318D01*
X164493533Y-109835171D01*
X164497602Y-109833486D01*
X164558486Y-109772602D01*
X164591437Y-109693052D01*
X164591437Y-109606948D01*
X164591437Y-108806948D01*
X164558486Y-108727398D01*
X164497602Y-108666514D01*
X164418052Y-108633563D01*
X164331948Y-108633563D01*
X164318037Y-108633563D01*
X164318037Y-107331735D01*
X165281963Y-106367809D01*
X165281963Y-107400000D01*
X165306172Y-107521708D01*
X165375114Y-107624886D01*
X165983563Y-108233335D01*
X165983563Y-108893052D01*
X166016514Y-108972602D01*
X166077398Y-109033486D01*
X166156948Y-109066437D01*
X166243052Y-109066437D01*
X166743052Y-109066437D01*
X166822602Y-109033486D01*
X166881963Y-108974125D01*
X166881963Y-109400000D01*
X166881963Y-110000000D01*
X166906172Y-110121708D01*
X166975114Y-110224886D01*
X167081963Y-110331735D01*
X167081963Y-111068265D01*
X165175114Y-112975114D01*
X165106172Y-113078292D01*
X165081963Y-113200000D01*
X165081963Y-113483563D01*
X164896000Y-113483563D01*
X164896000Y-111253633D01*
X164896000Y-111080250D01*
X164765750Y-110950000D01*
X164187500Y-110950000D01*
X164187500Y-111540750D01*
X164317750Y-111671000D01*
X164478634Y-111671000D01*
X164670123Y-111591682D01*
X164816683Y-111445122D01*
X164896000Y-111253633D01*
X164896000Y-113483563D01*
X163856948Y-113483563D01*
X163777398Y-113516514D01*
X163716514Y-113577398D01*
X163683563Y-113656948D01*
X163683563Y-113743052D01*
X163683563Y-118743052D01*
X163716514Y-118822602D01*
X163777398Y-118883486D01*
X163856948Y-118916437D01*
X163943052Y-118916437D01*
X166943052Y-118916437D01*
X167022602Y-118883486D01*
X167083486Y-118822602D01*
X167116437Y-118743052D01*
X167116437Y-118656948D01*
X167116437Y-113656948D01*
X167083486Y-113577398D01*
X167022602Y-113516514D01*
X166943052Y-113483563D01*
X166856948Y-113483563D01*
X165718037Y-113483563D01*
X165718037Y-113331735D01*
X167624886Y-111424886D01*
X167693828Y-111321708D01*
X167693828Y-111321707D01*
X167718037Y-111200000D01*
X167718037Y-110200000D01*
X167693828Y-110078293D01*
X167693828Y-110078292D01*
X167624886Y-109975114D01*
X167518037Y-109868265D01*
X167518037Y-109400000D01*
X167518037Y-109338554D01*
X167596367Y-109371000D01*
X167694750Y-109371000D01*
X167825000Y-109240750D01*
X167825000Y-108625000D01*
X167700000Y-108625000D01*
X167700000Y-108175000D01*
X167825000Y-108175000D01*
X167825000Y-107559250D01*
X167694750Y-107429000D01*
X167596367Y-107429000D01*
X167518037Y-107461445D01*
X167518037Y-107350000D01*
X167493828Y-107228293D01*
X167493828Y-107228292D01*
X167424886Y-107125114D01*
X167367809Y-107068037D01*
X167950180Y-107068037D01*
X168071887Y-107043828D01*
X168071888Y-107043828D01*
X168112805Y-107016487D01*
X168112806Y-107016487D01*
X168843612Y-107016487D01*
X168923162Y-106983536D01*
X168984046Y-106922652D01*
X169016997Y-106843102D01*
X169016997Y-106756998D01*
X169016997Y-105956898D01*
X168984046Y-105877348D01*
X168923162Y-105816464D01*
X168843612Y-105783513D01*
X168757508Y-105783513D01*
X167756748Y-105783513D01*
X167677198Y-105816464D01*
X167616314Y-105877348D01*
X167583363Y-105956898D01*
X167583363Y-106043002D01*
X167583363Y-106431963D01*
X167256087Y-106431963D01*
X167233486Y-106377398D01*
X167172602Y-106316514D01*
X167093052Y-106283563D01*
X167006948Y-106283563D01*
X166106948Y-106283563D01*
X166027398Y-106316514D01*
X165966514Y-106377398D01*
X165933563Y-106456948D01*
X165933563Y-106543052D01*
X165933563Y-107043052D01*
X165966514Y-107122602D01*
X166027398Y-107183486D01*
X166106948Y-107216437D01*
X166193052Y-107216437D01*
X166616665Y-107216437D01*
X166881963Y-107481735D01*
X166881963Y-107825875D01*
X166822602Y-107766514D01*
X166743052Y-107733563D01*
X166656948Y-107733563D01*
X166383335Y-107733563D01*
X165918037Y-107268265D01*
X165918037Y-106381735D01*
X166583335Y-105716437D01*
X167093052Y-105716437D01*
X167172602Y-105683486D01*
X167233486Y-105622602D01*
X167256087Y-105568037D01*
X169150000Y-105568037D01*
X169271707Y-105543828D01*
X169271708Y-105543828D01*
X169374886Y-105474886D01*
X169605493Y-105244278D01*
X169608690Y-105247475D01*
X170258820Y-105247475D01*
X170258820Y-104656700D01*
X170225735Y-104623615D01*
X170293828Y-104521708D01*
X170293828Y-104521707D01*
X170318037Y-104400000D01*
X170318037Y-104356087D01*
X170350000Y-104342848D01*
X170406948Y-104366437D01*
X170493052Y-104366437D01*
X170993052Y-104366437D01*
X171050000Y-104342848D01*
X171081963Y-104356087D01*
X171081963Y-104526450D01*
X170896567Y-104526450D01*
X170871070Y-104526450D01*
X170740820Y-104656700D01*
X170740820Y-105247475D01*
X170760820Y-105247475D01*
X170760820Y-105647525D01*
X170740820Y-105647525D01*
X170740820Y-106238300D01*
X170871070Y-106368550D01*
X170896567Y-106368550D01*
X170981678Y-106368550D01*
X170614215Y-106736013D01*
X170258820Y-106736013D01*
X170258820Y-106238300D01*
X170258820Y-105647525D01*
X169608690Y-105647525D01*
X169478440Y-105777775D01*
X169478440Y-105951183D01*
X169557757Y-106142672D01*
X169704317Y-106289232D01*
X169895806Y-106368550D01*
X170103073Y-106368550D01*
X170128570Y-106368550D01*
X170258820Y-106238300D01*
X170258820Y-106736013D01*
X169956388Y-106736013D01*
X169876838Y-106768964D01*
X169815954Y-106829848D01*
X169783003Y-106909398D01*
X169783003Y-106995502D01*
X169783003Y-107795602D01*
X169815954Y-107875152D01*
X169876838Y-107936036D01*
X169956388Y-107968987D01*
X170042492Y-107968987D01*
X171043252Y-107968987D01*
X171122802Y-107936036D01*
X171183686Y-107875152D01*
X171216637Y-107795602D01*
X171216637Y-107709498D01*
X171216637Y-107033135D01*
X171278800Y-106970972D01*
X171278800Y-107022225D01*
X171409050Y-107152475D01*
X172059180Y-107152475D01*
X172059180Y-106561700D01*
X171928930Y-106431450D01*
X171903433Y-106431450D01*
X171711781Y-106431450D01*
X171718037Y-106400000D01*
X171718037Y-106047952D01*
X171756748Y-106063987D01*
X171842852Y-106063987D01*
X172843612Y-106063987D01*
X172923162Y-106031036D01*
X172984046Y-105970152D01*
X173016997Y-105890602D01*
X173016997Y-105804498D01*
X173016997Y-105004398D01*
X172984046Y-104924848D01*
X172923162Y-104863964D01*
X172843612Y-104831013D01*
X172757508Y-104831013D01*
X172618217Y-104831013D01*
X172618217Y-104700180D01*
X172594008Y-104578473D01*
X172594007Y-104578472D01*
X172525066Y-104475294D01*
X172418037Y-104368265D01*
X172418037Y-104356087D01*
X172450000Y-104342848D01*
X172506948Y-104366437D01*
X172593052Y-104366437D01*
X173093052Y-104366437D01*
X173150000Y-104342848D01*
X173206948Y-104366437D01*
X173293052Y-104366437D01*
X173793052Y-104366437D01*
X173850000Y-104342848D01*
X173906948Y-104366437D01*
X173993052Y-104366437D01*
X174493052Y-104366437D01*
X174550000Y-104342848D01*
X174581963Y-104356087D01*
X174581963Y-104500000D01*
X174606172Y-104621708D01*
X174675114Y-104724886D01*
X175425114Y-105474886D01*
X175528292Y-105543827D01*
X175528293Y-105543828D01*
X175534386Y-105545039D01*
X175534386Y-105545040D01*
X175566514Y-105622602D01*
X175627398Y-105683486D01*
X175706948Y-105716437D01*
X175793052Y-105716437D01*
X176216665Y-105716437D01*
X176881963Y-106381735D01*
X176881963Y-107268265D01*
G36*
X177439207Y-89066437D02*
X177081607Y-89442373D01*
X176938622Y-89728674D01*
X176975827Y-89829000D01*
X176771250Y-89829000D01*
X176641000Y-89959250D01*
X176641000Y-90475000D01*
X176661000Y-90475000D01*
X176661000Y-90725000D01*
X176641000Y-90725000D01*
X176641000Y-90833563D01*
X176159000Y-90833563D01*
X176159000Y-90725000D01*
X176139000Y-90725000D01*
X176139000Y-90475000D01*
X176159000Y-90475000D01*
X176159000Y-89959250D01*
X176028750Y-89829000D01*
X175746367Y-89829000D01*
X175554878Y-89908317D01*
X175408318Y-90054877D01*
X175366437Y-90155985D01*
X175366437Y-89066437D01*
X177439207Y-89066437D01*
X177439207Y-89066437D01*
G37*
X177439207Y-89066437D02*
X177081607Y-89442373D01*
X176938622Y-89728674D01*
X176975827Y-89829000D01*
X176771250Y-89829000D01*
X176641000Y-89959250D01*
X176641000Y-90475000D01*
X176661000Y-90475000D01*
X176661000Y-90725000D01*
X176641000Y-90725000D01*
X176641000Y-90833563D01*
X176159000Y-90833563D01*
X176159000Y-90725000D01*
X176139000Y-90725000D01*
X176139000Y-90475000D01*
X176159000Y-90475000D01*
X176159000Y-89959250D01*
X176028750Y-89829000D01*
X175746367Y-89829000D01*
X175554878Y-89908317D01*
X175408318Y-90054877D01*
X175366437Y-90155985D01*
X175366437Y-89066437D01*
X177439207Y-89066437D01*
G36*
X179533563Y-92245617D02*
X179340246Y-91956299D01*
X178989857Y-91722176D01*
X178576545Y-91639963D01*
X178223455Y-91639963D01*
X177810143Y-91722176D01*
X177459754Y-91956299D01*
X177225631Y-92306688D01*
X177166437Y-92604275D01*
X177166437Y-92406948D01*
X177142848Y-92350000D01*
X177166437Y-92293052D01*
X177166437Y-92206948D01*
X177166437Y-91706948D01*
X177142848Y-91650000D01*
X177166437Y-91593052D01*
X177166437Y-91506948D01*
X177166437Y-91324275D01*
X177245122Y-91291683D01*
X177343674Y-91193130D01*
X177452641Y-91307685D01*
X177944700Y-91526063D01*
X178159000Y-91426625D01*
X178159000Y-90421000D01*
X178139000Y-90421000D01*
X178139000Y-89939000D01*
X178159000Y-89939000D01*
X178159000Y-89919000D01*
X178641000Y-89919000D01*
X178641000Y-89939000D01*
X178661000Y-89939000D01*
X178661000Y-90421000D01*
X178641000Y-90421000D01*
X178641000Y-91426625D01*
X178855300Y-91526063D01*
X179347359Y-91307685D01*
X179533563Y-91111933D01*
X179533563Y-92245617D01*
X179533563Y-92245617D01*
G37*
X179533563Y-92245617D02*
X179340246Y-91956299D01*
X178989857Y-91722176D01*
X178576545Y-91639963D01*
X178223455Y-91639963D01*
X177810143Y-91722176D01*
X177459754Y-91956299D01*
X177225631Y-92306688D01*
X177166437Y-92604275D01*
X177166437Y-92406948D01*
X177142848Y-92350000D01*
X177166437Y-92293052D01*
X177166437Y-92206948D01*
X177166437Y-91706948D01*
X177142848Y-91650000D01*
X177166437Y-91593052D01*
X177166437Y-91506948D01*
X177166437Y-91324275D01*
X177245122Y-91291683D01*
X177343674Y-91193130D01*
X177452641Y-91307685D01*
X177944700Y-91526063D01*
X178159000Y-91426625D01*
X178159000Y-90421000D01*
X178139000Y-90421000D01*
X178139000Y-89939000D01*
X178159000Y-89939000D01*
X178159000Y-89919000D01*
X178641000Y-89919000D01*
X178641000Y-89939000D01*
X178661000Y-89939000D01*
X178661000Y-90421000D01*
X178641000Y-90421000D01*
X178641000Y-91426625D01*
X178855300Y-91526063D01*
X179347359Y-91307685D01*
X179533563Y-91111933D01*
X179533563Y-92245617D01*
G36*
X179533563Y-116888066D02*
X179347359Y-116692315D01*
X178855300Y-116473937D01*
X178641000Y-116573375D01*
X178641000Y-117579000D01*
X178661000Y-117579000D01*
X178661000Y-118061000D01*
X178641000Y-118061000D01*
X178641000Y-118081000D01*
X178159000Y-118081000D01*
X178159000Y-118061000D01*
X178159000Y-117579000D01*
X178159000Y-116573375D01*
X177944700Y-116473937D01*
X177452641Y-116692315D01*
X177081607Y-117082373D01*
X176938622Y-117368674D01*
X177016620Y-117579000D01*
X178159000Y-117579000D01*
X178159000Y-118061000D01*
X177016620Y-118061000D01*
X176938622Y-118271326D01*
X177081607Y-118557627D01*
X177439207Y-118933563D01*
X175367181Y-118933563D01*
X175421000Y-118803634D01*
X175421000Y-118596367D01*
X175421000Y-116571250D01*
X175421000Y-115828750D01*
X175421000Y-113803633D01*
X175421000Y-113596366D01*
X175341682Y-113404877D01*
X175195122Y-113258317D01*
X175003633Y-113179000D01*
X173771250Y-113179000D01*
X173641000Y-113309250D01*
X173641000Y-115959000D01*
X175290750Y-115959000D01*
X175421000Y-115828750D01*
X175421000Y-116571250D01*
X175290750Y-116441000D01*
X173641000Y-116441000D01*
X173641000Y-116461000D01*
X173159000Y-116461000D01*
X173159000Y-116441000D01*
X173139000Y-116441000D01*
X173139000Y-115959000D01*
X173159000Y-115959000D01*
X173159000Y-113309250D01*
X173028750Y-113179000D01*
X171796367Y-113179000D01*
X171604878Y-113258317D01*
X171458318Y-113404877D01*
X171424379Y-113486812D01*
X171400000Y-113481963D01*
X171278293Y-113506172D01*
X171175114Y-113575114D01*
X171116437Y-113662930D01*
X171116437Y-113656948D01*
X171083486Y-113577398D01*
X171022602Y-113516514D01*
X170943052Y-113483563D01*
X170856948Y-113483563D01*
X169966209Y-113483563D01*
X170731735Y-112718037D01*
X173000000Y-112718037D01*
X173121707Y-112693828D01*
X173121708Y-112693828D01*
X173224886Y-112624886D01*
X175824886Y-110024886D01*
X175893827Y-109921708D01*
X175893828Y-109921707D01*
X175918037Y-109800000D01*
X175918037Y-109600000D01*
X175918037Y-108974125D01*
X175977398Y-109033486D01*
X176056948Y-109066437D01*
X176143052Y-109066437D01*
X176643052Y-109066437D01*
X176722602Y-109033486D01*
X176783486Y-108972602D01*
X176816437Y-108893052D01*
X176816437Y-108806948D01*
X176816437Y-108233335D01*
X177424886Y-107624886D01*
X177493828Y-107521708D01*
X177493828Y-107521707D01*
X177518037Y-107400000D01*
X177518037Y-106250000D01*
X177493828Y-106128293D01*
X177493828Y-106128292D01*
X177424886Y-106025114D01*
X176866437Y-105466665D01*
X176866437Y-105456948D01*
X176866437Y-104956948D01*
X176833486Y-104877398D01*
X176772602Y-104816514D01*
X176693052Y-104783563D01*
X176606948Y-104783563D01*
X176371000Y-104783563D01*
X176371000Y-104253634D01*
X176371000Y-104046367D01*
X176371000Y-103971250D01*
X176371000Y-103228750D01*
X176371000Y-103153633D01*
X176371000Y-102946366D01*
X176291682Y-102754877D01*
X176145122Y-102608317D01*
X175953633Y-102529000D01*
X175855250Y-102529000D01*
X175725000Y-102659250D01*
X175725000Y-103359000D01*
X176240750Y-103359000D01*
X176371000Y-103228750D01*
X176371000Y-103971250D01*
X176240750Y-103841000D01*
X175725000Y-103841000D01*
X175725000Y-104540750D01*
X175855250Y-104671000D01*
X175953633Y-104671000D01*
X176145122Y-104591683D01*
X176291682Y-104445123D01*
X176371000Y-104253634D01*
X176371000Y-104783563D01*
X175706948Y-104783563D01*
X175654895Y-104805123D01*
X175432761Y-104582989D01*
X175475000Y-104540750D01*
X175475000Y-103841000D01*
X175366437Y-103841000D01*
X175366437Y-103359000D01*
X175475000Y-103359000D01*
X175475000Y-102659250D01*
X175344750Y-102529000D01*
X175246367Y-102529000D01*
X175054878Y-102608317D01*
X174908318Y-102754877D01*
X174875724Y-102833563D01*
X174606948Y-102833563D01*
X174550000Y-102857151D01*
X174493052Y-102833563D01*
X174406948Y-102833563D01*
X174197420Y-102833563D01*
X174373902Y-102760642D01*
X174559989Y-102574880D01*
X174660822Y-102332045D01*
X174661052Y-102069108D01*
X174575028Y-101860915D01*
X174730892Y-101861052D01*
X174973902Y-101760642D01*
X175159989Y-101574880D01*
X175225115Y-101418037D01*
X175643912Y-101418037D01*
X175657151Y-101450000D01*
X175633563Y-101506948D01*
X175633563Y-101593052D01*
X175633563Y-102093052D01*
X175666514Y-102172602D01*
X175727398Y-102233486D01*
X175806948Y-102266437D01*
X175893052Y-102266437D01*
X176993052Y-102266437D01*
X177072602Y-102233486D01*
X177133486Y-102172602D01*
X177156087Y-102118037D01*
X177468265Y-102118037D01*
X178081963Y-102731735D01*
X178081963Y-109119963D01*
X177340948Y-109119963D01*
X177261398Y-109152914D01*
X177200514Y-109213798D01*
X177167563Y-109293348D01*
X177167563Y-109379452D01*
X177167563Y-111106652D01*
X177200514Y-111186202D01*
X177261398Y-111247086D01*
X177340948Y-111280037D01*
X177427052Y-111280037D01*
X179459052Y-111280037D01*
X179533563Y-111249173D01*
X179533563Y-112265617D01*
X179340246Y-111976299D01*
X178989857Y-111742176D01*
X178576545Y-111659963D01*
X178223455Y-111659963D01*
X177810143Y-111742176D01*
X177459754Y-111976299D01*
X177225631Y-112326688D01*
X177143418Y-112740000D01*
X177225631Y-113153312D01*
X177459754Y-113503701D01*
X177810143Y-113737824D01*
X178223455Y-113820037D01*
X178576545Y-113820037D01*
X178989857Y-113737824D01*
X179340246Y-113503701D01*
X179533563Y-113214382D01*
X179533563Y-114805617D01*
X179340246Y-114516299D01*
X178989857Y-114282176D01*
X178576545Y-114199963D01*
X178223455Y-114199963D01*
X177810143Y-114282176D01*
X177459754Y-114516299D01*
X177225631Y-114866688D01*
X177143418Y-115280000D01*
X177225631Y-115693312D01*
X177459754Y-116043701D01*
X177810143Y-116277824D01*
X178223455Y-116360037D01*
X178576545Y-116360037D01*
X178989857Y-116277824D01*
X179340246Y-116043701D01*
X179533563Y-115754382D01*
X179533563Y-116888066D01*
X179533563Y-116888066D01*
G37*
X179533563Y-116888066D02*
X179347359Y-116692315D01*
X178855300Y-116473937D01*
X178641000Y-116573375D01*
X178641000Y-117579000D01*
X178661000Y-117579000D01*
X178661000Y-118061000D01*
X178641000Y-118061000D01*
X178641000Y-118081000D01*
X178159000Y-118081000D01*
X178159000Y-118061000D01*
X178159000Y-117579000D01*
X178159000Y-116573375D01*
X177944700Y-116473937D01*
X177452641Y-116692315D01*
X177081607Y-117082373D01*
X176938622Y-117368674D01*
X177016620Y-117579000D01*
X178159000Y-117579000D01*
X178159000Y-118061000D01*
X177016620Y-118061000D01*
X176938622Y-118271326D01*
X177081607Y-118557627D01*
X177439207Y-118933563D01*
X175367181Y-118933563D01*
X175421000Y-118803634D01*
X175421000Y-118596367D01*
X175421000Y-116571250D01*
X175421000Y-115828750D01*
X175421000Y-113803633D01*
X175421000Y-113596366D01*
X175341682Y-113404877D01*
X175195122Y-113258317D01*
X175003633Y-113179000D01*
X173771250Y-113179000D01*
X173641000Y-113309250D01*
X173641000Y-115959000D01*
X175290750Y-115959000D01*
X175421000Y-115828750D01*
X175421000Y-116571250D01*
X175290750Y-116441000D01*
X173641000Y-116441000D01*
X173641000Y-116461000D01*
X173159000Y-116461000D01*
X173159000Y-116441000D01*
X173139000Y-116441000D01*
X173139000Y-115959000D01*
X173159000Y-115959000D01*
X173159000Y-113309250D01*
X173028750Y-113179000D01*
X171796367Y-113179000D01*
X171604878Y-113258317D01*
X171458318Y-113404877D01*
X171424379Y-113486812D01*
X171400000Y-113481963D01*
X171278293Y-113506172D01*
X171175114Y-113575114D01*
X171116437Y-113662930D01*
X171116437Y-113656948D01*
X171083486Y-113577398D01*
X171022602Y-113516514D01*
X170943052Y-113483563D01*
X170856948Y-113483563D01*
X169966209Y-113483563D01*
X170731735Y-112718037D01*
X173000000Y-112718037D01*
X173121707Y-112693828D01*
X173121708Y-112693828D01*
X173224886Y-112624886D01*
X175824886Y-110024886D01*
X175893827Y-109921708D01*
X175893828Y-109921707D01*
X175918037Y-109800000D01*
X175918037Y-109600000D01*
X175918037Y-108974125D01*
X175977398Y-109033486D01*
X176056948Y-109066437D01*
X176143052Y-109066437D01*
X176643052Y-109066437D01*
X176722602Y-109033486D01*
X176783486Y-108972602D01*
X176816437Y-108893052D01*
X176816437Y-108806948D01*
X176816437Y-108233335D01*
X177424886Y-107624886D01*
X177493828Y-107521708D01*
X177493828Y-107521707D01*
X177518037Y-107400000D01*
X177518037Y-106250000D01*
X177493828Y-106128293D01*
X177493828Y-106128292D01*
X177424886Y-106025114D01*
X176866437Y-105466665D01*
X176866437Y-105456948D01*
X176866437Y-104956948D01*
X176833486Y-104877398D01*
X176772602Y-104816514D01*
X176693052Y-104783563D01*
X176606948Y-104783563D01*
X176371000Y-104783563D01*
X176371000Y-104253634D01*
X176371000Y-104046367D01*
X176371000Y-103971250D01*
X176371000Y-103228750D01*
X176371000Y-103153633D01*
X176371000Y-102946366D01*
X176291682Y-102754877D01*
X176145122Y-102608317D01*
X175953633Y-102529000D01*
X175855250Y-102529000D01*
X175725000Y-102659250D01*
X175725000Y-103359000D01*
X176240750Y-103359000D01*
X176371000Y-103228750D01*
X176371000Y-103971250D01*
X176240750Y-103841000D01*
X175725000Y-103841000D01*
X175725000Y-104540750D01*
X175855250Y-104671000D01*
X175953633Y-104671000D01*
X176145122Y-104591683D01*
X176291682Y-104445123D01*
X176371000Y-104253634D01*
X176371000Y-104783563D01*
X175706948Y-104783563D01*
X175654895Y-104805123D01*
X175432761Y-104582989D01*
X175475000Y-104540750D01*
X175475000Y-103841000D01*
X175366437Y-103841000D01*
X175366437Y-103359000D01*
X175475000Y-103359000D01*
X175475000Y-102659250D01*
X175344750Y-102529000D01*
X175246367Y-102529000D01*
X175054878Y-102608317D01*
X174908318Y-102754877D01*
X174875724Y-102833563D01*
X174606948Y-102833563D01*
X174550000Y-102857151D01*
X174493052Y-102833563D01*
X174406948Y-102833563D01*
X174197420Y-102833563D01*
X174373902Y-102760642D01*
X174559989Y-102574880D01*
X174660822Y-102332045D01*
X174661052Y-102069108D01*
X174575028Y-101860915D01*
X174730892Y-101861052D01*
X174973902Y-101760642D01*
X175159989Y-101574880D01*
X175225115Y-101418037D01*
X175643912Y-101418037D01*
X175657151Y-101450000D01*
X175633563Y-101506948D01*
X175633563Y-101593052D01*
X175633563Y-102093052D01*
X175666514Y-102172602D01*
X175727398Y-102233486D01*
X175806948Y-102266437D01*
X175893052Y-102266437D01*
X176993052Y-102266437D01*
X177072602Y-102233486D01*
X177133486Y-102172602D01*
X177156087Y-102118037D01*
X177468265Y-102118037D01*
X178081963Y-102731735D01*
X178081963Y-109119963D01*
X177340948Y-109119963D01*
X177261398Y-109152914D01*
X177200514Y-109213798D01*
X177167563Y-109293348D01*
X177167563Y-109379452D01*
X177167563Y-111106652D01*
X177200514Y-111186202D01*
X177261398Y-111247086D01*
X177340948Y-111280037D01*
X177427052Y-111280037D01*
X179459052Y-111280037D01*
X179533563Y-111249173D01*
X179533563Y-112265617D01*
X179340246Y-111976299D01*
X178989857Y-111742176D01*
X178576545Y-111659963D01*
X178223455Y-111659963D01*
X177810143Y-111742176D01*
X177459754Y-111976299D01*
X177225631Y-112326688D01*
X177143418Y-112740000D01*
X177225631Y-113153312D01*
X177459754Y-113503701D01*
X177810143Y-113737824D01*
X178223455Y-113820037D01*
X178576545Y-113820037D01*
X178989857Y-113737824D01*
X179340246Y-113503701D01*
X179533563Y-113214382D01*
X179533563Y-114805617D01*
X179340246Y-114516299D01*
X178989857Y-114282176D01*
X178576545Y-114199963D01*
X178223455Y-114199963D01*
X177810143Y-114282176D01*
X177459754Y-114516299D01*
X177225631Y-114866688D01*
X177143418Y-115280000D01*
X177225631Y-115693312D01*
X177459754Y-116043701D01*
X177810143Y-116277824D01*
X178223455Y-116360037D01*
X178576545Y-116360037D01*
X178989857Y-116277824D01*
X179340246Y-116043701D01*
X179533563Y-115754382D01*
X179533563Y-116888066D01*
M02*
