%FSLAX46Y46*%
G04 Gerber Fmt 4.6, Leading zero omitted, Abs format (unit mm)*
G04 Created by KiCad (PCBNEW (2014-10-22 BZR 5216)-product) date Thu 02 Jul 2015 03:27:14 PM EDT*
%MOMM*%
G01*
G04 APERTURE LIST*
%ADD10C,0.100000*%
%ADD11R,0.750000X0.800000*%
%ADD12R,0.500000X0.900000*%
%ADD13R,3.000000X5.000000*%
%ADD14R,2.032000X1.727200*%
%ADD15O,2.032000X1.727200*%
%ADD16R,1.000760X0.800100*%
%ADD17R,0.900000X0.500000*%
%ADD18R,0.500000X1.100000*%
%ADD19R,1.100000X0.500000*%
%ADD20R,1.600000X2.000000*%
G04 APERTURE END LIST*
D10*
D11*
X164000000Y-110750000D03*
X164000000Y-109250000D03*
X164200000Y-94950000D03*
X164200000Y-93450000D03*
X164000000Y-103450000D03*
X164000000Y-104950000D03*
D12*
X169050000Y-109400000D03*
X170550000Y-109400000D03*
D13*
X169400000Y-116200000D03*
X165400000Y-116200000D03*
X173400000Y-116200000D03*
D14*
X178840000Y-97690000D03*
D15*
X178840000Y-95150000D03*
X178840000Y-92610000D03*
X178840000Y-90070000D03*
D16*
X174499820Y-106400000D03*
X172300180Y-107352500D03*
X172300180Y-105447500D03*
X168300180Y-106400000D03*
X170499820Y-105447500D03*
X170499820Y-107352500D03*
D12*
X172050000Y-109400000D03*
X173550000Y-109400000D03*
D17*
X166600000Y-106750000D03*
X166600000Y-105250000D03*
D12*
X166450000Y-108400000D03*
X167950000Y-108400000D03*
D17*
X176200000Y-106750000D03*
X176200000Y-105250000D03*
D12*
X176350000Y-108400000D03*
X174850000Y-108400000D03*
D18*
X167200000Y-103600000D03*
X167900000Y-103600000D03*
X168600000Y-103600000D03*
X169300000Y-103600000D03*
X170000000Y-103600000D03*
X170700000Y-103600000D03*
X171400000Y-103600000D03*
X172100000Y-103600000D03*
X172800000Y-103600000D03*
X173500000Y-103600000D03*
X174200000Y-103600000D03*
X174900000Y-103600000D03*
X175600000Y-103600000D03*
D19*
X166400000Y-90600000D03*
X166400000Y-91300000D03*
X176400000Y-101800000D03*
X176400000Y-101100000D03*
X176400000Y-100400000D03*
X176400000Y-99700000D03*
X176400000Y-99000000D03*
X176400000Y-98300000D03*
X176400000Y-97600000D03*
X176400000Y-96900000D03*
X176400000Y-96200000D03*
X176400000Y-95500000D03*
X176400000Y-94800000D03*
X176400000Y-94100000D03*
X176400000Y-93400000D03*
X176400000Y-92700000D03*
X176400000Y-92000000D03*
X176400000Y-91300000D03*
X176400000Y-90600000D03*
X166400000Y-95500000D03*
X166400000Y-96200000D03*
X166400000Y-96900000D03*
X166400000Y-97600000D03*
X166400000Y-98300000D03*
X166400000Y-99000000D03*
X166400000Y-99700000D03*
X166400000Y-100400000D03*
X166400000Y-101100000D03*
X166400000Y-101800000D03*
D14*
X178820000Y-110200000D03*
D15*
X178820000Y-112740000D03*
X178820000Y-115280000D03*
X178820000Y-117820000D03*
D20*
X164200000Y-97100000D03*
X164200000Y-101100000D03*
M02*
