G04 #@! TF.FileFunction,Legend,Top*
%FSLAX46Y46*%
G04 Gerber Fmt 4.6, Leading zero omitted, Abs format (unit mm)*
G04 Created by KiCad (PCBNEW (2015-01-02 BZR 5348)-product) date 1/7/2015 6:05:39 PM*
%MOMM*%
G01*
G04 APERTURE LIST*
%ADD10C,0.150000*%
G04 APERTURE END LIST*
D10*
X168500000Y-42850000D02*
X169500000Y-42850000D01*
X169500000Y-41150000D02*
X168500000Y-41150000D01*
X176000000Y-55650000D02*
X175000000Y-55650000D01*
X175000000Y-57350000D02*
X176000000Y-57350000D01*
X168500000Y-53850000D02*
X169500000Y-53850000D01*
X169500000Y-52150000D02*
X168500000Y-52150000D01*
X174900000Y-63625000D02*
X176100000Y-63625000D01*
X176100000Y-65375000D02*
X174900000Y-65375000D01*
X168400000Y-63625000D02*
X169600000Y-63625000D01*
X169600000Y-65375000D02*
X168400000Y-65375000D01*
X185125000Y-63100000D02*
X185125000Y-61900000D01*
X186875000Y-61900000D02*
X186875000Y-63100000D01*
X174900000Y-60125000D02*
X176100000Y-60125000D01*
X176100000Y-61875000D02*
X174900000Y-61875000D01*
X168400000Y-60125000D02*
X169600000Y-60125000D01*
X169600000Y-61875000D02*
X168400000Y-61875000D01*
X168808550Y-68323980D02*
G75*
G03X168808550Y-68323980I-159070J0D01*
G01*
X169508000Y-70770000D02*
X168492000Y-70770000D01*
X169508000Y-68166500D02*
X168492000Y-68166500D01*
X168492000Y-70770000D02*
X168492000Y-68166500D01*
X169508000Y-68166500D02*
X169508000Y-70770000D01*
X175308550Y-68323980D02*
G75*
G03X175308550Y-68323980I-159070J0D01*
G01*
X176008000Y-70770000D02*
X174992000Y-70770000D01*
X176008000Y-68166500D02*
X174992000Y-68166500D01*
X174992000Y-70770000D02*
X174992000Y-68166500D01*
X176008000Y-68166500D02*
X176008000Y-70770000D01*
X175000000Y-38250000D02*
X185000000Y-38250000D01*
X185000000Y-35000000D02*
X175000000Y-35000000D01*
X175000000Y-35000000D02*
X175000000Y-53000000D01*
X175000000Y-53000000D02*
X185000000Y-53000000D01*
X185000000Y-53000000D02*
X185000000Y-35000000D01*
X181000000Y-73000000D02*
X187000000Y-73000000D01*
X187000000Y-73000000D02*
X187000000Y-79000000D01*
X187000000Y-79000000D02*
X181000000Y-79000000D01*
X181000000Y-79000000D02*
X175000000Y-79000000D01*
X175000000Y-79000000D02*
X175000000Y-73000000D01*
X175000000Y-73000000D02*
X181000000Y-73000000D01*
X169475000Y-46500000D02*
X169475000Y-48500000D01*
X171525000Y-48500000D02*
X171525000Y-46500000D01*
X186850000Y-69000000D02*
X186850000Y-68000000D01*
X185150000Y-68000000D02*
X185150000Y-69000000D01*
X182850000Y-69000000D02*
X182850000Y-68000000D01*
X181150000Y-68000000D02*
X181150000Y-69000000D01*
X174220000Y-79016000D02*
X174220000Y-78889000D01*
X164060000Y-79016000D02*
X164060000Y-78762000D01*
X169648000Y-79143000D02*
X168632000Y-79143000D01*
X172950000Y-79016000D02*
X174220000Y-79016000D01*
X174220000Y-78889000D02*
X174220000Y-75714000D01*
X174220000Y-75714000D02*
X172823000Y-75714000D01*
X169140000Y-79016000D02*
X164060000Y-79016000D01*
X164060000Y-78889000D02*
X164060000Y-75714000D01*
X164060000Y-75714000D02*
X172950000Y-75714000D01*
X172950000Y-79016000D02*
X169140000Y-79016000D01*
X185125000Y-57600000D02*
X185125000Y-56400000D01*
X186875000Y-56400000D02*
X186875000Y-57600000D01*
X163524000Y-42760000D02*
X164286000Y-42760000D01*
X163905000Y-42760000D02*
X163905000Y-43141000D01*
X163905000Y-43141000D02*
X163905000Y-42379000D01*
X163905000Y-62572000D02*
X163905000Y-62953000D01*
X164413000Y-62953000D02*
X163905000Y-62572000D01*
X163905000Y-63334000D02*
X164413000Y-62953000D01*
X163905000Y-62953000D02*
X163905000Y-63334000D01*
X163524000Y-62953000D02*
X163905000Y-62953000D01*
X163651000Y-70700000D02*
X164032000Y-70700000D01*
X164032000Y-70700000D02*
X164032000Y-71081000D01*
X164032000Y-71081000D02*
X164540000Y-70700000D01*
X164540000Y-70700000D02*
X164032000Y-70319000D01*
X164032000Y-70319000D02*
X164032000Y-70700000D01*
X163905000Y-39839000D02*
X163905000Y-40220000D01*
X164413000Y-40220000D02*
X163905000Y-39839000D01*
X163905000Y-40601000D02*
X164413000Y-40220000D01*
X163905000Y-40220000D02*
X163905000Y-40601000D01*
X163524000Y-40220000D02*
X163905000Y-40220000D01*
X163524000Y-55460000D02*
X163905000Y-55460000D01*
X163905000Y-55460000D02*
X163905000Y-55841000D01*
X163905000Y-55841000D02*
X164413000Y-55460000D01*
X164413000Y-55460000D02*
X163905000Y-55079000D01*
X163905000Y-55079000D02*
X163905000Y-55460000D01*
X163270000Y-74510000D02*
X163270000Y-38950000D01*
X163270000Y-38950000D02*
X160730000Y-38950000D01*
X160730000Y-38950000D02*
X160730000Y-74510000D01*
X160730000Y-77050000D02*
X160730000Y-74510000D01*
X160730000Y-74510000D02*
X163270000Y-74510000D01*
X160730000Y-77050000D02*
X163270000Y-77050000D01*
X163270000Y-77050000D02*
X163270000Y-74510000D01*
X175395334Y-66652381D02*
X175062000Y-66176190D01*
X174823905Y-66652381D02*
X174823905Y-65652381D01*
X175204858Y-65652381D01*
X175300096Y-65700000D01*
X175347715Y-65747619D01*
X175395334Y-65842857D01*
X175395334Y-65985714D01*
X175347715Y-66080952D01*
X175300096Y-66128571D01*
X175204858Y-66176190D01*
X174823905Y-66176190D01*
X176347715Y-66652381D02*
X175776286Y-66652381D01*
X176062000Y-66652381D02*
X176062000Y-65652381D01*
X175966762Y-65795238D01*
X175871524Y-65890476D01*
X175776286Y-65938095D01*
X168961334Y-66652381D02*
X168628000Y-66176190D01*
X168389905Y-66652381D02*
X168389905Y-65652381D01*
X168770858Y-65652381D01*
X168866096Y-65700000D01*
X168913715Y-65747619D01*
X168961334Y-65842857D01*
X168961334Y-65985714D01*
X168913715Y-66080952D01*
X168866096Y-66128571D01*
X168770858Y-66176190D01*
X168389905Y-66176190D01*
X169342286Y-65747619D02*
X169389905Y-65700000D01*
X169485143Y-65652381D01*
X169723239Y-65652381D01*
X169818477Y-65700000D01*
X169866096Y-65747619D01*
X169913715Y-65842857D01*
X169913715Y-65938095D01*
X169866096Y-66080952D01*
X169294667Y-66652381D01*
X169913715Y-66652381D01*
X184812381Y-62646666D02*
X184336190Y-62980000D01*
X184812381Y-63218095D02*
X183812381Y-63218095D01*
X183812381Y-62837142D01*
X183860000Y-62741904D01*
X183907619Y-62694285D01*
X184002857Y-62646666D01*
X184145714Y-62646666D01*
X184240952Y-62694285D01*
X184288571Y-62741904D01*
X184336190Y-62837142D01*
X184336190Y-63218095D01*
X183812381Y-62313333D02*
X183812381Y-61694285D01*
X184193333Y-62027619D01*
X184193333Y-61884761D01*
X184240952Y-61789523D01*
X184288571Y-61741904D01*
X184383810Y-61694285D01*
X184621905Y-61694285D01*
X184717143Y-61741904D01*
X184764762Y-61789523D01*
X184812381Y-61884761D01*
X184812381Y-62170476D01*
X184764762Y-62265714D01*
X184717143Y-62313333D01*
X175395334Y-59656381D02*
X175062000Y-59180190D01*
X174823905Y-59656381D02*
X174823905Y-58656381D01*
X175204858Y-58656381D01*
X175300096Y-58704000D01*
X175347715Y-58751619D01*
X175395334Y-58846857D01*
X175395334Y-58989714D01*
X175347715Y-59084952D01*
X175300096Y-59132571D01*
X175204858Y-59180190D01*
X174823905Y-59180190D01*
X176252477Y-58989714D02*
X176252477Y-59656381D01*
X176014381Y-58608762D02*
X175776286Y-59323048D01*
X176395334Y-59323048D01*
X168707334Y-59656381D02*
X168374000Y-59180190D01*
X168135905Y-59656381D02*
X168135905Y-58656381D01*
X168516858Y-58656381D01*
X168612096Y-58704000D01*
X168659715Y-58751619D01*
X168707334Y-58846857D01*
X168707334Y-58989714D01*
X168659715Y-59084952D01*
X168612096Y-59132571D01*
X168516858Y-59180190D01*
X168135905Y-59180190D01*
X169612096Y-58656381D02*
X169135905Y-58656381D01*
X169088286Y-59132571D01*
X169135905Y-59084952D01*
X169231143Y-59037333D01*
X169469239Y-59037333D01*
X169564477Y-59084952D01*
X169612096Y-59132571D01*
X169659715Y-59227810D01*
X169659715Y-59465905D01*
X169612096Y-59561143D01*
X169564477Y-59608762D01*
X169469239Y-59656381D01*
X169231143Y-59656381D01*
X169135905Y-59608762D01*
X169088286Y-59561143D01*
X178857143Y-36916667D02*
X179333334Y-36916667D01*
X178761905Y-37202381D02*
X179095238Y-36202381D01*
X179428572Y-37202381D01*
X179761905Y-37202381D02*
X179761905Y-36202381D01*
X180333334Y-37202381D01*
X180333334Y-36202381D01*
X180666667Y-36202381D02*
X181238096Y-36202381D01*
X180952381Y-37202381D02*
X180952381Y-36202381D01*
X184238096Y-71500000D02*
X184142858Y-71452381D01*
X184000001Y-71452381D01*
X183857143Y-71500000D01*
X183761905Y-71595238D01*
X183714286Y-71690476D01*
X183666667Y-71880952D01*
X183666667Y-72023810D01*
X183714286Y-72214286D01*
X183761905Y-72309524D01*
X183857143Y-72404762D01*
X184000001Y-72452381D01*
X184095239Y-72452381D01*
X184238096Y-72404762D01*
X184285715Y-72357143D01*
X184285715Y-72023810D01*
X184095239Y-72023810D01*
X184714286Y-72452381D02*
X184714286Y-71452381D01*
X185285715Y-72452381D01*
X185285715Y-71452381D01*
X185761905Y-72452381D02*
X185761905Y-71452381D01*
X186000000Y-71452381D01*
X186142858Y-71500000D01*
X186238096Y-71595238D01*
X186285715Y-71690476D01*
X186333334Y-71880952D01*
X186333334Y-72023810D01*
X186285715Y-72214286D01*
X186238096Y-72309524D01*
X186142858Y-72404762D01*
X186000000Y-72452381D01*
X185761905Y-72452381D01*
X179666667Y-71452381D02*
X179904762Y-72452381D01*
X180095239Y-71738095D01*
X180285715Y-72452381D01*
X180523810Y-71452381D01*
X180904762Y-72452381D02*
X180904762Y-71452381D01*
X180904762Y-71928571D02*
X181476191Y-71928571D01*
X181476191Y-72452381D02*
X181476191Y-71452381D01*
X181809524Y-71452381D02*
X182380953Y-71452381D01*
X182095238Y-72452381D02*
X182095238Y-71452381D01*
X176238096Y-71500000D02*
X176142858Y-71452381D01*
X176000001Y-71452381D01*
X175857143Y-71500000D01*
X175761905Y-71595238D01*
X175714286Y-71690476D01*
X175666667Y-71880952D01*
X175666667Y-72023810D01*
X175714286Y-72214286D01*
X175761905Y-72309524D01*
X175857143Y-72404762D01*
X176000001Y-72452381D01*
X176095239Y-72452381D01*
X176238096Y-72404762D01*
X176285715Y-72357143D01*
X176285715Y-72023810D01*
X176095239Y-72023810D01*
X177285715Y-72452381D02*
X176952381Y-71976190D01*
X176714286Y-72452381D02*
X176714286Y-71452381D01*
X177095239Y-71452381D01*
X177190477Y-71500000D01*
X177238096Y-71547619D01*
X177285715Y-71642857D01*
X177285715Y-71785714D01*
X177238096Y-71880952D01*
X177190477Y-71928571D01*
X177095239Y-71976190D01*
X176714286Y-71976190D01*
X177714286Y-72452381D02*
X177714286Y-71452381D01*
X178285715Y-72452381D01*
X178285715Y-71452381D01*
X168152381Y-49247619D02*
X169152381Y-48580952D01*
X168152381Y-48580952D02*
X169152381Y-49247619D01*
X168152381Y-48342857D02*
X168152381Y-47771428D01*
X169152381Y-48057143D02*
X168152381Y-48057143D01*
X168866667Y-47485714D02*
X168866667Y-47009523D01*
X169152381Y-47580952D02*
X168152381Y-47247619D01*
X169152381Y-46914285D01*
X169152381Y-46104761D02*
X169152381Y-46580952D01*
X168152381Y-46580952D01*
X184857143Y-68666666D02*
X184904762Y-68714285D01*
X184952381Y-68857142D01*
X184952381Y-68952380D01*
X184904762Y-69095238D01*
X184809524Y-69190476D01*
X184714286Y-69238095D01*
X184523810Y-69285714D01*
X184380952Y-69285714D01*
X184190476Y-69238095D01*
X184095238Y-69190476D01*
X184000000Y-69095238D01*
X183952381Y-68952380D01*
X183952381Y-68857142D01*
X184000000Y-68714285D01*
X184047619Y-68666666D01*
X183952381Y-68333333D02*
X183952381Y-67714285D01*
X184333333Y-68047619D01*
X184333333Y-67904761D01*
X184380952Y-67809523D01*
X184428571Y-67761904D01*
X184523810Y-67714285D01*
X184761905Y-67714285D01*
X184857143Y-67761904D01*
X184904762Y-67809523D01*
X184952381Y-67904761D01*
X184952381Y-68190476D01*
X184904762Y-68285714D01*
X184857143Y-68333333D01*
X180857143Y-68666666D02*
X180904762Y-68714285D01*
X180952381Y-68857142D01*
X180952381Y-68952380D01*
X180904762Y-69095238D01*
X180809524Y-69190476D01*
X180714286Y-69238095D01*
X180523810Y-69285714D01*
X180380952Y-69285714D01*
X180190476Y-69238095D01*
X180095238Y-69190476D01*
X180000000Y-69095238D01*
X179952381Y-68952380D01*
X179952381Y-68857142D01*
X180000000Y-68714285D01*
X180047619Y-68666666D01*
X180285714Y-67809523D02*
X180952381Y-67809523D01*
X179904762Y-68047619D02*
X180619048Y-68285714D01*
X180619048Y-67666666D01*
X167036810Y-74404381D02*
X167036810Y-75118667D01*
X166989190Y-75261524D01*
X166893952Y-75356762D01*
X166751095Y-75404381D01*
X166655857Y-75404381D01*
X167513000Y-75023429D02*
X168274905Y-75023429D01*
X169227286Y-75404381D02*
X168751095Y-75404381D01*
X168751095Y-74404381D01*
X169560619Y-75404381D02*
X169560619Y-74737714D01*
X169560619Y-74404381D02*
X169513000Y-74452000D01*
X169560619Y-74499619D01*
X169608238Y-74452000D01*
X169560619Y-74404381D01*
X169560619Y-74499619D01*
X170036809Y-74737714D02*
X170036809Y-75404381D01*
X170036809Y-74832952D02*
X170084428Y-74785333D01*
X170179666Y-74737714D01*
X170322524Y-74737714D01*
X170417762Y-74785333D01*
X170465381Y-74880571D01*
X170465381Y-75404381D01*
X170941571Y-75404381D02*
X170941571Y-74404381D01*
X171036809Y-75023429D02*
X171322524Y-75404381D01*
X171322524Y-74737714D02*
X170941571Y-75118667D01*
X184352381Y-57642857D02*
X184352381Y-58119048D01*
X183352381Y-58119048D01*
X183828571Y-57309524D02*
X183828571Y-56976190D01*
X184352381Y-56833333D02*
X184352381Y-57309524D01*
X183352381Y-57309524D01*
X183352381Y-56833333D01*
X184352381Y-56404762D02*
X183352381Y-56404762D01*
X183352381Y-56166667D01*
X183400000Y-56023809D01*
X183495238Y-55928571D01*
X183590476Y-55880952D01*
X183780952Y-55833333D01*
X183923810Y-55833333D01*
X184114286Y-55880952D01*
X184209524Y-55928571D01*
X184304762Y-56023809D01*
X184352381Y-56166667D01*
X184352381Y-56404762D01*
X164393905Y-53891429D02*
X163593905Y-53891429D01*
X163593905Y-53586667D01*
X163632000Y-53510476D01*
X163670095Y-53472381D01*
X163746286Y-53434286D01*
X163860571Y-53434286D01*
X163936762Y-53472381D01*
X163974857Y-53510476D01*
X164012952Y-53586667D01*
X164012952Y-53891429D01*
X163670095Y-53129524D02*
X163632000Y-53091429D01*
X163593905Y-53015238D01*
X163593905Y-52824762D01*
X163632000Y-52748572D01*
X163670095Y-52710476D01*
X163746286Y-52672381D01*
X163822476Y-52672381D01*
X163936762Y-52710476D01*
X164393905Y-53167619D01*
X164393905Y-52672381D01*
X164393905Y-52291429D02*
X164393905Y-52139048D01*
X164355810Y-52062857D01*
X164317714Y-52024762D01*
X164203429Y-51948571D01*
X164051048Y-51910476D01*
X163746286Y-51910476D01*
X163670095Y-51948571D01*
X163632000Y-51986667D01*
X163593905Y-52062857D01*
X163593905Y-52215238D01*
X163632000Y-52291429D01*
X163670095Y-52329524D01*
X163746286Y-52367619D01*
X163936762Y-52367619D01*
X164012952Y-52329524D01*
X164051048Y-52291429D01*
X164089143Y-52215238D01*
X164089143Y-52062857D01*
X164051048Y-51986667D01*
X164012952Y-51948571D01*
X163936762Y-51910476D01*
X164393905Y-51351429D02*
X163593905Y-51351429D01*
X163593905Y-51046667D01*
X163632000Y-50970476D01*
X163670095Y-50932381D01*
X163746286Y-50894286D01*
X163860571Y-50894286D01*
X163936762Y-50932381D01*
X163974857Y-50970476D01*
X164012952Y-51046667D01*
X164012952Y-51351429D01*
X163670095Y-50589524D02*
X163632000Y-50551429D01*
X163593905Y-50475238D01*
X163593905Y-50284762D01*
X163632000Y-50208572D01*
X163670095Y-50170476D01*
X163746286Y-50132381D01*
X163822476Y-50132381D01*
X163936762Y-50170476D01*
X164393905Y-50627619D01*
X164393905Y-50132381D01*
X163936762Y-49675238D02*
X163898667Y-49751429D01*
X163860571Y-49789524D01*
X163784381Y-49827619D01*
X163746286Y-49827619D01*
X163670095Y-49789524D01*
X163632000Y-49751429D01*
X163593905Y-49675238D01*
X163593905Y-49522857D01*
X163632000Y-49446667D01*
X163670095Y-49408571D01*
X163746286Y-49370476D01*
X163784381Y-49370476D01*
X163860571Y-49408571D01*
X163898667Y-49446667D01*
X163936762Y-49522857D01*
X163936762Y-49675238D01*
X163974857Y-49751429D01*
X164012952Y-49789524D01*
X164089143Y-49827619D01*
X164241524Y-49827619D01*
X164317714Y-49789524D01*
X164355810Y-49751429D01*
X164393905Y-49675238D01*
X164393905Y-49522857D01*
X164355810Y-49446667D01*
X164317714Y-49408571D01*
X164241524Y-49370476D01*
X164089143Y-49370476D01*
X164012952Y-49408571D01*
X163974857Y-49446667D01*
X163936762Y-49522857D01*
X165536905Y-60546191D02*
X165155952Y-60812858D01*
X165536905Y-61003334D02*
X164736905Y-61003334D01*
X164736905Y-60698572D01*
X164775000Y-60622381D01*
X164813095Y-60584286D01*
X164889286Y-60546191D01*
X165003571Y-60546191D01*
X165079762Y-60584286D01*
X165117857Y-60622381D01*
X165155952Y-60698572D01*
X165155952Y-61003334D01*
X165498810Y-60241429D02*
X165536905Y-60127143D01*
X165536905Y-59936667D01*
X165498810Y-59860477D01*
X165460714Y-59822381D01*
X165384524Y-59784286D01*
X165308333Y-59784286D01*
X165232143Y-59822381D01*
X165194048Y-59860477D01*
X165155952Y-59936667D01*
X165117857Y-60089048D01*
X165079762Y-60165239D01*
X165041667Y-60203334D01*
X164965476Y-60241429D01*
X164889286Y-60241429D01*
X164813095Y-60203334D01*
X164775000Y-60165239D01*
X164736905Y-60089048D01*
X164736905Y-59898572D01*
X164775000Y-59784286D01*
X164813095Y-59479524D02*
X164775000Y-59441429D01*
X164736905Y-59365238D01*
X164736905Y-59174762D01*
X164775000Y-59098572D01*
X164813095Y-59060476D01*
X164889286Y-59022381D01*
X164965476Y-59022381D01*
X165079762Y-59060476D01*
X165536905Y-59517619D01*
X165536905Y-59022381D01*
X164736905Y-58755714D02*
X164736905Y-58260476D01*
X165041667Y-58527143D01*
X165041667Y-58412857D01*
X165079762Y-58336667D01*
X165117857Y-58298571D01*
X165194048Y-58260476D01*
X165384524Y-58260476D01*
X165460714Y-58298571D01*
X165498810Y-58336667D01*
X165536905Y-58412857D01*
X165536905Y-58641429D01*
X165498810Y-58717619D01*
X165460714Y-58755714D01*
X164813095Y-57955714D02*
X164775000Y-57917619D01*
X164736905Y-57841428D01*
X164736905Y-57650952D01*
X164775000Y-57574762D01*
X164813095Y-57536666D01*
X164889286Y-57498571D01*
X164965476Y-57498571D01*
X165079762Y-57536666D01*
X165536905Y-57993809D01*
X165536905Y-57498571D01*
X164609905Y-67620143D02*
X164609905Y-67163000D01*
X165409905Y-67391571D02*
X164609905Y-67391571D01*
X164609905Y-67010619D02*
X164609905Y-66553476D01*
X165409905Y-66782047D02*
X164609905Y-66782047D01*
X165409905Y-65905856D02*
X165409905Y-66286809D01*
X164609905Y-66286809D01*
X163561905Y-58609524D02*
X163561905Y-58152381D01*
X164361905Y-58380952D02*
X163561905Y-58380952D01*
X163561905Y-57961904D02*
X164361905Y-57428571D01*
X163561905Y-57428571D02*
X164361905Y-57961904D01*
X164361905Y-60673333D02*
X163980952Y-60940000D01*
X164361905Y-61130476D02*
X163561905Y-61130476D01*
X163561905Y-60825714D01*
X163600000Y-60749523D01*
X163638095Y-60711428D01*
X163714286Y-60673333D01*
X163828571Y-60673333D01*
X163904762Y-60711428D01*
X163942857Y-60749523D01*
X163980952Y-60825714D01*
X163980952Y-61130476D01*
X163561905Y-60406666D02*
X164361905Y-59873333D01*
X163561905Y-59873333D02*
X164361905Y-60406666D01*
X164393905Y-68293333D02*
X164012952Y-68560000D01*
X164393905Y-68750476D02*
X163593905Y-68750476D01*
X163593905Y-68445714D01*
X163632000Y-68369523D01*
X163670095Y-68331428D01*
X163746286Y-68293333D01*
X163860571Y-68293333D01*
X163936762Y-68331428D01*
X163974857Y-68369523D01*
X164012952Y-68445714D01*
X164012952Y-68750476D01*
X163593905Y-68026666D02*
X164393905Y-67493333D01*
X163593905Y-67493333D02*
X164393905Y-68026666D01*
X163593905Y-66229524D02*
X163593905Y-65772381D01*
X164393905Y-66000952D02*
X163593905Y-66000952D01*
X163593905Y-65581904D02*
X164393905Y-65048571D01*
X163593905Y-65048571D02*
X164393905Y-65581904D01*
X164361905Y-73011428D02*
X164361905Y-73468571D01*
X164361905Y-73240000D02*
X163561905Y-73240000D01*
X163676190Y-73316190D01*
X163752381Y-73392381D01*
X163790476Y-73468571D01*
X163561905Y-75818095D02*
X163561905Y-75741904D01*
X163600000Y-75665714D01*
X163638095Y-75627619D01*
X163714286Y-75589523D01*
X163866667Y-75551428D01*
X164057143Y-75551428D01*
X164209524Y-75589523D01*
X164285714Y-75627619D01*
X164323810Y-75665714D01*
X164361905Y-75741904D01*
X164361905Y-75818095D01*
X164323810Y-75894285D01*
X164285714Y-75932381D01*
X164209524Y-75970476D01*
X164057143Y-76008571D01*
X163866667Y-76008571D01*
X163714286Y-75970476D01*
X163638095Y-75932381D01*
X163600000Y-75894285D01*
X163561905Y-75818095D01*
X164361905Y-46119047D02*
X163561905Y-46119047D01*
X163561905Y-45928571D01*
X163600000Y-45814285D01*
X163676190Y-45738094D01*
X163752381Y-45699999D01*
X163904762Y-45661904D01*
X164019048Y-45661904D01*
X164171429Y-45699999D01*
X164247619Y-45738094D01*
X164323810Y-45814285D01*
X164361905Y-45928571D01*
X164361905Y-46119047D01*
X164361905Y-45319047D02*
X163561905Y-45319047D01*
X163561905Y-44785714D02*
X163561905Y-44633333D01*
X163600000Y-44557142D01*
X163676190Y-44480952D01*
X163828571Y-44442857D01*
X164095238Y-44442857D01*
X164247619Y-44480952D01*
X164323810Y-44557142D01*
X164361905Y-44633333D01*
X164361905Y-44785714D01*
X164323810Y-44861904D01*
X164247619Y-44938095D01*
X164095238Y-44976190D01*
X163828571Y-44976190D01*
X163676190Y-44938095D01*
X163600000Y-44861904D01*
X163561905Y-44785714D01*
X164285714Y-48316190D02*
X164323810Y-48354285D01*
X164361905Y-48468571D01*
X164361905Y-48544761D01*
X164323810Y-48659047D01*
X164247619Y-48735238D01*
X164171429Y-48773333D01*
X164019048Y-48811428D01*
X163904762Y-48811428D01*
X163752381Y-48773333D01*
X163676190Y-48735238D01*
X163600000Y-48659047D01*
X163561905Y-48544761D01*
X163561905Y-48468571D01*
X163600000Y-48354285D01*
X163638095Y-48316190D01*
X164361905Y-47592380D02*
X164361905Y-47973333D01*
X163561905Y-47973333D01*
X164361905Y-47325714D02*
X163561905Y-47325714D01*
X164361905Y-46868571D02*
X163904762Y-47211428D01*
X163561905Y-46868571D02*
X164019048Y-47325714D01*
M02*
