G04 #@! TF.FileFunction,Copper,L2,Bot,Signal*
%FSLAX46Y46*%
G04 Gerber Fmt 4.6, Leading zero omitted, Abs format (unit mm)*
G04 Created by KiCad (PCBNEW (2015-01-02 BZR 5348)-product) date 1/7/2015 6:05:39 PM*
%MOMM*%
G01*
G04 APERTURE LIST*
%ADD10C,0.150000*%
%ADD11C,0.200000*%
%ADD12R,3.600000X3.000000*%
%ADD13R,1.500000X1.250000*%
%ADD14R,0.600000X1.500000*%
%ADD15C,1.100000*%
%ADD16R,2.032000X1.727200*%
%ADD17O,2.032000X1.727200*%
%ADD18C,0.610000*%
%ADD19C,0.620000*%
%ADD20C,0.152400*%
%ADD21C,0.203000*%
%ADD22C,0.160000*%
G04 APERTURE END LIST*
D10*
D11*
X172809524Y-36952381D02*
X172809524Y-36285714D01*
X172809524Y-36380952D02*
X172761905Y-36333333D01*
X172666667Y-36285714D01*
X172523809Y-36285714D01*
X172428571Y-36333333D01*
X172380952Y-36428571D01*
X172380952Y-36952381D01*
X172380952Y-36428571D02*
X172333333Y-36333333D01*
X172238095Y-36285714D01*
X172095238Y-36285714D01*
X172000000Y-36333333D01*
X171952381Y-36428571D01*
X171952381Y-36952381D01*
X171047619Y-36952381D02*
X171047619Y-36428571D01*
X171095238Y-36333333D01*
X171190476Y-36285714D01*
X171380953Y-36285714D01*
X171476191Y-36333333D01*
X171047619Y-36904762D02*
X171142857Y-36952381D01*
X171380953Y-36952381D01*
X171476191Y-36904762D01*
X171523810Y-36809524D01*
X171523810Y-36714286D01*
X171476191Y-36619048D01*
X171380953Y-36571429D01*
X171142857Y-36571429D01*
X171047619Y-36523810D01*
X170571429Y-36952381D02*
X170571429Y-36285714D01*
X170571429Y-36476190D02*
X170523810Y-36380952D01*
X170476191Y-36333333D01*
X170380953Y-36285714D01*
X170285714Y-36285714D01*
X169952381Y-36952381D02*
X169952381Y-35952381D01*
X169857143Y-36571429D02*
X169571428Y-36952381D01*
X169571428Y-36285714D02*
X169952381Y-36666667D01*
X168523809Y-36476190D02*
X168571428Y-36428571D01*
X168666666Y-36380952D01*
X168761904Y-36380952D01*
X168857142Y-36428571D01*
X168904762Y-36476190D01*
X168952381Y-36571429D01*
X168952381Y-36666667D01*
X168904762Y-36761905D01*
X168857142Y-36809524D01*
X168761904Y-36857143D01*
X168666666Y-36857143D01*
X168571428Y-36809524D01*
X168523809Y-36761905D01*
X168523809Y-36380952D02*
X168523809Y-36761905D01*
X168476190Y-36809524D01*
X168428571Y-36809524D01*
X168333333Y-36761905D01*
X168285714Y-36666667D01*
X168285714Y-36428571D01*
X168380952Y-36285714D01*
X168523809Y-36190476D01*
X168714285Y-36142857D01*
X168904762Y-36190476D01*
X169047619Y-36285714D01*
X169142857Y-36428571D01*
X169190476Y-36619048D01*
X169142857Y-36809524D01*
X169047619Y-36952381D01*
X168904762Y-37047619D01*
X168714285Y-37095238D01*
X168523809Y-37047619D01*
X168380952Y-36952381D01*
X167857143Y-36952381D02*
X167857143Y-35952381D01*
X167857143Y-36333333D02*
X167761905Y-36285714D01*
X167571428Y-36285714D01*
X167476190Y-36333333D01*
X167428571Y-36380952D01*
X167380952Y-36476190D01*
X167380952Y-36761905D01*
X167428571Y-36857143D01*
X167476190Y-36904762D01*
X167571428Y-36952381D01*
X167761905Y-36952381D01*
X167857143Y-36904762D01*
X166523809Y-36952381D02*
X166523809Y-36428571D01*
X166571428Y-36333333D01*
X166666666Y-36285714D01*
X166857143Y-36285714D01*
X166952381Y-36333333D01*
X166523809Y-36904762D02*
X166619047Y-36952381D01*
X166857143Y-36952381D01*
X166952381Y-36904762D01*
X167000000Y-36809524D01*
X167000000Y-36714286D01*
X166952381Y-36619048D01*
X166857143Y-36571429D01*
X166619047Y-36571429D01*
X166523809Y-36523810D01*
X166095238Y-36904762D02*
X166000000Y-36952381D01*
X165809524Y-36952381D01*
X165714285Y-36904762D01*
X165666666Y-36809524D01*
X165666666Y-36761905D01*
X165714285Y-36666667D01*
X165809524Y-36619048D01*
X165952381Y-36619048D01*
X166047619Y-36571429D01*
X166095238Y-36476190D01*
X166095238Y-36428571D01*
X166047619Y-36333333D01*
X165952381Y-36285714D01*
X165809524Y-36285714D01*
X165714285Y-36333333D01*
X164857142Y-36904762D02*
X164952380Y-36952381D01*
X165142857Y-36952381D01*
X165238095Y-36904762D01*
X165285714Y-36809524D01*
X165285714Y-36428571D01*
X165238095Y-36333333D01*
X165142857Y-36285714D01*
X164952380Y-36285714D01*
X164857142Y-36333333D01*
X164809523Y-36428571D01*
X164809523Y-36523810D01*
X165285714Y-36619048D01*
X163952380Y-36285714D02*
X163952380Y-37095238D01*
X163999999Y-37190476D01*
X164047618Y-37238095D01*
X164142857Y-37285714D01*
X164285714Y-37285714D01*
X164380952Y-37238095D01*
X163952380Y-36904762D02*
X164047618Y-36952381D01*
X164238095Y-36952381D01*
X164333333Y-36904762D01*
X164380952Y-36857143D01*
X164428571Y-36761905D01*
X164428571Y-36476190D01*
X164380952Y-36380952D01*
X164333333Y-36333333D01*
X164238095Y-36285714D01*
X164047618Y-36285714D01*
X163952380Y-36333333D01*
X163047618Y-36285714D02*
X163047618Y-37095238D01*
X163095237Y-37190476D01*
X163142856Y-37238095D01*
X163238095Y-37285714D01*
X163380952Y-37285714D01*
X163476190Y-37238095D01*
X163047618Y-36904762D02*
X163142856Y-36952381D01*
X163333333Y-36952381D01*
X163428571Y-36904762D01*
X163476190Y-36857143D01*
X163523809Y-36761905D01*
X163523809Y-36476190D01*
X163476190Y-36380952D01*
X163428571Y-36333333D01*
X163333333Y-36285714D01*
X163142856Y-36285714D01*
X163047618Y-36333333D01*
X162571428Y-36857143D02*
X162523809Y-36904762D01*
X162571428Y-36952381D01*
X162619047Y-36904762D01*
X162571428Y-36857143D01*
X162571428Y-36952381D01*
X162095238Y-36952381D02*
X162095238Y-36285714D01*
X162095238Y-35952381D02*
X162142857Y-36000000D01*
X162095238Y-36047619D01*
X162047619Y-36000000D01*
X162095238Y-35952381D01*
X162095238Y-36047619D01*
X161476191Y-36952381D02*
X161571429Y-36904762D01*
X161619048Y-36857143D01*
X161666667Y-36761905D01*
X161666667Y-36476190D01*
X161619048Y-36380952D01*
X161571429Y-36333333D01*
X161476191Y-36285714D01*
X161333333Y-36285714D01*
X161238095Y-36333333D01*
X161190476Y-36380952D01*
X161142857Y-36476190D01*
X161142857Y-36761905D01*
X161190476Y-36857143D01*
X161238095Y-36904762D01*
X161333333Y-36952381D01*
X161476191Y-36952381D01*
D12*
X173500000Y-39850000D03*
X173500000Y-69150000D03*
D13*
X177750000Y-70000000D03*
X180250000Y-70000000D03*
X185750000Y-70000000D03*
X183250000Y-70000000D03*
D14*
X177555000Y-72800000D03*
X178825000Y-72800000D03*
X180095000Y-72800000D03*
X181365000Y-72800000D03*
X182635000Y-72800000D03*
X183905000Y-72800000D03*
X185175000Y-72800000D03*
X186445000Y-72800000D03*
X186445000Y-78200000D03*
X185175000Y-78200000D03*
X183905000Y-78200000D03*
X182635000Y-78200000D03*
X181365000Y-78200000D03*
X180095000Y-78200000D03*
X178825000Y-78200000D03*
X177555000Y-78200000D03*
D15*
X166600000Y-78000000D03*
X166600000Y-76730000D03*
X167870000Y-78000000D03*
X167870000Y-76730000D03*
X169140000Y-78000000D03*
X169140000Y-76730000D03*
X170410000Y-78000000D03*
X170410000Y-76730000D03*
X171680000Y-78000000D03*
X171680000Y-76730000D03*
D16*
X162000000Y-75780000D03*
D17*
X162000000Y-73240000D03*
X162000000Y-70700000D03*
X162000000Y-68160000D03*
X162000000Y-65620000D03*
X162000000Y-63080000D03*
X162000000Y-60540000D03*
X162000000Y-58000000D03*
X162000000Y-55460000D03*
X162000000Y-52920000D03*
X162000000Y-50380000D03*
X162000000Y-47840000D03*
X162000000Y-45300000D03*
X162000000Y-42760000D03*
X162000000Y-40220000D03*
D18*
X170100000Y-57250000D03*
D19*
X176530000Y-50800000D03*
X166709410Y-73950000D03*
X176530000Y-44902755D03*
X172900000Y-60100000D03*
X172900000Y-61900000D03*
X172156780Y-72996780D03*
X178998230Y-66548230D03*
X177500000Y-62500000D03*
X182701782Y-49201782D03*
X183910590Y-54650000D03*
X183900000Y-65400000D03*
X172600000Y-44200000D03*
X166616685Y-47840000D03*
X182000000Y-44900000D03*
X180650000Y-42700000D03*
X183600000Y-50500000D03*
X165150000Y-71700000D03*
X181350000Y-71400000D03*
X182650000Y-71400000D03*
X179000000Y-69000000D03*
X172900000Y-50500000D03*
X173850000Y-52850000D03*
D20*
X163820000Y-64940000D02*
X164910000Y-64940000D01*
D21*
X173420000Y-39930000D02*
X166170000Y-39930000D01*
X173500000Y-39850000D02*
X173420000Y-39930000D01*
X166170000Y-39930000D02*
X163300000Y-42800000D01*
X163300000Y-42800000D02*
X162000000Y-42800000D01*
X162000000Y-42800000D02*
X162000000Y-42760000D01*
X173800000Y-39850000D02*
X174280000Y-39370000D01*
X173500000Y-39850000D02*
X173800000Y-39850000D01*
X174280000Y-39370000D02*
X176530000Y-39370000D01*
X167107999Y-78507999D02*
X166600000Y-78000000D01*
X167412701Y-78812701D02*
X167107999Y-78507999D01*
X177137299Y-78812701D02*
X167412701Y-78812701D01*
X177555000Y-78395000D02*
X177137299Y-78812701D01*
X177555000Y-78200000D02*
X177555000Y-78395000D01*
X166092001Y-77492001D02*
X166600000Y-78000000D01*
X165787299Y-77187299D02*
X166092001Y-77492001D01*
X165787299Y-74872111D02*
X165787299Y-77187299D01*
X166709410Y-73950000D02*
X165787299Y-74872111D01*
X176530000Y-44902755D02*
X176530000Y-50800000D01*
X176530000Y-39370000D02*
X176530000Y-44902755D01*
D20*
X172900000Y-60100000D02*
X172900000Y-61900000D01*
D22*
X162920859Y-76140000D02*
X162900000Y-76140000D01*
D20*
X163168400Y-75780000D02*
X165948400Y-73000000D01*
X162000000Y-75780000D02*
X163168400Y-75780000D01*
X165948400Y-73000000D02*
X172153560Y-73000000D01*
X172153560Y-73000000D02*
X172156780Y-72996780D01*
X178559824Y-66548230D02*
X178998230Y-66548230D01*
X168844170Y-66548230D02*
X178559824Y-66548230D01*
X162152400Y-73240000D02*
X168844170Y-66548230D01*
X162000000Y-73240000D02*
X162152400Y-73240000D01*
X178998230Y-66548230D02*
X178998230Y-63998230D01*
X178998230Y-63998230D02*
X177809999Y-62809999D01*
X177809999Y-62809999D02*
X177500000Y-62500000D01*
X183900000Y-65400000D02*
X184140000Y-65640000D01*
X184140000Y-65640000D02*
X184140000Y-69095599D01*
X184140000Y-69095599D02*
X182276479Y-69095599D01*
X182276479Y-69095599D02*
X182220599Y-69151479D01*
X182220599Y-69151479D02*
X182220599Y-70789401D01*
X182220599Y-70789401D02*
X181944401Y-71065599D01*
X181944401Y-71065599D02*
X181944401Y-76607001D01*
X181944401Y-76607001D02*
X182635000Y-77297600D01*
X182635000Y-77297600D02*
X182635000Y-78200000D01*
X162000000Y-68160000D02*
X162610000Y-67550000D01*
X162610000Y-67550000D02*
X164150000Y-67550000D01*
X164150000Y-67550000D02*
X182034269Y-49665731D01*
X182237833Y-49665731D02*
X182391783Y-49511781D01*
X182034269Y-49665731D02*
X182237833Y-49665731D01*
X182391783Y-49511781D02*
X182701782Y-49201782D01*
X182034269Y-49665731D02*
X182810000Y-50441462D01*
X182810000Y-50441462D02*
X182810000Y-50890000D01*
X182810000Y-50890000D02*
X183910590Y-51990590D01*
X183910590Y-51990590D02*
X183910590Y-54650000D01*
X168960000Y-47840000D02*
X172290001Y-44509999D01*
X172290001Y-44509999D02*
X172600000Y-44200000D01*
X166616685Y-47840000D02*
X168960000Y-47840000D01*
X162000000Y-47840000D02*
X166616685Y-47840000D01*
X182000000Y-44900000D02*
X180650000Y-43550000D01*
X180650000Y-43550000D02*
X180650000Y-43138406D01*
X180650000Y-43138406D02*
X180650000Y-42700000D01*
X183600000Y-50061594D02*
X183600000Y-50500000D01*
X162000000Y-65620000D02*
X162152400Y-65620000D01*
X162152400Y-65620000D02*
X163582400Y-67050000D01*
X182559401Y-48510599D02*
X182882913Y-48510599D01*
X163582400Y-67050000D02*
X164020000Y-67050000D01*
X164020000Y-67050000D02*
X182559401Y-48510599D01*
X183600000Y-49227686D02*
X183600000Y-50061594D01*
X182882913Y-48510599D02*
X183600000Y-49227686D01*
X184500000Y-76702600D02*
X183905000Y-77297600D01*
X183905000Y-77297600D02*
X183905000Y-78200000D01*
X184500000Y-51400000D02*
X184500000Y-76702600D01*
X183600000Y-50500000D02*
X184500000Y-51400000D01*
D21*
X173500000Y-76180000D02*
X171680000Y-78000000D01*
X173500000Y-69150000D02*
X173500000Y-76180000D01*
D20*
X181365000Y-78650000D02*
X181365000Y-78200000D01*
X180785599Y-79229401D02*
X181365000Y-78650000D01*
X163066879Y-79229401D02*
X180785599Y-79229401D01*
X160704599Y-76867121D02*
X163066879Y-79229401D01*
X160704599Y-60667001D02*
X160704599Y-76867121D01*
X160831600Y-60540000D02*
X160704599Y-60667001D01*
X162000000Y-60540000D02*
X160831600Y-60540000D01*
X165150000Y-71700000D02*
X165150000Y-70820000D01*
X165150000Y-70820000D02*
X169000000Y-66970000D01*
X169000000Y-66970000D02*
X176440000Y-66970000D01*
X176440000Y-66970000D02*
X176440000Y-74095000D01*
X176440000Y-74095000D02*
X180095000Y-77750000D01*
X180095000Y-77750000D02*
X180095000Y-78200000D01*
X177750000Y-72605000D02*
X177555000Y-72800000D01*
X177750000Y-70000000D02*
X177750000Y-72605000D01*
X180250000Y-72645000D02*
X180095000Y-72800000D01*
X180250000Y-70000000D02*
X180250000Y-72645000D01*
X181350000Y-72785000D02*
X181365000Y-72800000D01*
X181350000Y-71400000D02*
X181350000Y-72785000D01*
X182635000Y-72800000D02*
X182635000Y-71415000D01*
X182635000Y-71415000D02*
X182650000Y-71400000D01*
X179000000Y-72625000D02*
X178825000Y-72800000D01*
X179000000Y-69000000D02*
X179000000Y-72625000D01*
X183250000Y-70000000D02*
X183250000Y-70777400D01*
X183250000Y-70777400D02*
X183905000Y-71432400D01*
X183905000Y-71432400D02*
X183905000Y-71897600D01*
X183905000Y-71897600D02*
X183905000Y-72800000D01*
X162000000Y-50380000D02*
X163130000Y-51510000D01*
X163130000Y-51510000D02*
X171890000Y-51510000D01*
X171890000Y-51510000D02*
X172900000Y-50500000D01*
X162000000Y-52920000D02*
X163040000Y-51880000D01*
X163040000Y-51880000D02*
X172880000Y-51880000D01*
X172880000Y-51880000D02*
X173850000Y-52850000D01*
G36*
X169872050Y-77365084D02*
X169734849Y-77502046D01*
X169695925Y-77484804D01*
X169180729Y-78000000D01*
X169194871Y-78014142D01*
X169154142Y-78054871D01*
X169140000Y-78040729D01*
X169125857Y-78054871D01*
X169085128Y-78014142D01*
X169099271Y-78000000D01*
X168584075Y-77484804D01*
X168505000Y-77519831D01*
X168425925Y-77484804D01*
X167910729Y-78000000D01*
X167924871Y-78014142D01*
X167884142Y-78054871D01*
X167870000Y-78040729D01*
X167855857Y-78054871D01*
X167815128Y-78014142D01*
X167829271Y-78000000D01*
X167314075Y-77484804D01*
X167274936Y-77502141D01*
X167137949Y-77364915D01*
X167235084Y-77267949D01*
X167372046Y-77405150D01*
X167354804Y-77444075D01*
X167870000Y-77959271D01*
X168385196Y-77444075D01*
X168367858Y-77404936D01*
X168505084Y-77267949D01*
X168642046Y-77405150D01*
X168624804Y-77444075D01*
X169140000Y-77959271D01*
X169655196Y-77444075D01*
X169637858Y-77404936D01*
X169775084Y-77267949D01*
X169872050Y-77365084D01*
X169872050Y-77365084D01*
G37*
X169872050Y-77365084D02*
X169734849Y-77502046D01*
X169695925Y-77484804D01*
X169180729Y-78000000D01*
X169194871Y-78014142D01*
X169154142Y-78054871D01*
X169140000Y-78040729D01*
X169125857Y-78054871D01*
X169085128Y-78014142D01*
X169099271Y-78000000D01*
X168584075Y-77484804D01*
X168505000Y-77519831D01*
X168425925Y-77484804D01*
X167910729Y-78000000D01*
X167924871Y-78014142D01*
X167884142Y-78054871D01*
X167870000Y-78040729D01*
X167855857Y-78054871D01*
X167815128Y-78014142D01*
X167829271Y-78000000D01*
X167314075Y-77484804D01*
X167274936Y-77502141D01*
X167137949Y-77364915D01*
X167235084Y-77267949D01*
X167372046Y-77405150D01*
X167354804Y-77444075D01*
X167870000Y-77959271D01*
X168385196Y-77444075D01*
X168367858Y-77404936D01*
X168505084Y-77267949D01*
X168642046Y-77405150D01*
X168624804Y-77444075D01*
X169140000Y-77959271D01*
X169655196Y-77444075D01*
X169637858Y-77404936D01*
X169775084Y-77267949D01*
X169872050Y-77365084D01*
G36*
X179510126Y-78873801D02*
X179381200Y-78873801D01*
X179381200Y-78292850D01*
X179317150Y-78228800D01*
X178853800Y-78228800D01*
X178853800Y-78248800D01*
X178796200Y-78248800D01*
X178796200Y-78228800D01*
X178796200Y-78171200D01*
X178796200Y-77257850D01*
X178732150Y-77193800D01*
X178575961Y-77193800D01*
X178474038Y-77193800D01*
X178379874Y-77232804D01*
X178307804Y-77304875D01*
X178268800Y-77399039D01*
X178268800Y-78107150D01*
X178332850Y-78171200D01*
X178796200Y-78171200D01*
X178796200Y-78228800D01*
X178332850Y-78228800D01*
X178268800Y-78292850D01*
X178268800Y-78873801D01*
X178139874Y-78873801D01*
X178139874Y-77450000D01*
X178119204Y-77343466D01*
X178057696Y-77249832D01*
X177964842Y-77187154D01*
X177855000Y-77165126D01*
X177255000Y-77165126D01*
X177148466Y-77185796D01*
X177054832Y-77247304D01*
X176992154Y-77340158D01*
X176970126Y-77450000D01*
X176970126Y-78431801D01*
X175556200Y-78431801D01*
X175556200Y-70700962D01*
X175556200Y-70599039D01*
X175556200Y-69242850D01*
X175556200Y-69057150D01*
X175556200Y-67700961D01*
X175556200Y-67599038D01*
X175517196Y-67504874D01*
X175445125Y-67432804D01*
X175350961Y-67393800D01*
X173592850Y-67393800D01*
X173528800Y-67457850D01*
X173528800Y-69121200D01*
X175492150Y-69121200D01*
X175556200Y-69057150D01*
X175556200Y-69242850D01*
X175492150Y-69178800D01*
X173528800Y-69178800D01*
X173528800Y-70842150D01*
X173592850Y-70906200D01*
X175350961Y-70906200D01*
X175445125Y-70867196D01*
X175517196Y-70795126D01*
X175556200Y-70700962D01*
X175556200Y-78431801D01*
X173471200Y-78431801D01*
X173471200Y-70842150D01*
X173471200Y-69178800D01*
X173471200Y-69121200D01*
X173471200Y-67457850D01*
X173407150Y-67393800D01*
X171649039Y-67393800D01*
X171554875Y-67432804D01*
X171482804Y-67504874D01*
X171443800Y-67599038D01*
X171443800Y-67700961D01*
X171443800Y-69057150D01*
X171507850Y-69121200D01*
X173471200Y-69121200D01*
X173471200Y-69178800D01*
X171507850Y-69178800D01*
X171443800Y-69242850D01*
X171443800Y-70599039D01*
X171443800Y-70700962D01*
X171482804Y-70795126D01*
X171554875Y-70867196D01*
X171649039Y-70906200D01*
X173407150Y-70906200D01*
X173471200Y-70842150D01*
X173471200Y-78431801D01*
X172373162Y-78431801D01*
X172485515Y-78163769D01*
X172486870Y-77843046D01*
X172365387Y-77546217D01*
X172361527Y-77540441D01*
X172235925Y-77484804D01*
X171720729Y-78000000D01*
X171734871Y-78014142D01*
X171694142Y-78054871D01*
X171680000Y-78040729D01*
X171665857Y-78054871D01*
X171625128Y-78014142D01*
X171639271Y-78000000D01*
X171124075Y-77484804D01*
X171084936Y-77502141D01*
X170947949Y-77364915D01*
X171045084Y-77267949D01*
X171182046Y-77405150D01*
X171164804Y-77444075D01*
X171680000Y-77959271D01*
X172195196Y-77444075D01*
X172177858Y-77404936D01*
X172382721Y-77200431D01*
X172509256Y-76895702D01*
X172509544Y-76565746D01*
X172383541Y-76260796D01*
X172150431Y-76027279D01*
X171845702Y-75900744D01*
X171515746Y-75900456D01*
X171210796Y-76026459D01*
X171044915Y-76192050D01*
X170880431Y-76027279D01*
X170575702Y-75900744D01*
X170245746Y-75900456D01*
X169940796Y-76026459D01*
X169774915Y-76192050D01*
X169610431Y-76027279D01*
X169305702Y-75900744D01*
X168975746Y-75900456D01*
X168670796Y-76026459D01*
X168504915Y-76192050D01*
X168340431Y-76027279D01*
X168035702Y-75900744D01*
X167705746Y-75900456D01*
X167400796Y-76026459D01*
X167234915Y-76192050D01*
X167070431Y-76027279D01*
X166765702Y-75900744D01*
X166435746Y-75900456D01*
X166168199Y-76011004D01*
X166168199Y-75029885D01*
X166658728Y-74539355D01*
X166826135Y-74539502D01*
X167042842Y-74449960D01*
X167208788Y-74284304D01*
X167298707Y-74067753D01*
X167298912Y-73833275D01*
X167209370Y-73616568D01*
X167043714Y-73450622D01*
X166827163Y-73360703D01*
X166592685Y-73360498D01*
X166375978Y-73450040D01*
X166210032Y-73615696D01*
X166120113Y-73832247D01*
X166119965Y-74000770D01*
X165517962Y-74602774D01*
X165435393Y-74726347D01*
X165406399Y-74872111D01*
X165406399Y-77187299D01*
X165435393Y-77333063D01*
X165517962Y-77456636D01*
X165807384Y-77746058D01*
X165770744Y-77834298D01*
X165770456Y-78164254D01*
X165896459Y-78469204D01*
X166129569Y-78702721D01*
X166434298Y-78829256D01*
X166764254Y-78829544D01*
X166853849Y-78792523D01*
X166935127Y-78873801D01*
X163214172Y-78873801D01*
X161268846Y-76928474D01*
X163016000Y-76928474D01*
X163122534Y-76907804D01*
X163216168Y-76846296D01*
X163278846Y-76753442D01*
X163300874Y-76643600D01*
X163300874Y-76109249D01*
X163304482Y-76108532D01*
X163304483Y-76108532D01*
X163419847Y-76031447D01*
X166095694Y-73355600D01*
X171682163Y-73355600D01*
X171822476Y-73496158D01*
X172039027Y-73586077D01*
X172273505Y-73586282D01*
X172490212Y-73496740D01*
X172656158Y-73331084D01*
X172746077Y-73114533D01*
X172746282Y-72880055D01*
X172656740Y-72663348D01*
X172491084Y-72497402D01*
X172274533Y-72407483D01*
X172040055Y-72407278D01*
X171823348Y-72496820D01*
X171675509Y-72644400D01*
X165948400Y-72644400D01*
X165812318Y-72671468D01*
X165696953Y-72748553D01*
X163300874Y-75144632D01*
X163300874Y-74916400D01*
X163280204Y-74809866D01*
X163218696Y-74716232D01*
X163125842Y-74653554D01*
X163016000Y-74631526D01*
X161060199Y-74631526D01*
X161060199Y-74079092D01*
X161384815Y-74295994D01*
X161822222Y-74383000D01*
X162177778Y-74383000D01*
X162615185Y-74295994D01*
X162986001Y-74048223D01*
X163233772Y-73677407D01*
X163320778Y-73240000D01*
X163233772Y-72802593D01*
X163177266Y-72718027D01*
X164794400Y-71100894D01*
X164794400Y-71222169D01*
X164650622Y-71365696D01*
X164560703Y-71582247D01*
X164560498Y-71816725D01*
X164650040Y-72033432D01*
X164815696Y-72199378D01*
X165032247Y-72289297D01*
X165266725Y-72289502D01*
X165483432Y-72199960D01*
X165649378Y-72034304D01*
X165739297Y-71817753D01*
X165739502Y-71583275D01*
X165649960Y-71366568D01*
X165505600Y-71221955D01*
X165505600Y-70967294D01*
X169147294Y-67325600D01*
X176084400Y-67325600D01*
X176084400Y-74095000D01*
X176111468Y-74231083D01*
X176188553Y-74346447D01*
X179035906Y-77193800D01*
X178917850Y-77193800D01*
X178853800Y-77257850D01*
X178853800Y-78171200D01*
X179317150Y-78171200D01*
X179381200Y-78107150D01*
X179381200Y-77539094D01*
X179510126Y-77668020D01*
X179510126Y-78873801D01*
X179510126Y-78873801D01*
G37*
X179510126Y-78873801D02*
X179381200Y-78873801D01*
X179381200Y-78292850D01*
X179317150Y-78228800D01*
X178853800Y-78228800D01*
X178853800Y-78248800D01*
X178796200Y-78248800D01*
X178796200Y-78228800D01*
X178796200Y-78171200D01*
X178796200Y-77257850D01*
X178732150Y-77193800D01*
X178575961Y-77193800D01*
X178474038Y-77193800D01*
X178379874Y-77232804D01*
X178307804Y-77304875D01*
X178268800Y-77399039D01*
X178268800Y-78107150D01*
X178332850Y-78171200D01*
X178796200Y-78171200D01*
X178796200Y-78228800D01*
X178332850Y-78228800D01*
X178268800Y-78292850D01*
X178268800Y-78873801D01*
X178139874Y-78873801D01*
X178139874Y-77450000D01*
X178119204Y-77343466D01*
X178057696Y-77249832D01*
X177964842Y-77187154D01*
X177855000Y-77165126D01*
X177255000Y-77165126D01*
X177148466Y-77185796D01*
X177054832Y-77247304D01*
X176992154Y-77340158D01*
X176970126Y-77450000D01*
X176970126Y-78431801D01*
X175556200Y-78431801D01*
X175556200Y-70700962D01*
X175556200Y-70599039D01*
X175556200Y-69242850D01*
X175556200Y-69057150D01*
X175556200Y-67700961D01*
X175556200Y-67599038D01*
X175517196Y-67504874D01*
X175445125Y-67432804D01*
X175350961Y-67393800D01*
X173592850Y-67393800D01*
X173528800Y-67457850D01*
X173528800Y-69121200D01*
X175492150Y-69121200D01*
X175556200Y-69057150D01*
X175556200Y-69242850D01*
X175492150Y-69178800D01*
X173528800Y-69178800D01*
X173528800Y-70842150D01*
X173592850Y-70906200D01*
X175350961Y-70906200D01*
X175445125Y-70867196D01*
X175517196Y-70795126D01*
X175556200Y-70700962D01*
X175556200Y-78431801D01*
X173471200Y-78431801D01*
X173471200Y-70842150D01*
X173471200Y-69178800D01*
X173471200Y-69121200D01*
X173471200Y-67457850D01*
X173407150Y-67393800D01*
X171649039Y-67393800D01*
X171554875Y-67432804D01*
X171482804Y-67504874D01*
X171443800Y-67599038D01*
X171443800Y-67700961D01*
X171443800Y-69057150D01*
X171507850Y-69121200D01*
X173471200Y-69121200D01*
X173471200Y-69178800D01*
X171507850Y-69178800D01*
X171443800Y-69242850D01*
X171443800Y-70599039D01*
X171443800Y-70700962D01*
X171482804Y-70795126D01*
X171554875Y-70867196D01*
X171649039Y-70906200D01*
X173407150Y-70906200D01*
X173471200Y-70842150D01*
X173471200Y-78431801D01*
X172373162Y-78431801D01*
X172485515Y-78163769D01*
X172486870Y-77843046D01*
X172365387Y-77546217D01*
X172361527Y-77540441D01*
X172235925Y-77484804D01*
X171720729Y-78000000D01*
X171734871Y-78014142D01*
X171694142Y-78054871D01*
X171680000Y-78040729D01*
X171665857Y-78054871D01*
X171625128Y-78014142D01*
X171639271Y-78000000D01*
X171124075Y-77484804D01*
X171084936Y-77502141D01*
X170947949Y-77364915D01*
X171045084Y-77267949D01*
X171182046Y-77405150D01*
X171164804Y-77444075D01*
X171680000Y-77959271D01*
X172195196Y-77444075D01*
X172177858Y-77404936D01*
X172382721Y-77200431D01*
X172509256Y-76895702D01*
X172509544Y-76565746D01*
X172383541Y-76260796D01*
X172150431Y-76027279D01*
X171845702Y-75900744D01*
X171515746Y-75900456D01*
X171210796Y-76026459D01*
X171044915Y-76192050D01*
X170880431Y-76027279D01*
X170575702Y-75900744D01*
X170245746Y-75900456D01*
X169940796Y-76026459D01*
X169774915Y-76192050D01*
X169610431Y-76027279D01*
X169305702Y-75900744D01*
X168975746Y-75900456D01*
X168670796Y-76026459D01*
X168504915Y-76192050D01*
X168340431Y-76027279D01*
X168035702Y-75900744D01*
X167705746Y-75900456D01*
X167400796Y-76026459D01*
X167234915Y-76192050D01*
X167070431Y-76027279D01*
X166765702Y-75900744D01*
X166435746Y-75900456D01*
X166168199Y-76011004D01*
X166168199Y-75029885D01*
X166658728Y-74539355D01*
X166826135Y-74539502D01*
X167042842Y-74449960D01*
X167208788Y-74284304D01*
X167298707Y-74067753D01*
X167298912Y-73833275D01*
X167209370Y-73616568D01*
X167043714Y-73450622D01*
X166827163Y-73360703D01*
X166592685Y-73360498D01*
X166375978Y-73450040D01*
X166210032Y-73615696D01*
X166120113Y-73832247D01*
X166119965Y-74000770D01*
X165517962Y-74602774D01*
X165435393Y-74726347D01*
X165406399Y-74872111D01*
X165406399Y-77187299D01*
X165435393Y-77333063D01*
X165517962Y-77456636D01*
X165807384Y-77746058D01*
X165770744Y-77834298D01*
X165770456Y-78164254D01*
X165896459Y-78469204D01*
X166129569Y-78702721D01*
X166434298Y-78829256D01*
X166764254Y-78829544D01*
X166853849Y-78792523D01*
X166935127Y-78873801D01*
X163214172Y-78873801D01*
X161268846Y-76928474D01*
X163016000Y-76928474D01*
X163122534Y-76907804D01*
X163216168Y-76846296D01*
X163278846Y-76753442D01*
X163300874Y-76643600D01*
X163300874Y-76109249D01*
X163304482Y-76108532D01*
X163304483Y-76108532D01*
X163419847Y-76031447D01*
X166095694Y-73355600D01*
X171682163Y-73355600D01*
X171822476Y-73496158D01*
X172039027Y-73586077D01*
X172273505Y-73586282D01*
X172490212Y-73496740D01*
X172656158Y-73331084D01*
X172746077Y-73114533D01*
X172746282Y-72880055D01*
X172656740Y-72663348D01*
X172491084Y-72497402D01*
X172274533Y-72407483D01*
X172040055Y-72407278D01*
X171823348Y-72496820D01*
X171675509Y-72644400D01*
X165948400Y-72644400D01*
X165812318Y-72671468D01*
X165696953Y-72748553D01*
X163300874Y-75144632D01*
X163300874Y-74916400D01*
X163280204Y-74809866D01*
X163218696Y-74716232D01*
X163125842Y-74653554D01*
X163016000Y-74631526D01*
X161060199Y-74631526D01*
X161060199Y-74079092D01*
X161384815Y-74295994D01*
X161822222Y-74383000D01*
X162177778Y-74383000D01*
X162615185Y-74295994D01*
X162986001Y-74048223D01*
X163233772Y-73677407D01*
X163320778Y-73240000D01*
X163233772Y-72802593D01*
X163177266Y-72718027D01*
X164794400Y-71100894D01*
X164794400Y-71222169D01*
X164650622Y-71365696D01*
X164560703Y-71582247D01*
X164560498Y-71816725D01*
X164650040Y-72033432D01*
X164815696Y-72199378D01*
X165032247Y-72289297D01*
X165266725Y-72289502D01*
X165483432Y-72199960D01*
X165649378Y-72034304D01*
X165739297Y-71817753D01*
X165739502Y-71583275D01*
X165649960Y-71366568D01*
X165505600Y-71221955D01*
X165505600Y-70967294D01*
X169147294Y-67325600D01*
X176084400Y-67325600D01*
X176084400Y-74095000D01*
X176111468Y-74231083D01*
X176188553Y-74346447D01*
X179035906Y-77193800D01*
X178917850Y-77193800D01*
X178853800Y-77257850D01*
X178853800Y-78171200D01*
X179317150Y-78171200D01*
X179381200Y-78107150D01*
X179381200Y-77539094D01*
X179510126Y-77668020D01*
X179510126Y-78873801D01*
G36*
X184144400Y-64863290D02*
X184017753Y-64810703D01*
X183783275Y-64810498D01*
X183566568Y-64900040D01*
X183400622Y-65065696D01*
X183310703Y-65282247D01*
X183310498Y-65516725D01*
X183400040Y-65733432D01*
X183565696Y-65899378D01*
X183782247Y-65989297D01*
X183784400Y-65989298D01*
X183784400Y-68739999D01*
X182276479Y-68739999D01*
X182140396Y-68767067D01*
X182025032Y-68844152D01*
X181969152Y-68900032D01*
X181892067Y-69015396D01*
X181864999Y-69151479D01*
X181864999Y-70642107D01*
X181692954Y-70814152D01*
X181645845Y-70884652D01*
X181467753Y-70810703D01*
X181233275Y-70810498D01*
X181203461Y-70822816D01*
X181262846Y-70734842D01*
X181284874Y-70625000D01*
X181284874Y-69375000D01*
X181264204Y-69268466D01*
X181202696Y-69174832D01*
X181109842Y-69112154D01*
X181000000Y-69090126D01*
X179589321Y-69090126D01*
X179589502Y-68883275D01*
X179499960Y-68666568D01*
X179334304Y-68500622D01*
X179117753Y-68410703D01*
X178883275Y-68410498D01*
X178666568Y-68500040D01*
X178500622Y-68665696D01*
X178410703Y-68882247D01*
X178410521Y-69090126D01*
X177000000Y-69090126D01*
X176893466Y-69110796D01*
X176799832Y-69172304D01*
X176795600Y-69178573D01*
X176795600Y-66970000D01*
X176782438Y-66903830D01*
X178520399Y-66903830D01*
X178663926Y-67047608D01*
X178880477Y-67137527D01*
X179114955Y-67137732D01*
X179331662Y-67048190D01*
X179497608Y-66882534D01*
X179587527Y-66665983D01*
X179587732Y-66431505D01*
X179498190Y-66214798D01*
X179353830Y-66070185D01*
X179353830Y-63998230D01*
X179326762Y-63862148D01*
X179326761Y-63862147D01*
X179249677Y-63746783D01*
X178089324Y-62586430D01*
X178089502Y-62383275D01*
X177999960Y-62166568D01*
X177834304Y-62000622D01*
X177617753Y-61910703D01*
X177383275Y-61910498D01*
X177166568Y-62000040D01*
X177000622Y-62165696D01*
X176910703Y-62382247D01*
X176910498Y-62616725D01*
X177000040Y-62833432D01*
X177165696Y-62999378D01*
X177382247Y-63089297D01*
X177586581Y-63089475D01*
X178642630Y-64145524D01*
X178642630Y-66070399D01*
X178520185Y-66192630D01*
X168844170Y-66192630D01*
X168708087Y-66219698D01*
X168592723Y-66296783D01*
X163253543Y-71635962D01*
X163253543Y-70903563D01*
X163253543Y-70496437D01*
X163197982Y-70298079D01*
X162964583Y-69928547D01*
X162607537Y-69676461D01*
X162181200Y-69580200D01*
X162028800Y-69580200D01*
X162028800Y-70671200D01*
X163207757Y-70671200D01*
X163253543Y-70496437D01*
X163253543Y-70903563D01*
X163207757Y-70728800D01*
X162028800Y-70728800D01*
X162028800Y-71819800D01*
X162181200Y-71819800D01*
X162607537Y-71723539D01*
X162964583Y-71471453D01*
X163197982Y-71101921D01*
X163253543Y-70903563D01*
X163253543Y-71635962D01*
X162669324Y-72220181D01*
X162615185Y-72184006D01*
X162177778Y-72097000D01*
X161822222Y-72097000D01*
X161384815Y-72184006D01*
X161060199Y-72400907D01*
X161060199Y-71488949D01*
X161392463Y-71723539D01*
X161818800Y-71819800D01*
X161971200Y-71819800D01*
X161971200Y-70728800D01*
X161951200Y-70728800D01*
X161951200Y-70671200D01*
X161971200Y-70671200D01*
X161971200Y-69580200D01*
X161818800Y-69580200D01*
X161392463Y-69676461D01*
X161060199Y-69911050D01*
X161060199Y-68999092D01*
X161384815Y-69215994D01*
X161822222Y-69303000D01*
X162177778Y-69303000D01*
X162615185Y-69215994D01*
X162986001Y-68968223D01*
X163233772Y-68597407D01*
X163320778Y-68160000D01*
X163270174Y-67905600D01*
X164150000Y-67905600D01*
X164286082Y-67878532D01*
X164286083Y-67878532D01*
X164401447Y-67801447D01*
X172374650Y-59828243D01*
X172310703Y-59982247D01*
X172310498Y-60216725D01*
X172400040Y-60433432D01*
X172544400Y-60578044D01*
X172544400Y-61422169D01*
X172400622Y-61565696D01*
X172310703Y-61782247D01*
X172310498Y-62016725D01*
X172400040Y-62233432D01*
X172565696Y-62399378D01*
X172782247Y-62489297D01*
X173016725Y-62489502D01*
X173233432Y-62399960D01*
X173399378Y-62234304D01*
X173489297Y-62017753D01*
X173489502Y-61783275D01*
X173399960Y-61566568D01*
X173255600Y-61421955D01*
X173255600Y-60577830D01*
X173399378Y-60434304D01*
X173489297Y-60217753D01*
X173489502Y-59983275D01*
X173399960Y-59766568D01*
X173234304Y-59600622D01*
X173017753Y-59510703D01*
X172783275Y-59510498D01*
X172628404Y-59574489D01*
X182034268Y-50168625D01*
X182454400Y-50588756D01*
X182454400Y-50890000D01*
X182481468Y-51026083D01*
X182558553Y-51141447D01*
X183554990Y-52137884D01*
X183554990Y-54172169D01*
X183411212Y-54315696D01*
X183321293Y-54532247D01*
X183321088Y-54766725D01*
X183410630Y-54983432D01*
X183576286Y-55149378D01*
X183792837Y-55239297D01*
X184027315Y-55239502D01*
X184144400Y-55191123D01*
X184144400Y-64863290D01*
X184144400Y-64863290D01*
G37*
X184144400Y-64863290D02*
X184017753Y-64810703D01*
X183783275Y-64810498D01*
X183566568Y-64900040D01*
X183400622Y-65065696D01*
X183310703Y-65282247D01*
X183310498Y-65516725D01*
X183400040Y-65733432D01*
X183565696Y-65899378D01*
X183782247Y-65989297D01*
X183784400Y-65989298D01*
X183784400Y-68739999D01*
X182276479Y-68739999D01*
X182140396Y-68767067D01*
X182025032Y-68844152D01*
X181969152Y-68900032D01*
X181892067Y-69015396D01*
X181864999Y-69151479D01*
X181864999Y-70642107D01*
X181692954Y-70814152D01*
X181645845Y-70884652D01*
X181467753Y-70810703D01*
X181233275Y-70810498D01*
X181203461Y-70822816D01*
X181262846Y-70734842D01*
X181284874Y-70625000D01*
X181284874Y-69375000D01*
X181264204Y-69268466D01*
X181202696Y-69174832D01*
X181109842Y-69112154D01*
X181000000Y-69090126D01*
X179589321Y-69090126D01*
X179589502Y-68883275D01*
X179499960Y-68666568D01*
X179334304Y-68500622D01*
X179117753Y-68410703D01*
X178883275Y-68410498D01*
X178666568Y-68500040D01*
X178500622Y-68665696D01*
X178410703Y-68882247D01*
X178410521Y-69090126D01*
X177000000Y-69090126D01*
X176893466Y-69110796D01*
X176799832Y-69172304D01*
X176795600Y-69178573D01*
X176795600Y-66970000D01*
X176782438Y-66903830D01*
X178520399Y-66903830D01*
X178663926Y-67047608D01*
X178880477Y-67137527D01*
X179114955Y-67137732D01*
X179331662Y-67048190D01*
X179497608Y-66882534D01*
X179587527Y-66665983D01*
X179587732Y-66431505D01*
X179498190Y-66214798D01*
X179353830Y-66070185D01*
X179353830Y-63998230D01*
X179326762Y-63862148D01*
X179326761Y-63862147D01*
X179249677Y-63746783D01*
X178089324Y-62586430D01*
X178089502Y-62383275D01*
X177999960Y-62166568D01*
X177834304Y-62000622D01*
X177617753Y-61910703D01*
X177383275Y-61910498D01*
X177166568Y-62000040D01*
X177000622Y-62165696D01*
X176910703Y-62382247D01*
X176910498Y-62616725D01*
X177000040Y-62833432D01*
X177165696Y-62999378D01*
X177382247Y-63089297D01*
X177586581Y-63089475D01*
X178642630Y-64145524D01*
X178642630Y-66070399D01*
X178520185Y-66192630D01*
X168844170Y-66192630D01*
X168708087Y-66219698D01*
X168592723Y-66296783D01*
X163253543Y-71635962D01*
X163253543Y-70903563D01*
X163253543Y-70496437D01*
X163197982Y-70298079D01*
X162964583Y-69928547D01*
X162607537Y-69676461D01*
X162181200Y-69580200D01*
X162028800Y-69580200D01*
X162028800Y-70671200D01*
X163207757Y-70671200D01*
X163253543Y-70496437D01*
X163253543Y-70903563D01*
X163207757Y-70728800D01*
X162028800Y-70728800D01*
X162028800Y-71819800D01*
X162181200Y-71819800D01*
X162607537Y-71723539D01*
X162964583Y-71471453D01*
X163197982Y-71101921D01*
X163253543Y-70903563D01*
X163253543Y-71635962D01*
X162669324Y-72220181D01*
X162615185Y-72184006D01*
X162177778Y-72097000D01*
X161822222Y-72097000D01*
X161384815Y-72184006D01*
X161060199Y-72400907D01*
X161060199Y-71488949D01*
X161392463Y-71723539D01*
X161818800Y-71819800D01*
X161971200Y-71819800D01*
X161971200Y-70728800D01*
X161951200Y-70728800D01*
X161951200Y-70671200D01*
X161971200Y-70671200D01*
X161971200Y-69580200D01*
X161818800Y-69580200D01*
X161392463Y-69676461D01*
X161060199Y-69911050D01*
X161060199Y-68999092D01*
X161384815Y-69215994D01*
X161822222Y-69303000D01*
X162177778Y-69303000D01*
X162615185Y-69215994D01*
X162986001Y-68968223D01*
X163233772Y-68597407D01*
X163320778Y-68160000D01*
X163270174Y-67905600D01*
X164150000Y-67905600D01*
X164286082Y-67878532D01*
X164286083Y-67878532D01*
X164401447Y-67801447D01*
X172374650Y-59828243D01*
X172310703Y-59982247D01*
X172310498Y-60216725D01*
X172400040Y-60433432D01*
X172544400Y-60578044D01*
X172544400Y-61422169D01*
X172400622Y-61565696D01*
X172310703Y-61782247D01*
X172310498Y-62016725D01*
X172400040Y-62233432D01*
X172565696Y-62399378D01*
X172782247Y-62489297D01*
X173016725Y-62489502D01*
X173233432Y-62399960D01*
X173399378Y-62234304D01*
X173489297Y-62017753D01*
X173489502Y-61783275D01*
X173399960Y-61566568D01*
X173255600Y-61421955D01*
X173255600Y-60577830D01*
X173399378Y-60434304D01*
X173489297Y-60217753D01*
X173489502Y-59983275D01*
X173399960Y-59766568D01*
X173234304Y-59600622D01*
X173017753Y-59510703D01*
X172783275Y-59510498D01*
X172628404Y-59574489D01*
X182034268Y-50168625D01*
X182454400Y-50588756D01*
X182454400Y-50890000D01*
X182481468Y-51026083D01*
X182558553Y-51141447D01*
X183554990Y-52137884D01*
X183554990Y-54172169D01*
X183411212Y-54315696D01*
X183321293Y-54532247D01*
X183321088Y-54766725D01*
X183410630Y-54983432D01*
X183576286Y-55149378D01*
X183792837Y-55239297D01*
X184027315Y-55239502D01*
X184144400Y-55191123D01*
X184144400Y-64863290D01*
G36*
X187673800Y-79673800D02*
X187029874Y-79673800D01*
X187029874Y-78950000D01*
X187029874Y-77450000D01*
X187029874Y-73550000D01*
X187029874Y-72050000D01*
X187009204Y-71943466D01*
X186947696Y-71849832D01*
X186854842Y-71787154D01*
X186756200Y-71767372D01*
X186756200Y-70675962D01*
X186756200Y-70574039D01*
X186756200Y-70092850D01*
X186756200Y-69907150D01*
X186756200Y-69425961D01*
X186756200Y-69324038D01*
X186717196Y-69229874D01*
X186645125Y-69157804D01*
X186550961Y-69118800D01*
X185842850Y-69118800D01*
X185778800Y-69182850D01*
X185778800Y-69971200D01*
X186692150Y-69971200D01*
X186756200Y-69907150D01*
X186756200Y-70092850D01*
X186692150Y-70028800D01*
X185778800Y-70028800D01*
X185778800Y-70817150D01*
X185842850Y-70881200D01*
X186550961Y-70881200D01*
X186645125Y-70842196D01*
X186717196Y-70770126D01*
X186756200Y-70675962D01*
X186756200Y-71767372D01*
X186745000Y-71765126D01*
X186145000Y-71765126D01*
X186038466Y-71785796D01*
X185944832Y-71847304D01*
X185882154Y-71940158D01*
X185860126Y-72050000D01*
X185860126Y-73550000D01*
X185880796Y-73656534D01*
X185942304Y-73750168D01*
X186035158Y-73812846D01*
X186145000Y-73834874D01*
X186745000Y-73834874D01*
X186851534Y-73814204D01*
X186945168Y-73752696D01*
X187007846Y-73659842D01*
X187029874Y-73550000D01*
X187029874Y-77450000D01*
X187009204Y-77343466D01*
X186947696Y-77249832D01*
X186854842Y-77187154D01*
X186745000Y-77165126D01*
X186145000Y-77165126D01*
X186038466Y-77185796D01*
X185944832Y-77247304D01*
X185882154Y-77340158D01*
X185860126Y-77450000D01*
X185860126Y-78950000D01*
X185880796Y-79056534D01*
X185942304Y-79150168D01*
X186035158Y-79212846D01*
X186145000Y-79234874D01*
X186745000Y-79234874D01*
X186851534Y-79214204D01*
X186945168Y-79152696D01*
X187007846Y-79059842D01*
X187029874Y-78950000D01*
X187029874Y-79673800D01*
X185759874Y-79673800D01*
X185759874Y-78950000D01*
X185759874Y-77450000D01*
X185759874Y-73550000D01*
X185759874Y-72050000D01*
X185739204Y-71943466D01*
X185677696Y-71849832D01*
X185584842Y-71787154D01*
X185475000Y-71765126D01*
X184875000Y-71765126D01*
X184855600Y-71768890D01*
X184855600Y-70842496D01*
X184949039Y-70881200D01*
X185657150Y-70881200D01*
X185721200Y-70817150D01*
X185721200Y-70028800D01*
X185701200Y-70028800D01*
X185701200Y-69971200D01*
X185721200Y-69971200D01*
X185721200Y-69182850D01*
X185657150Y-69118800D01*
X184949039Y-69118800D01*
X184855600Y-69157503D01*
X184855600Y-51400000D01*
X184828532Y-51263918D01*
X184828532Y-51263917D01*
X184751447Y-51148553D01*
X184189324Y-50586430D01*
X184189502Y-50383275D01*
X184099960Y-50166568D01*
X183955600Y-50021955D01*
X183955600Y-49227686D01*
X183928532Y-49091604D01*
X183928532Y-49091603D01*
X183851447Y-48976239D01*
X183134360Y-48259152D01*
X183018996Y-48182067D01*
X182882913Y-48154999D01*
X182589502Y-48154999D01*
X182589502Y-44783275D01*
X182499960Y-44566568D01*
X182334304Y-44400622D01*
X182117753Y-44310703D01*
X181913418Y-44310524D01*
X181005600Y-43402706D01*
X181005600Y-43177830D01*
X181149378Y-43034304D01*
X181239297Y-42817753D01*
X181239502Y-42583275D01*
X181149960Y-42366568D01*
X180984304Y-42200622D01*
X180767753Y-42110703D01*
X180533275Y-42110498D01*
X180316568Y-42200040D01*
X180150622Y-42365696D01*
X180060703Y-42582247D01*
X180060498Y-42816725D01*
X180150040Y-43033432D01*
X180294400Y-43178044D01*
X180294400Y-43550000D01*
X180321468Y-43686083D01*
X180398553Y-43801447D01*
X181410675Y-44813569D01*
X181410498Y-45016725D01*
X181500040Y-45233432D01*
X181665696Y-45399378D01*
X181882247Y-45489297D01*
X182116725Y-45489502D01*
X182333432Y-45399960D01*
X182499378Y-45234304D01*
X182589297Y-45017753D01*
X182589502Y-44783275D01*
X182589502Y-48154999D01*
X182559401Y-48154999D01*
X182423319Y-48182067D01*
X182307954Y-48259152D01*
X174439502Y-56127604D01*
X174439502Y-52733275D01*
X174349960Y-52516568D01*
X174184304Y-52350622D01*
X173967753Y-52260703D01*
X173763418Y-52260524D01*
X173131447Y-51628553D01*
X173016083Y-51551468D01*
X172880000Y-51524400D01*
X172378494Y-51524400D01*
X172813569Y-51089324D01*
X173016725Y-51089502D01*
X173233432Y-50999960D01*
X173399378Y-50834304D01*
X173489297Y-50617753D01*
X173489502Y-50383275D01*
X173399960Y-50166568D01*
X173234304Y-50000622D01*
X173189502Y-49982018D01*
X173189502Y-44083275D01*
X173099960Y-43866568D01*
X172934304Y-43700622D01*
X172717753Y-43610703D01*
X172483275Y-43610498D01*
X172266568Y-43700040D01*
X172100622Y-43865696D01*
X172010703Y-44082247D01*
X172010524Y-44286581D01*
X168812706Y-47484400D01*
X167094515Y-47484400D01*
X166950989Y-47340622D01*
X166734438Y-47250703D01*
X166499960Y-47250498D01*
X166283253Y-47340040D01*
X166138640Y-47484400D01*
X163320778Y-47484400D01*
X163320778Y-45300000D01*
X163233772Y-44862593D01*
X162986001Y-44491777D01*
X162615185Y-44244006D01*
X162177778Y-44157000D01*
X161822222Y-44157000D01*
X161384815Y-44244006D01*
X161013999Y-44491777D01*
X160766228Y-44862593D01*
X160679222Y-45300000D01*
X160766228Y-45737407D01*
X161013999Y-46108223D01*
X161384815Y-46355994D01*
X161822222Y-46443000D01*
X162177778Y-46443000D01*
X162615185Y-46355994D01*
X162986001Y-46108223D01*
X163233772Y-45737407D01*
X163320778Y-45300000D01*
X163320778Y-47484400D01*
X163250044Y-47484400D01*
X163233772Y-47402593D01*
X162986001Y-47031777D01*
X162615185Y-46784006D01*
X162177778Y-46697000D01*
X161822222Y-46697000D01*
X161384815Y-46784006D01*
X161013999Y-47031777D01*
X160766228Y-47402593D01*
X160679222Y-47840000D01*
X160766228Y-48277407D01*
X161013999Y-48648223D01*
X161384815Y-48895994D01*
X161822222Y-48983000D01*
X162177778Y-48983000D01*
X162615185Y-48895994D01*
X162986001Y-48648223D01*
X163233772Y-48277407D01*
X163250044Y-48195600D01*
X166138854Y-48195600D01*
X166282381Y-48339378D01*
X166498932Y-48429297D01*
X166733410Y-48429502D01*
X166950117Y-48339960D01*
X167094729Y-48195600D01*
X168960000Y-48195600D01*
X169096082Y-48168532D01*
X169096083Y-48168532D01*
X169211447Y-48091447D01*
X172513569Y-44789324D01*
X172716725Y-44789502D01*
X172933432Y-44699960D01*
X173099378Y-44534304D01*
X173189297Y-44317753D01*
X173189502Y-44083275D01*
X173189502Y-49982018D01*
X173017753Y-49910703D01*
X172783275Y-49910498D01*
X172566568Y-50000040D01*
X172400622Y-50165696D01*
X172310703Y-50382247D01*
X172310524Y-50586581D01*
X171742706Y-51154400D01*
X163277294Y-51154400D01*
X163116224Y-50993330D01*
X163233772Y-50817407D01*
X163320778Y-50380000D01*
X163233772Y-49942593D01*
X162986001Y-49571777D01*
X162615185Y-49324006D01*
X162177778Y-49237000D01*
X161822222Y-49237000D01*
X161384815Y-49324006D01*
X161013999Y-49571777D01*
X160766228Y-49942593D01*
X160679222Y-50380000D01*
X160766228Y-50817407D01*
X161013999Y-51188223D01*
X161384815Y-51435994D01*
X161822222Y-51523000D01*
X162177778Y-51523000D01*
X162563400Y-51446294D01*
X162767106Y-51650000D01*
X162563400Y-51853705D01*
X162177778Y-51777000D01*
X161822222Y-51777000D01*
X161384815Y-51864006D01*
X161013999Y-52111777D01*
X160766228Y-52482593D01*
X160679222Y-52920000D01*
X160766228Y-53357407D01*
X161013999Y-53728223D01*
X161384815Y-53975994D01*
X161822222Y-54063000D01*
X162177778Y-54063000D01*
X162615185Y-53975994D01*
X162986001Y-53728223D01*
X163233772Y-53357407D01*
X163320778Y-52920000D01*
X163233772Y-52482593D01*
X163116224Y-52306669D01*
X163187294Y-52235600D01*
X172732706Y-52235600D01*
X173260675Y-52763569D01*
X173260498Y-52966725D01*
X173350040Y-53183432D01*
X173515696Y-53349378D01*
X173732247Y-53439297D01*
X173966725Y-53439502D01*
X174183432Y-53349960D01*
X174349378Y-53184304D01*
X174439297Y-52967753D01*
X174439502Y-52733275D01*
X174439502Y-56127604D01*
X165265600Y-65301506D01*
X165265600Y-64940000D01*
X165238532Y-64803918D01*
X165161447Y-64688553D01*
X165046082Y-64611468D01*
X164910000Y-64584400D01*
X163820000Y-64584400D01*
X163683918Y-64611468D01*
X163568553Y-64688553D01*
X163491468Y-64803918D01*
X163464400Y-64940000D01*
X163491468Y-65076082D01*
X163568553Y-65191447D01*
X163683918Y-65268532D01*
X163820000Y-65295600D01*
X164910000Y-65295600D01*
X165046082Y-65268532D01*
X165161447Y-65191447D01*
X165238532Y-65076082D01*
X165265600Y-64940000D01*
X165265600Y-65301506D01*
X163872706Y-66694400D01*
X163729694Y-66694400D01*
X163177266Y-66141972D01*
X163233772Y-66057407D01*
X163320778Y-65620000D01*
X163253543Y-65281988D01*
X163253543Y-63283563D01*
X163253543Y-62876437D01*
X163197982Y-62678079D01*
X162964583Y-62308547D01*
X162607537Y-62056461D01*
X162181200Y-61960200D01*
X162028800Y-61960200D01*
X162028800Y-63051200D01*
X163207757Y-63051200D01*
X163253543Y-62876437D01*
X163253543Y-63283563D01*
X163207757Y-63108800D01*
X162028800Y-63108800D01*
X162028800Y-64199800D01*
X162181200Y-64199800D01*
X162607537Y-64103539D01*
X162964583Y-63851453D01*
X163197982Y-63481921D01*
X163253543Y-63283563D01*
X163253543Y-65281988D01*
X163233772Y-65182593D01*
X162986001Y-64811777D01*
X162615185Y-64564006D01*
X162177778Y-64477000D01*
X161822222Y-64477000D01*
X161384815Y-64564006D01*
X161060199Y-64780907D01*
X161060199Y-63868949D01*
X161392463Y-64103539D01*
X161818800Y-64199800D01*
X161971200Y-64199800D01*
X161971200Y-63108800D01*
X161951200Y-63108800D01*
X161951200Y-63051200D01*
X161971200Y-63051200D01*
X161971200Y-61960200D01*
X161818800Y-61960200D01*
X161392463Y-62056461D01*
X161060199Y-62291050D01*
X161060199Y-61379092D01*
X161384815Y-61595994D01*
X161822222Y-61683000D01*
X162177778Y-61683000D01*
X162615185Y-61595994D01*
X162986001Y-61348223D01*
X163233772Y-60977407D01*
X163320778Y-60540000D01*
X163320778Y-58000000D01*
X163253543Y-57661988D01*
X163253543Y-55663563D01*
X163253543Y-55256437D01*
X163197982Y-55058079D01*
X162964583Y-54688547D01*
X162607537Y-54436461D01*
X162181200Y-54340200D01*
X162028800Y-54340200D01*
X162028800Y-55431200D01*
X163207757Y-55431200D01*
X163253543Y-55256437D01*
X163253543Y-55663563D01*
X163207757Y-55488800D01*
X162028800Y-55488800D01*
X162028800Y-56579800D01*
X162181200Y-56579800D01*
X162607537Y-56483539D01*
X162964583Y-56231453D01*
X163197982Y-55861921D01*
X163253543Y-55663563D01*
X163253543Y-57661988D01*
X163233772Y-57562593D01*
X162986001Y-57191777D01*
X162615185Y-56944006D01*
X162177778Y-56857000D01*
X161971200Y-56857000D01*
X161971200Y-56579800D01*
X161971200Y-55488800D01*
X161971200Y-55431200D01*
X161971200Y-54340200D01*
X161818800Y-54340200D01*
X161392463Y-54436461D01*
X161035417Y-54688547D01*
X160802018Y-55058079D01*
X160746457Y-55256437D01*
X160792243Y-55431200D01*
X161971200Y-55431200D01*
X161971200Y-55488800D01*
X160792243Y-55488800D01*
X160746457Y-55663563D01*
X160802018Y-55861921D01*
X161035417Y-56231453D01*
X161392463Y-56483539D01*
X161818800Y-56579800D01*
X161971200Y-56579800D01*
X161971200Y-56857000D01*
X161822222Y-56857000D01*
X161384815Y-56944006D01*
X161013999Y-57191777D01*
X160766228Y-57562593D01*
X160679222Y-58000000D01*
X160766228Y-58437407D01*
X161013999Y-58808223D01*
X161384815Y-59055994D01*
X161822222Y-59143000D01*
X162177778Y-59143000D01*
X162615185Y-59055994D01*
X162986001Y-58808223D01*
X163233772Y-58437407D01*
X163320778Y-58000000D01*
X163320778Y-60540000D01*
X163233772Y-60102593D01*
X162986001Y-59731777D01*
X162615185Y-59484006D01*
X162177778Y-59397000D01*
X161822222Y-59397000D01*
X161384815Y-59484006D01*
X161013999Y-59731777D01*
X160766228Y-60102593D01*
X160746592Y-60201308D01*
X160695518Y-60211468D01*
X160580153Y-60288553D01*
X160453152Y-60415554D01*
X160376067Y-60530918D01*
X160348999Y-60667001D01*
X160348999Y-76867121D01*
X160376067Y-77003204D01*
X160453152Y-77118568D01*
X162815432Y-79480848D01*
X162930796Y-79557932D01*
X162930797Y-79557933D01*
X163066879Y-79585001D01*
X180785599Y-79585001D01*
X180921681Y-79557933D01*
X180921682Y-79557933D01*
X181037046Y-79480848D01*
X181283020Y-79234874D01*
X181665000Y-79234874D01*
X181771534Y-79214204D01*
X181865168Y-79152696D01*
X181927846Y-79059842D01*
X181949874Y-78950000D01*
X181949874Y-77450000D01*
X181929204Y-77343466D01*
X181867696Y-77249832D01*
X181774842Y-77187154D01*
X181665000Y-77165126D01*
X181065000Y-77165126D01*
X180958466Y-77185796D01*
X180864832Y-77247304D01*
X180802154Y-77340158D01*
X180780126Y-77450000D01*
X180780126Y-78731980D01*
X180679874Y-78832232D01*
X180679874Y-77450000D01*
X180659204Y-77343466D01*
X180597696Y-77249832D01*
X180504842Y-77187154D01*
X180395000Y-77165126D01*
X180013020Y-77165126D01*
X176795600Y-73947706D01*
X176795600Y-70822573D01*
X176797304Y-70825168D01*
X176890158Y-70887846D01*
X177000000Y-70909874D01*
X177394400Y-70909874D01*
X177394400Y-71765126D01*
X177255000Y-71765126D01*
X177148466Y-71785796D01*
X177054832Y-71847304D01*
X176992154Y-71940158D01*
X176970126Y-72050000D01*
X176970126Y-73550000D01*
X176990796Y-73656534D01*
X177052304Y-73750168D01*
X177145158Y-73812846D01*
X177255000Y-73834874D01*
X177855000Y-73834874D01*
X177961534Y-73814204D01*
X178055168Y-73752696D01*
X178117846Y-73659842D01*
X178139874Y-73550000D01*
X178139874Y-72050000D01*
X178119204Y-71943466D01*
X178105600Y-71922756D01*
X178105600Y-70909874D01*
X178500000Y-70909874D01*
X178606534Y-70889204D01*
X178644400Y-70864329D01*
X178644400Y-71765126D01*
X178525000Y-71765126D01*
X178418466Y-71785796D01*
X178324832Y-71847304D01*
X178262154Y-71940158D01*
X178240126Y-72050000D01*
X178240126Y-73550000D01*
X178260796Y-73656534D01*
X178322304Y-73750168D01*
X178415158Y-73812846D01*
X178525000Y-73834874D01*
X179125000Y-73834874D01*
X179231534Y-73814204D01*
X179325168Y-73752696D01*
X179387846Y-73659842D01*
X179409874Y-73550000D01*
X179409874Y-72050000D01*
X179389204Y-71943466D01*
X179355600Y-71892310D01*
X179355600Y-70864518D01*
X179390158Y-70887846D01*
X179500000Y-70909874D01*
X179894400Y-70909874D01*
X179894400Y-71765126D01*
X179795000Y-71765126D01*
X179688466Y-71785796D01*
X179594832Y-71847304D01*
X179532154Y-71940158D01*
X179510126Y-72050000D01*
X179510126Y-73550000D01*
X179530796Y-73656534D01*
X179592304Y-73750168D01*
X179685158Y-73812846D01*
X179795000Y-73834874D01*
X180395000Y-73834874D01*
X180501534Y-73814204D01*
X180595168Y-73752696D01*
X180657846Y-73659842D01*
X180679874Y-73550000D01*
X180679874Y-72050000D01*
X180659204Y-71943466D01*
X180605600Y-71861864D01*
X180605600Y-70909874D01*
X181000000Y-70909874D01*
X181008337Y-70908256D01*
X180850622Y-71065696D01*
X180760703Y-71282247D01*
X180760498Y-71516725D01*
X180850040Y-71733432D01*
X180924551Y-71808074D01*
X180864832Y-71847304D01*
X180802154Y-71940158D01*
X180780126Y-72050000D01*
X180780126Y-73550000D01*
X180800796Y-73656534D01*
X180862304Y-73750168D01*
X180955158Y-73812846D01*
X181065000Y-73834874D01*
X181588801Y-73834874D01*
X181588801Y-76607001D01*
X181615869Y-76743084D01*
X181692954Y-76858448D01*
X182113464Y-77278958D01*
X182072154Y-77340158D01*
X182050126Y-77450000D01*
X182050126Y-78950000D01*
X182070796Y-79056534D01*
X182132304Y-79150168D01*
X182225158Y-79212846D01*
X182335000Y-79234874D01*
X182935000Y-79234874D01*
X183041534Y-79214204D01*
X183135168Y-79152696D01*
X183197846Y-79059842D01*
X183219874Y-78950000D01*
X183219874Y-77450000D01*
X183199204Y-77343466D01*
X183137696Y-77249832D01*
X183044842Y-77187154D01*
X182965464Y-77171235D01*
X182963532Y-77161518D01*
X182963531Y-77161517D01*
X182937953Y-77123237D01*
X182886447Y-77046153D01*
X182886447Y-77046152D01*
X182300001Y-76459706D01*
X182300001Y-73827855D01*
X182335000Y-73834874D01*
X182935000Y-73834874D01*
X183041534Y-73814204D01*
X183135168Y-73752696D01*
X183197846Y-73659842D01*
X183219874Y-73550000D01*
X183219874Y-72050000D01*
X183199204Y-71943466D01*
X183137696Y-71849832D01*
X183075622Y-71807931D01*
X183149378Y-71734304D01*
X183239297Y-71517753D01*
X183239502Y-71283275D01*
X183230010Y-71260304D01*
X183549400Y-71579694D01*
X183549400Y-71775913D01*
X183498466Y-71785796D01*
X183404832Y-71847304D01*
X183342154Y-71940158D01*
X183320126Y-72050000D01*
X183320126Y-73550000D01*
X183340796Y-73656534D01*
X183402304Y-73750168D01*
X183495158Y-73812846D01*
X183605000Y-73834874D01*
X184144400Y-73834874D01*
X184144400Y-76555306D01*
X183653553Y-77046153D01*
X183576468Y-77161517D01*
X183574576Y-77171028D01*
X183574575Y-77171028D01*
X183498466Y-77185796D01*
X183404832Y-77247304D01*
X183342154Y-77340158D01*
X183320126Y-77450000D01*
X183320126Y-78950000D01*
X183340796Y-79056534D01*
X183402304Y-79150168D01*
X183495158Y-79212846D01*
X183605000Y-79234874D01*
X184205000Y-79234874D01*
X184311534Y-79214204D01*
X184405168Y-79152696D01*
X184467846Y-79059842D01*
X184489874Y-78950000D01*
X184489874Y-77450000D01*
X184469204Y-77343466D01*
X184426712Y-77278781D01*
X184751447Y-76954047D01*
X184828532Y-76838683D01*
X184828532Y-76838682D01*
X184855600Y-76702600D01*
X184855600Y-73830983D01*
X184875000Y-73834874D01*
X185475000Y-73834874D01*
X185581534Y-73814204D01*
X185675168Y-73752696D01*
X185737846Y-73659842D01*
X185759874Y-73550000D01*
X185759874Y-77450000D01*
X185739204Y-77343466D01*
X185677696Y-77249832D01*
X185584842Y-77187154D01*
X185475000Y-77165126D01*
X184875000Y-77165126D01*
X184768466Y-77185796D01*
X184674832Y-77247304D01*
X184612154Y-77340158D01*
X184590126Y-77450000D01*
X184590126Y-78950000D01*
X184610796Y-79056534D01*
X184672304Y-79150168D01*
X184765158Y-79212846D01*
X184875000Y-79234874D01*
X185475000Y-79234874D01*
X185581534Y-79214204D01*
X185675168Y-79152696D01*
X185737846Y-79059842D01*
X185759874Y-78950000D01*
X185759874Y-79673800D01*
X160326200Y-79673800D01*
X160326200Y-38500000D01*
X160326200Y-38326200D01*
X171419898Y-38326200D01*
X171415126Y-38350000D01*
X171415126Y-39549100D01*
X166170000Y-39549100D01*
X166024236Y-39578094D01*
X165900663Y-39660663D01*
X163253543Y-42307782D01*
X163253543Y-40423563D01*
X163253543Y-40016437D01*
X163197982Y-39818079D01*
X162964583Y-39448547D01*
X162607537Y-39196461D01*
X162181200Y-39100200D01*
X162028800Y-39100200D01*
X162028800Y-40191200D01*
X163207757Y-40191200D01*
X163253543Y-40016437D01*
X163253543Y-40423563D01*
X163207757Y-40248800D01*
X162028800Y-40248800D01*
X162028800Y-41339800D01*
X162181200Y-41339800D01*
X162607537Y-41243539D01*
X162964583Y-40991453D01*
X163197982Y-40621921D01*
X163253543Y-40423563D01*
X163253543Y-42307782D01*
X163234595Y-42326730D01*
X163233772Y-42322593D01*
X162986001Y-41951777D01*
X162615185Y-41704006D01*
X162177778Y-41617000D01*
X161971200Y-41617000D01*
X161971200Y-41339800D01*
X161971200Y-40248800D01*
X161971200Y-40191200D01*
X161971200Y-39100200D01*
X161818800Y-39100200D01*
X161392463Y-39196461D01*
X161035417Y-39448547D01*
X160802018Y-39818079D01*
X160746457Y-40016437D01*
X160792243Y-40191200D01*
X161971200Y-40191200D01*
X161971200Y-40248800D01*
X160792243Y-40248800D01*
X160746457Y-40423563D01*
X160802018Y-40621921D01*
X161035417Y-40991453D01*
X161392463Y-41243539D01*
X161818800Y-41339800D01*
X161971200Y-41339800D01*
X161971200Y-41617000D01*
X161822222Y-41617000D01*
X161384815Y-41704006D01*
X161013999Y-41951777D01*
X160766228Y-42322593D01*
X160679222Y-42760000D01*
X160766228Y-43197407D01*
X161013999Y-43568223D01*
X161384815Y-43815994D01*
X161822222Y-43903000D01*
X162177778Y-43903000D01*
X162615185Y-43815994D01*
X162986001Y-43568223D01*
X163233772Y-43197407D01*
X163237055Y-43180900D01*
X163300000Y-43180900D01*
X163445764Y-43151906D01*
X163569337Y-43069337D01*
X166327774Y-40310900D01*
X171415126Y-40310900D01*
X171415126Y-41350000D01*
X171435796Y-41456534D01*
X171497304Y-41550168D01*
X171590158Y-41612846D01*
X171700000Y-41634874D01*
X175300000Y-41634874D01*
X175406534Y-41614204D01*
X175500168Y-41552696D01*
X175562846Y-41459842D01*
X175584874Y-41350000D01*
X175584874Y-39750900D01*
X176149100Y-39750900D01*
X176149100Y-44450180D01*
X176030622Y-44568451D01*
X175940703Y-44785002D01*
X175940498Y-45019480D01*
X176030040Y-45236187D01*
X176149100Y-45355455D01*
X176149100Y-50347425D01*
X176030622Y-50465696D01*
X175940703Y-50682247D01*
X175940498Y-50916725D01*
X176030040Y-51133432D01*
X176195696Y-51299378D01*
X176412247Y-51389297D01*
X176646725Y-51389502D01*
X176863432Y-51299960D01*
X177029378Y-51134304D01*
X177119297Y-50917753D01*
X177119502Y-50683275D01*
X177029960Y-50466568D01*
X176910900Y-50347299D01*
X176910900Y-45355329D01*
X177029378Y-45237059D01*
X177119297Y-45020508D01*
X177119502Y-44786030D01*
X177029960Y-44569323D01*
X176910900Y-44450054D01*
X176910900Y-39370000D01*
X176881906Y-39224236D01*
X176799337Y-39100663D01*
X176675764Y-39018094D01*
X176530000Y-38989100D01*
X175584874Y-38989100D01*
X175584874Y-38350000D01*
X175580256Y-38326200D01*
X187673800Y-38326200D01*
X187673800Y-38500000D01*
X187673800Y-79673800D01*
X187673800Y-79673800D01*
G37*
X187673800Y-79673800D02*
X187029874Y-79673800D01*
X187029874Y-78950000D01*
X187029874Y-77450000D01*
X187029874Y-73550000D01*
X187029874Y-72050000D01*
X187009204Y-71943466D01*
X186947696Y-71849832D01*
X186854842Y-71787154D01*
X186756200Y-71767372D01*
X186756200Y-70675962D01*
X186756200Y-70574039D01*
X186756200Y-70092850D01*
X186756200Y-69907150D01*
X186756200Y-69425961D01*
X186756200Y-69324038D01*
X186717196Y-69229874D01*
X186645125Y-69157804D01*
X186550961Y-69118800D01*
X185842850Y-69118800D01*
X185778800Y-69182850D01*
X185778800Y-69971200D01*
X186692150Y-69971200D01*
X186756200Y-69907150D01*
X186756200Y-70092850D01*
X186692150Y-70028800D01*
X185778800Y-70028800D01*
X185778800Y-70817150D01*
X185842850Y-70881200D01*
X186550961Y-70881200D01*
X186645125Y-70842196D01*
X186717196Y-70770126D01*
X186756200Y-70675962D01*
X186756200Y-71767372D01*
X186745000Y-71765126D01*
X186145000Y-71765126D01*
X186038466Y-71785796D01*
X185944832Y-71847304D01*
X185882154Y-71940158D01*
X185860126Y-72050000D01*
X185860126Y-73550000D01*
X185880796Y-73656534D01*
X185942304Y-73750168D01*
X186035158Y-73812846D01*
X186145000Y-73834874D01*
X186745000Y-73834874D01*
X186851534Y-73814204D01*
X186945168Y-73752696D01*
X187007846Y-73659842D01*
X187029874Y-73550000D01*
X187029874Y-77450000D01*
X187009204Y-77343466D01*
X186947696Y-77249832D01*
X186854842Y-77187154D01*
X186745000Y-77165126D01*
X186145000Y-77165126D01*
X186038466Y-77185796D01*
X185944832Y-77247304D01*
X185882154Y-77340158D01*
X185860126Y-77450000D01*
X185860126Y-78950000D01*
X185880796Y-79056534D01*
X185942304Y-79150168D01*
X186035158Y-79212846D01*
X186145000Y-79234874D01*
X186745000Y-79234874D01*
X186851534Y-79214204D01*
X186945168Y-79152696D01*
X187007846Y-79059842D01*
X187029874Y-78950000D01*
X187029874Y-79673800D01*
X185759874Y-79673800D01*
X185759874Y-78950000D01*
X185759874Y-77450000D01*
X185759874Y-73550000D01*
X185759874Y-72050000D01*
X185739204Y-71943466D01*
X185677696Y-71849832D01*
X185584842Y-71787154D01*
X185475000Y-71765126D01*
X184875000Y-71765126D01*
X184855600Y-71768890D01*
X184855600Y-70842496D01*
X184949039Y-70881200D01*
X185657150Y-70881200D01*
X185721200Y-70817150D01*
X185721200Y-70028800D01*
X185701200Y-70028800D01*
X185701200Y-69971200D01*
X185721200Y-69971200D01*
X185721200Y-69182850D01*
X185657150Y-69118800D01*
X184949039Y-69118800D01*
X184855600Y-69157503D01*
X184855600Y-51400000D01*
X184828532Y-51263918D01*
X184828532Y-51263917D01*
X184751447Y-51148553D01*
X184189324Y-50586430D01*
X184189502Y-50383275D01*
X184099960Y-50166568D01*
X183955600Y-50021955D01*
X183955600Y-49227686D01*
X183928532Y-49091604D01*
X183928532Y-49091603D01*
X183851447Y-48976239D01*
X183134360Y-48259152D01*
X183018996Y-48182067D01*
X182882913Y-48154999D01*
X182589502Y-48154999D01*
X182589502Y-44783275D01*
X182499960Y-44566568D01*
X182334304Y-44400622D01*
X182117753Y-44310703D01*
X181913418Y-44310524D01*
X181005600Y-43402706D01*
X181005600Y-43177830D01*
X181149378Y-43034304D01*
X181239297Y-42817753D01*
X181239502Y-42583275D01*
X181149960Y-42366568D01*
X180984304Y-42200622D01*
X180767753Y-42110703D01*
X180533275Y-42110498D01*
X180316568Y-42200040D01*
X180150622Y-42365696D01*
X180060703Y-42582247D01*
X180060498Y-42816725D01*
X180150040Y-43033432D01*
X180294400Y-43178044D01*
X180294400Y-43550000D01*
X180321468Y-43686083D01*
X180398553Y-43801447D01*
X181410675Y-44813569D01*
X181410498Y-45016725D01*
X181500040Y-45233432D01*
X181665696Y-45399378D01*
X181882247Y-45489297D01*
X182116725Y-45489502D01*
X182333432Y-45399960D01*
X182499378Y-45234304D01*
X182589297Y-45017753D01*
X182589502Y-44783275D01*
X182589502Y-48154999D01*
X182559401Y-48154999D01*
X182423319Y-48182067D01*
X182307954Y-48259152D01*
X174439502Y-56127604D01*
X174439502Y-52733275D01*
X174349960Y-52516568D01*
X174184304Y-52350622D01*
X173967753Y-52260703D01*
X173763418Y-52260524D01*
X173131447Y-51628553D01*
X173016083Y-51551468D01*
X172880000Y-51524400D01*
X172378494Y-51524400D01*
X172813569Y-51089324D01*
X173016725Y-51089502D01*
X173233432Y-50999960D01*
X173399378Y-50834304D01*
X173489297Y-50617753D01*
X173489502Y-50383275D01*
X173399960Y-50166568D01*
X173234304Y-50000622D01*
X173189502Y-49982018D01*
X173189502Y-44083275D01*
X173099960Y-43866568D01*
X172934304Y-43700622D01*
X172717753Y-43610703D01*
X172483275Y-43610498D01*
X172266568Y-43700040D01*
X172100622Y-43865696D01*
X172010703Y-44082247D01*
X172010524Y-44286581D01*
X168812706Y-47484400D01*
X167094515Y-47484400D01*
X166950989Y-47340622D01*
X166734438Y-47250703D01*
X166499960Y-47250498D01*
X166283253Y-47340040D01*
X166138640Y-47484400D01*
X163320778Y-47484400D01*
X163320778Y-45300000D01*
X163233772Y-44862593D01*
X162986001Y-44491777D01*
X162615185Y-44244006D01*
X162177778Y-44157000D01*
X161822222Y-44157000D01*
X161384815Y-44244006D01*
X161013999Y-44491777D01*
X160766228Y-44862593D01*
X160679222Y-45300000D01*
X160766228Y-45737407D01*
X161013999Y-46108223D01*
X161384815Y-46355994D01*
X161822222Y-46443000D01*
X162177778Y-46443000D01*
X162615185Y-46355994D01*
X162986001Y-46108223D01*
X163233772Y-45737407D01*
X163320778Y-45300000D01*
X163320778Y-47484400D01*
X163250044Y-47484400D01*
X163233772Y-47402593D01*
X162986001Y-47031777D01*
X162615185Y-46784006D01*
X162177778Y-46697000D01*
X161822222Y-46697000D01*
X161384815Y-46784006D01*
X161013999Y-47031777D01*
X160766228Y-47402593D01*
X160679222Y-47840000D01*
X160766228Y-48277407D01*
X161013999Y-48648223D01*
X161384815Y-48895994D01*
X161822222Y-48983000D01*
X162177778Y-48983000D01*
X162615185Y-48895994D01*
X162986001Y-48648223D01*
X163233772Y-48277407D01*
X163250044Y-48195600D01*
X166138854Y-48195600D01*
X166282381Y-48339378D01*
X166498932Y-48429297D01*
X166733410Y-48429502D01*
X166950117Y-48339960D01*
X167094729Y-48195600D01*
X168960000Y-48195600D01*
X169096082Y-48168532D01*
X169096083Y-48168532D01*
X169211447Y-48091447D01*
X172513569Y-44789324D01*
X172716725Y-44789502D01*
X172933432Y-44699960D01*
X173099378Y-44534304D01*
X173189297Y-44317753D01*
X173189502Y-44083275D01*
X173189502Y-49982018D01*
X173017753Y-49910703D01*
X172783275Y-49910498D01*
X172566568Y-50000040D01*
X172400622Y-50165696D01*
X172310703Y-50382247D01*
X172310524Y-50586581D01*
X171742706Y-51154400D01*
X163277294Y-51154400D01*
X163116224Y-50993330D01*
X163233772Y-50817407D01*
X163320778Y-50380000D01*
X163233772Y-49942593D01*
X162986001Y-49571777D01*
X162615185Y-49324006D01*
X162177778Y-49237000D01*
X161822222Y-49237000D01*
X161384815Y-49324006D01*
X161013999Y-49571777D01*
X160766228Y-49942593D01*
X160679222Y-50380000D01*
X160766228Y-50817407D01*
X161013999Y-51188223D01*
X161384815Y-51435994D01*
X161822222Y-51523000D01*
X162177778Y-51523000D01*
X162563400Y-51446294D01*
X162767106Y-51650000D01*
X162563400Y-51853705D01*
X162177778Y-51777000D01*
X161822222Y-51777000D01*
X161384815Y-51864006D01*
X161013999Y-52111777D01*
X160766228Y-52482593D01*
X160679222Y-52920000D01*
X160766228Y-53357407D01*
X161013999Y-53728223D01*
X161384815Y-53975994D01*
X161822222Y-54063000D01*
X162177778Y-54063000D01*
X162615185Y-53975994D01*
X162986001Y-53728223D01*
X163233772Y-53357407D01*
X163320778Y-52920000D01*
X163233772Y-52482593D01*
X163116224Y-52306669D01*
X163187294Y-52235600D01*
X172732706Y-52235600D01*
X173260675Y-52763569D01*
X173260498Y-52966725D01*
X173350040Y-53183432D01*
X173515696Y-53349378D01*
X173732247Y-53439297D01*
X173966725Y-53439502D01*
X174183432Y-53349960D01*
X174349378Y-53184304D01*
X174439297Y-52967753D01*
X174439502Y-52733275D01*
X174439502Y-56127604D01*
X165265600Y-65301506D01*
X165265600Y-64940000D01*
X165238532Y-64803918D01*
X165161447Y-64688553D01*
X165046082Y-64611468D01*
X164910000Y-64584400D01*
X163820000Y-64584400D01*
X163683918Y-64611468D01*
X163568553Y-64688553D01*
X163491468Y-64803918D01*
X163464400Y-64940000D01*
X163491468Y-65076082D01*
X163568553Y-65191447D01*
X163683918Y-65268532D01*
X163820000Y-65295600D01*
X164910000Y-65295600D01*
X165046082Y-65268532D01*
X165161447Y-65191447D01*
X165238532Y-65076082D01*
X165265600Y-64940000D01*
X165265600Y-65301506D01*
X163872706Y-66694400D01*
X163729694Y-66694400D01*
X163177266Y-66141972D01*
X163233772Y-66057407D01*
X163320778Y-65620000D01*
X163253543Y-65281988D01*
X163253543Y-63283563D01*
X163253543Y-62876437D01*
X163197982Y-62678079D01*
X162964583Y-62308547D01*
X162607537Y-62056461D01*
X162181200Y-61960200D01*
X162028800Y-61960200D01*
X162028800Y-63051200D01*
X163207757Y-63051200D01*
X163253543Y-62876437D01*
X163253543Y-63283563D01*
X163207757Y-63108800D01*
X162028800Y-63108800D01*
X162028800Y-64199800D01*
X162181200Y-64199800D01*
X162607537Y-64103539D01*
X162964583Y-63851453D01*
X163197982Y-63481921D01*
X163253543Y-63283563D01*
X163253543Y-65281988D01*
X163233772Y-65182593D01*
X162986001Y-64811777D01*
X162615185Y-64564006D01*
X162177778Y-64477000D01*
X161822222Y-64477000D01*
X161384815Y-64564006D01*
X161060199Y-64780907D01*
X161060199Y-63868949D01*
X161392463Y-64103539D01*
X161818800Y-64199800D01*
X161971200Y-64199800D01*
X161971200Y-63108800D01*
X161951200Y-63108800D01*
X161951200Y-63051200D01*
X161971200Y-63051200D01*
X161971200Y-61960200D01*
X161818800Y-61960200D01*
X161392463Y-62056461D01*
X161060199Y-62291050D01*
X161060199Y-61379092D01*
X161384815Y-61595994D01*
X161822222Y-61683000D01*
X162177778Y-61683000D01*
X162615185Y-61595994D01*
X162986001Y-61348223D01*
X163233772Y-60977407D01*
X163320778Y-60540000D01*
X163320778Y-58000000D01*
X163253543Y-57661988D01*
X163253543Y-55663563D01*
X163253543Y-55256437D01*
X163197982Y-55058079D01*
X162964583Y-54688547D01*
X162607537Y-54436461D01*
X162181200Y-54340200D01*
X162028800Y-54340200D01*
X162028800Y-55431200D01*
X163207757Y-55431200D01*
X163253543Y-55256437D01*
X163253543Y-55663563D01*
X163207757Y-55488800D01*
X162028800Y-55488800D01*
X162028800Y-56579800D01*
X162181200Y-56579800D01*
X162607537Y-56483539D01*
X162964583Y-56231453D01*
X163197982Y-55861921D01*
X163253543Y-55663563D01*
X163253543Y-57661988D01*
X163233772Y-57562593D01*
X162986001Y-57191777D01*
X162615185Y-56944006D01*
X162177778Y-56857000D01*
X161971200Y-56857000D01*
X161971200Y-56579800D01*
X161971200Y-55488800D01*
X161971200Y-55431200D01*
X161971200Y-54340200D01*
X161818800Y-54340200D01*
X161392463Y-54436461D01*
X161035417Y-54688547D01*
X160802018Y-55058079D01*
X160746457Y-55256437D01*
X160792243Y-55431200D01*
X161971200Y-55431200D01*
X161971200Y-55488800D01*
X160792243Y-55488800D01*
X160746457Y-55663563D01*
X160802018Y-55861921D01*
X161035417Y-56231453D01*
X161392463Y-56483539D01*
X161818800Y-56579800D01*
X161971200Y-56579800D01*
X161971200Y-56857000D01*
X161822222Y-56857000D01*
X161384815Y-56944006D01*
X161013999Y-57191777D01*
X160766228Y-57562593D01*
X160679222Y-58000000D01*
X160766228Y-58437407D01*
X161013999Y-58808223D01*
X161384815Y-59055994D01*
X161822222Y-59143000D01*
X162177778Y-59143000D01*
X162615185Y-59055994D01*
X162986001Y-58808223D01*
X163233772Y-58437407D01*
X163320778Y-58000000D01*
X163320778Y-60540000D01*
X163233772Y-60102593D01*
X162986001Y-59731777D01*
X162615185Y-59484006D01*
X162177778Y-59397000D01*
X161822222Y-59397000D01*
X161384815Y-59484006D01*
X161013999Y-59731777D01*
X160766228Y-60102593D01*
X160746592Y-60201308D01*
X160695518Y-60211468D01*
X160580153Y-60288553D01*
X160453152Y-60415554D01*
X160376067Y-60530918D01*
X160348999Y-60667001D01*
X160348999Y-76867121D01*
X160376067Y-77003204D01*
X160453152Y-77118568D01*
X162815432Y-79480848D01*
X162930796Y-79557932D01*
X162930797Y-79557933D01*
X163066879Y-79585001D01*
X180785599Y-79585001D01*
X180921681Y-79557933D01*
X180921682Y-79557933D01*
X181037046Y-79480848D01*
X181283020Y-79234874D01*
X181665000Y-79234874D01*
X181771534Y-79214204D01*
X181865168Y-79152696D01*
X181927846Y-79059842D01*
X181949874Y-78950000D01*
X181949874Y-77450000D01*
X181929204Y-77343466D01*
X181867696Y-77249832D01*
X181774842Y-77187154D01*
X181665000Y-77165126D01*
X181065000Y-77165126D01*
X180958466Y-77185796D01*
X180864832Y-77247304D01*
X180802154Y-77340158D01*
X180780126Y-77450000D01*
X180780126Y-78731980D01*
X180679874Y-78832232D01*
X180679874Y-77450000D01*
X180659204Y-77343466D01*
X180597696Y-77249832D01*
X180504842Y-77187154D01*
X180395000Y-77165126D01*
X180013020Y-77165126D01*
X176795600Y-73947706D01*
X176795600Y-70822573D01*
X176797304Y-70825168D01*
X176890158Y-70887846D01*
X177000000Y-70909874D01*
X177394400Y-70909874D01*
X177394400Y-71765126D01*
X177255000Y-71765126D01*
X177148466Y-71785796D01*
X177054832Y-71847304D01*
X176992154Y-71940158D01*
X176970126Y-72050000D01*
X176970126Y-73550000D01*
X176990796Y-73656534D01*
X177052304Y-73750168D01*
X177145158Y-73812846D01*
X177255000Y-73834874D01*
X177855000Y-73834874D01*
X177961534Y-73814204D01*
X178055168Y-73752696D01*
X178117846Y-73659842D01*
X178139874Y-73550000D01*
X178139874Y-72050000D01*
X178119204Y-71943466D01*
X178105600Y-71922756D01*
X178105600Y-70909874D01*
X178500000Y-70909874D01*
X178606534Y-70889204D01*
X178644400Y-70864329D01*
X178644400Y-71765126D01*
X178525000Y-71765126D01*
X178418466Y-71785796D01*
X178324832Y-71847304D01*
X178262154Y-71940158D01*
X178240126Y-72050000D01*
X178240126Y-73550000D01*
X178260796Y-73656534D01*
X178322304Y-73750168D01*
X178415158Y-73812846D01*
X178525000Y-73834874D01*
X179125000Y-73834874D01*
X179231534Y-73814204D01*
X179325168Y-73752696D01*
X179387846Y-73659842D01*
X179409874Y-73550000D01*
X179409874Y-72050000D01*
X179389204Y-71943466D01*
X179355600Y-71892310D01*
X179355600Y-70864518D01*
X179390158Y-70887846D01*
X179500000Y-70909874D01*
X179894400Y-70909874D01*
X179894400Y-71765126D01*
X179795000Y-71765126D01*
X179688466Y-71785796D01*
X179594832Y-71847304D01*
X179532154Y-71940158D01*
X179510126Y-72050000D01*
X179510126Y-73550000D01*
X179530796Y-73656534D01*
X179592304Y-73750168D01*
X179685158Y-73812846D01*
X179795000Y-73834874D01*
X180395000Y-73834874D01*
X180501534Y-73814204D01*
X180595168Y-73752696D01*
X180657846Y-73659842D01*
X180679874Y-73550000D01*
X180679874Y-72050000D01*
X180659204Y-71943466D01*
X180605600Y-71861864D01*
X180605600Y-70909874D01*
X181000000Y-70909874D01*
X181008337Y-70908256D01*
X180850622Y-71065696D01*
X180760703Y-71282247D01*
X180760498Y-71516725D01*
X180850040Y-71733432D01*
X180924551Y-71808074D01*
X180864832Y-71847304D01*
X180802154Y-71940158D01*
X180780126Y-72050000D01*
X180780126Y-73550000D01*
X180800796Y-73656534D01*
X180862304Y-73750168D01*
X180955158Y-73812846D01*
X181065000Y-73834874D01*
X181588801Y-73834874D01*
X181588801Y-76607001D01*
X181615869Y-76743084D01*
X181692954Y-76858448D01*
X182113464Y-77278958D01*
X182072154Y-77340158D01*
X182050126Y-77450000D01*
X182050126Y-78950000D01*
X182070796Y-79056534D01*
X182132304Y-79150168D01*
X182225158Y-79212846D01*
X182335000Y-79234874D01*
X182935000Y-79234874D01*
X183041534Y-79214204D01*
X183135168Y-79152696D01*
X183197846Y-79059842D01*
X183219874Y-78950000D01*
X183219874Y-77450000D01*
X183199204Y-77343466D01*
X183137696Y-77249832D01*
X183044842Y-77187154D01*
X182965464Y-77171235D01*
X182963532Y-77161518D01*
X182963531Y-77161517D01*
X182937953Y-77123237D01*
X182886447Y-77046153D01*
X182886447Y-77046152D01*
X182300001Y-76459706D01*
X182300001Y-73827855D01*
X182335000Y-73834874D01*
X182935000Y-73834874D01*
X183041534Y-73814204D01*
X183135168Y-73752696D01*
X183197846Y-73659842D01*
X183219874Y-73550000D01*
X183219874Y-72050000D01*
X183199204Y-71943466D01*
X183137696Y-71849832D01*
X183075622Y-71807931D01*
X183149378Y-71734304D01*
X183239297Y-71517753D01*
X183239502Y-71283275D01*
X183230010Y-71260304D01*
X183549400Y-71579694D01*
X183549400Y-71775913D01*
X183498466Y-71785796D01*
X183404832Y-71847304D01*
X183342154Y-71940158D01*
X183320126Y-72050000D01*
X183320126Y-73550000D01*
X183340796Y-73656534D01*
X183402304Y-73750168D01*
X183495158Y-73812846D01*
X183605000Y-73834874D01*
X184144400Y-73834874D01*
X184144400Y-76555306D01*
X183653553Y-77046153D01*
X183576468Y-77161517D01*
X183574576Y-77171028D01*
X183574575Y-77171028D01*
X183498466Y-77185796D01*
X183404832Y-77247304D01*
X183342154Y-77340158D01*
X183320126Y-77450000D01*
X183320126Y-78950000D01*
X183340796Y-79056534D01*
X183402304Y-79150168D01*
X183495158Y-79212846D01*
X183605000Y-79234874D01*
X184205000Y-79234874D01*
X184311534Y-79214204D01*
X184405168Y-79152696D01*
X184467846Y-79059842D01*
X184489874Y-78950000D01*
X184489874Y-77450000D01*
X184469204Y-77343466D01*
X184426712Y-77278781D01*
X184751447Y-76954047D01*
X184828532Y-76838683D01*
X184828532Y-76838682D01*
X184855600Y-76702600D01*
X184855600Y-73830983D01*
X184875000Y-73834874D01*
X185475000Y-73834874D01*
X185581534Y-73814204D01*
X185675168Y-73752696D01*
X185737846Y-73659842D01*
X185759874Y-73550000D01*
X185759874Y-77450000D01*
X185739204Y-77343466D01*
X185677696Y-77249832D01*
X185584842Y-77187154D01*
X185475000Y-77165126D01*
X184875000Y-77165126D01*
X184768466Y-77185796D01*
X184674832Y-77247304D01*
X184612154Y-77340158D01*
X184590126Y-77450000D01*
X184590126Y-78950000D01*
X184610796Y-79056534D01*
X184672304Y-79150168D01*
X184765158Y-79212846D01*
X184875000Y-79234874D01*
X185475000Y-79234874D01*
X185581534Y-79214204D01*
X185675168Y-79152696D01*
X185737846Y-79059842D01*
X185759874Y-78950000D01*
X185759874Y-79673800D01*
X160326200Y-79673800D01*
X160326200Y-38500000D01*
X160326200Y-38326200D01*
X171419898Y-38326200D01*
X171415126Y-38350000D01*
X171415126Y-39549100D01*
X166170000Y-39549100D01*
X166024236Y-39578094D01*
X165900663Y-39660663D01*
X163253543Y-42307782D01*
X163253543Y-40423563D01*
X163253543Y-40016437D01*
X163197982Y-39818079D01*
X162964583Y-39448547D01*
X162607537Y-39196461D01*
X162181200Y-39100200D01*
X162028800Y-39100200D01*
X162028800Y-40191200D01*
X163207757Y-40191200D01*
X163253543Y-40016437D01*
X163253543Y-40423563D01*
X163207757Y-40248800D01*
X162028800Y-40248800D01*
X162028800Y-41339800D01*
X162181200Y-41339800D01*
X162607537Y-41243539D01*
X162964583Y-40991453D01*
X163197982Y-40621921D01*
X163253543Y-40423563D01*
X163253543Y-42307782D01*
X163234595Y-42326730D01*
X163233772Y-42322593D01*
X162986001Y-41951777D01*
X162615185Y-41704006D01*
X162177778Y-41617000D01*
X161971200Y-41617000D01*
X161971200Y-41339800D01*
X161971200Y-40248800D01*
X161971200Y-40191200D01*
X161971200Y-39100200D01*
X161818800Y-39100200D01*
X161392463Y-39196461D01*
X161035417Y-39448547D01*
X160802018Y-39818079D01*
X160746457Y-40016437D01*
X160792243Y-40191200D01*
X161971200Y-40191200D01*
X161971200Y-40248800D01*
X160792243Y-40248800D01*
X160746457Y-40423563D01*
X160802018Y-40621921D01*
X161035417Y-40991453D01*
X161392463Y-41243539D01*
X161818800Y-41339800D01*
X161971200Y-41339800D01*
X161971200Y-41617000D01*
X161822222Y-41617000D01*
X161384815Y-41704006D01*
X161013999Y-41951777D01*
X160766228Y-42322593D01*
X160679222Y-42760000D01*
X160766228Y-43197407D01*
X161013999Y-43568223D01*
X161384815Y-43815994D01*
X161822222Y-43903000D01*
X162177778Y-43903000D01*
X162615185Y-43815994D01*
X162986001Y-43568223D01*
X163233772Y-43197407D01*
X163237055Y-43180900D01*
X163300000Y-43180900D01*
X163445764Y-43151906D01*
X163569337Y-43069337D01*
X166327774Y-40310900D01*
X171415126Y-40310900D01*
X171415126Y-41350000D01*
X171435796Y-41456534D01*
X171497304Y-41550168D01*
X171590158Y-41612846D01*
X171700000Y-41634874D01*
X175300000Y-41634874D01*
X175406534Y-41614204D01*
X175500168Y-41552696D01*
X175562846Y-41459842D01*
X175584874Y-41350000D01*
X175584874Y-39750900D01*
X176149100Y-39750900D01*
X176149100Y-44450180D01*
X176030622Y-44568451D01*
X175940703Y-44785002D01*
X175940498Y-45019480D01*
X176030040Y-45236187D01*
X176149100Y-45355455D01*
X176149100Y-50347425D01*
X176030622Y-50465696D01*
X175940703Y-50682247D01*
X175940498Y-50916725D01*
X176030040Y-51133432D01*
X176195696Y-51299378D01*
X176412247Y-51389297D01*
X176646725Y-51389502D01*
X176863432Y-51299960D01*
X177029378Y-51134304D01*
X177119297Y-50917753D01*
X177119502Y-50683275D01*
X177029960Y-50466568D01*
X176910900Y-50347299D01*
X176910900Y-45355329D01*
X177029378Y-45237059D01*
X177119297Y-45020508D01*
X177119502Y-44786030D01*
X177029960Y-44569323D01*
X176910900Y-44450054D01*
X176910900Y-39370000D01*
X176881906Y-39224236D01*
X176799337Y-39100663D01*
X176675764Y-39018094D01*
X176530000Y-38989100D01*
X175584874Y-38989100D01*
X175584874Y-38350000D01*
X175580256Y-38326200D01*
X187673800Y-38326200D01*
X187673800Y-38500000D01*
X187673800Y-79673800D01*
M02*
