G04 #@! TF.FileFunction,Legend,Bot*
%FSLAX46Y46*%
G04 Gerber Fmt 4.6, Leading zero omitted, Abs format (unit mm)*
G04 Created by KiCad (PCBNEW (2015-01-02 BZR 5348)-product) date 1/7/2015 6:05:39 PM*
%MOMM*%
G01*
G04 APERTURE LIST*
%ADD10C,0.150000*%
G04 APERTURE END LIST*
D10*
X171364524Y-68137619D02*
X170514524Y-68137619D01*
X171364524Y-68623333D01*
X170514524Y-68623333D01*
X170919286Y-69028095D02*
X170919286Y-69311428D01*
X171364524Y-69432857D02*
X171364524Y-69028095D01*
X170514524Y-69028095D01*
X170514524Y-69432857D01*
X170555000Y-70242381D02*
X170514524Y-70161429D01*
X170514524Y-70040000D01*
X170555000Y-69918572D01*
X170635952Y-69837619D01*
X170716905Y-69797143D01*
X170878810Y-69756667D01*
X171000238Y-69756667D01*
X171162143Y-69797143D01*
X171243095Y-69837619D01*
X171324048Y-69918572D01*
X171364524Y-70040000D01*
X171364524Y-70120952D01*
X171324048Y-70242381D01*
X171283571Y-70282857D01*
X171000238Y-70282857D01*
X171000238Y-70120952D01*
X183500000Y-54500000D02*
G75*
G03X183500000Y-54500000I-10000000J0D01*
G01*
X173500000Y-41500000D02*
X181500000Y-41500000D01*
X181500000Y-41500000D02*
X181500000Y-67500000D01*
X181500000Y-67500000D02*
X165500000Y-67500000D01*
X165500000Y-67500000D02*
X165500000Y-41500000D01*
X165500000Y-41500000D02*
X173500000Y-41500000D01*
X179500000Y-70850000D02*
X178500000Y-70850000D01*
X178500000Y-69150000D02*
X179500000Y-69150000D01*
X184000000Y-69150000D02*
X185000000Y-69150000D01*
X185000000Y-70850000D02*
X184000000Y-70850000D01*
X176925000Y-73425000D02*
X177030000Y-73425000D01*
X176925000Y-77575000D02*
X177030000Y-77575000D01*
X187075000Y-77575000D02*
X186970000Y-77575000D01*
X187075000Y-73425000D02*
X186970000Y-73425000D01*
X176925000Y-73425000D02*
X176925000Y-77575000D01*
X187075000Y-73425000D02*
X187075000Y-77575000D01*
X177030000Y-73425000D02*
X177030000Y-72050000D01*
X179133333Y-68785714D02*
X179171428Y-68823810D01*
X179285714Y-68861905D01*
X179361904Y-68861905D01*
X179476190Y-68823810D01*
X179552381Y-68747619D01*
X179590476Y-68671429D01*
X179628571Y-68519048D01*
X179628571Y-68404762D01*
X179590476Y-68252381D01*
X179552381Y-68176190D01*
X179476190Y-68100000D01*
X179361904Y-68061905D01*
X179285714Y-68061905D01*
X179171428Y-68100000D01*
X179133333Y-68138095D01*
X178828571Y-68138095D02*
X178790476Y-68100000D01*
X178714285Y-68061905D01*
X178523809Y-68061905D01*
X178447619Y-68100000D01*
X178409523Y-68138095D01*
X178371428Y-68214286D01*
X178371428Y-68290476D01*
X178409523Y-68404762D01*
X178866666Y-68861905D01*
X178371428Y-68861905D01*
X184633333Y-68785714D02*
X184671428Y-68823810D01*
X184785714Y-68861905D01*
X184861904Y-68861905D01*
X184976190Y-68823810D01*
X185052381Y-68747619D01*
X185090476Y-68671429D01*
X185128571Y-68519048D01*
X185128571Y-68404762D01*
X185090476Y-68252381D01*
X185052381Y-68176190D01*
X184976190Y-68100000D01*
X184861904Y-68061905D01*
X184785714Y-68061905D01*
X184671428Y-68100000D01*
X184633333Y-68138095D01*
X183909523Y-68061905D02*
X184290476Y-68061905D01*
X184328571Y-68442857D01*
X184290476Y-68404762D01*
X184214285Y-68366667D01*
X184023809Y-68366667D01*
X183947619Y-68404762D01*
X183909523Y-68442857D01*
X183871428Y-68519048D01*
X183871428Y-68709524D01*
X183909523Y-68785714D01*
X183947619Y-68823810D01*
X184023809Y-68861905D01*
X184214285Y-68861905D01*
X184290476Y-68823810D01*
X184328571Y-68785714D01*
X176452381Y-72357143D02*
X175452381Y-72357143D01*
X176166667Y-72690477D01*
X175452381Y-73023810D01*
X176452381Y-73023810D01*
X176166667Y-73452381D02*
X176166667Y-73928572D01*
X176452381Y-73357143D02*
X175452381Y-73690476D01*
X176452381Y-74023810D01*
X175452381Y-74261905D02*
X176452381Y-74928572D01*
X175452381Y-74928572D02*
X176452381Y-74261905D01*
X175452381Y-75214286D02*
X175452381Y-75833334D01*
X175833333Y-75500000D01*
X175833333Y-75642858D01*
X175880952Y-75738096D01*
X175928571Y-75785715D01*
X176023810Y-75833334D01*
X176261905Y-75833334D01*
X176357143Y-75785715D01*
X176404762Y-75738096D01*
X176452381Y-75642858D01*
X176452381Y-75357143D01*
X176404762Y-75261905D01*
X176357143Y-75214286D01*
X175547619Y-76214286D02*
X175500000Y-76261905D01*
X175452381Y-76357143D01*
X175452381Y-76595239D01*
X175500000Y-76690477D01*
X175547619Y-76738096D01*
X175642857Y-76785715D01*
X175738095Y-76785715D01*
X175880952Y-76738096D01*
X176452381Y-76166667D01*
X176452381Y-76785715D01*
X175452381Y-77119048D02*
X175452381Y-77738096D01*
X175833333Y-77404762D01*
X175833333Y-77547620D01*
X175880952Y-77642858D01*
X175928571Y-77690477D01*
X176023810Y-77738096D01*
X176261905Y-77738096D01*
X176357143Y-77690477D01*
X176404762Y-77642858D01*
X176452381Y-77547620D01*
X176452381Y-77261905D01*
X176404762Y-77166667D01*
X176357143Y-77119048D01*
X175547619Y-78119048D02*
X175500000Y-78166667D01*
X175452381Y-78261905D01*
X175452381Y-78500001D01*
X175500000Y-78595239D01*
X175547619Y-78642858D01*
X175642857Y-78690477D01*
X175738095Y-78690477D01*
X175880952Y-78642858D01*
X176452381Y-78071429D01*
X176452381Y-78690477D01*
M02*
