M48
;DRILL file {kicad (2015-01-02 BZR 5348)-product} date 1/7/2015 6:12:17 PM
;FORMAT={-:-/ absolute / metric / decimal}
FMAT,2
METRIC,TZ
T1C0.320
T2C0.700
T3C1.016
%
G90
G05
M71
T1
X165.15Y-71.7
X166.617Y-47.84
X166.709Y-73.95
X170.1Y-57.25
X172.157Y-72.997
X172.6Y-44.2
X172.9Y-50.5
X172.9Y-60.1
X172.9Y-61.9
X173.85Y-52.85
X176.53Y-44.903
X176.53Y-50.8
X177.5Y-62.5
X178.998Y-66.548
X179.Y-69.
X180.65Y-42.7
X181.35Y-71.4
X182.Y-44.9
X182.65Y-71.4
X182.702Y-49.202
X183.6Y-50.5
X183.9Y-65.4
X183.911Y-54.65
T2
X166.6Y-76.73
X166.6Y-78.
X167.87Y-76.73
X167.87Y-78.
X169.14Y-76.73
X169.14Y-78.
X170.41Y-76.73
X170.41Y-78.
X171.68Y-76.73
X171.68Y-78.
T3
X162.Y-40.22
X162.Y-42.76
X162.Y-45.3
X162.Y-47.84
X162.Y-50.38
X162.Y-52.92
X162.Y-55.46
X162.Y-58.
X162.Y-60.54
X162.Y-63.08
X162.Y-65.62
X162.Y-68.16
X162.Y-70.7
X162.Y-73.24
X162.Y-75.78
T0
M30
